<?xml version="1.0" encoding="UTF-8"?>
<svg xmlns="http://www.w3.org/2000/svg" xmlns:xlink="http://www.w3.org/1999/xlink" viewBox="0 0 105.62 65.55">
  <defs>
    <style>
      .cls-1 {
        fill: #de85a0;
        opacity: .4;
      }

      .cls-1, .cls-2, .cls-3, .cls-4, .cls-5, .cls-6, .cls-7, .cls-8, .cls-9, .cls-10 {
        mix-blend-mode: multiply;
      }

      .cls-11 {
        fill: #de6d74;
      }

      .cls-12 {
        fill: #ad3556;
      }

      .cls-13 {
        fill: #ed8f96;
      }

      .cls-14 {
        fill: url(#Gradient_22-5);
      }

      .cls-15 {
        fill: url(#Gradient_6-10);
      }

      .cls-16 {
        fill: url(#Gradient_26);
      }

      .cls-17 {
        fill: url(#Gradient_24-2);
      }

      .cls-18 {
        fill: url(#Gradient_22-6);
      }

      .cls-19 {
        fill: url(#Gradient_25);
      }

      .cls-20 {
        fill: url(#Gradient_22-3);
      }

      .cls-21 {
        fill: #f6b190;
      }

      .cls-22 {
        fill: #fb9f7a;
      }

      .cls-23 {
        fill: url(#Gradient_27);
      }

      .cls-2 {
        fill: #cb3e68;
      }

      .cls-2, .cls-9 {
        opacity: .2;
      }

      .cls-24 {
        fill: #ffa088;
      }

      .cls-3, .cls-6, .cls-8 {
        fill: #bc577b;
      }

      .cls-3, .cls-7 {
        opacity: .5;
      }

      .cls-25 {
        fill: url(#Gradient_23-4);
      }

      .cls-4 {
        fill: #ffc1bd;
        opacity: .3;
      }

      .cls-26 {
        fill: url(#Gradient_24);
      }

      .cls-27 {
        fill: url(#Gradient_24-4);
      }

      .cls-28 {
        fill: url(#Gradient_22);
      }

      .cls-29 {
        fill: url(#Gradient_6-4);
      }

      .cls-5 {
        fill: #dc587c;
        opacity: .6;
      }

      .cls-30 {
        fill: #d5615a;
      }

      .cls-31 {
        fill: url(#Gradient_6-5);
      }

      .cls-32 {
        fill: url(#Gradient_22-7);
      }

      .cls-33 {
        fill: url(#Gradient_6-8);
      }

      .cls-34 {
        isolation: isolate;
      }

      .cls-34, .cls-10 {
        fill: none;
      }

      .cls-6 {
        opacity: .8;
      }

      .cls-7 {
        fill: #b8a69b;
      }

      .cls-35 {
        fill: url(#Gradient_22-8);
      }

      .cls-36 {
        fill: url(#Gradient_22-4);
      }

      .cls-37 {
        fill: #ffb582;
      }

      .cls-38 {
        fill: url(#Gradient_24-5);
      }

      .cls-8 {
        opacity: .64;
      }

      .cls-39 {
        fill: #ffe2c3;
      }

      .cls-40 {
        fill: url(#Gradient_6);
      }

      .cls-41 {
        fill: #f39985;
      }

      .cls-42 {
        fill: #ffe2d0;
      }

      .cls-43 {
        fill: url(#Gradient_6-7);
      }

      .cls-44 {
        fill: #ffeee9;
      }

      .cls-45 {
        fill: url(#Gradient_6-3);
      }

      .cls-46 {
        fill: url(#Gradient_24-6);
      }

      .cls-47 {
        fill: url(#Gradient_22-9);
      }

      .cls-48 {
        fill: url(#Gradient_6-9);
      }

      .cls-49 {
        fill: url(#Gradient_6-2);
      }

      .cls-50 {
        fill: url(#Gradient_6-6);
      }

      .cls-9 {
        fill: #bf6a8a;
      }

      .cls-51 {
        fill: url(#Gradient_23-2);
      }

      .cls-52 {
        fill: url(#Gradient_23-3);
      }

      .cls-53 {
        fill: url(#Gradient_23);
      }

      .cls-54 {
        fill: url(#Gradient_22-2);
      }

      .cls-55 {
        fill: #fffefe;
      }

      .cls-56 {
        fill: url(#Gradient_24-3);
      }

      .cls-10 {
        opacity: .68;
      }
    </style>
    <linearGradient id="Gradient_23" data-name="Gradient 23" x1="0" y1="42.24" x2="105.03" y2="42.24" gradientUnits="userSpaceOnUse">
      <stop offset="0" stop-color="#ffeac5"/>
      <stop offset=".38" stop-color="#ffc2a5"/>
      <stop offset=".8" stop-color="#d75f5c"/>
      <stop offset="1" stop-color="#e16159"/>
    </linearGradient>
    <linearGradient id="Gradient_23-2" data-name="Gradient 23" x1="3.69" y1="40.05" x2="101.34" y2="40.05" xlink:href="#Gradient_23"/>
    <linearGradient id="Gradient_23-3" data-name="Gradient 23" x1="2.12" y1="37.28" x2="103.04" y2="37.28" xlink:href="#Gradient_23"/>
    <linearGradient id="Gradient_27" data-name="Gradient 27" x1="4.49" y1="20.2" x2="100.54" y2="20.2" gradientUnits="userSpaceOnUse">
      <stop offset="0" stop-color="#eb545f"/>
      <stop offset=".15" stop-color="#ec5c63"/>
      <stop offset=".38" stop-color="#f07570"/>
      <stop offset=".68" stop-color="#f69c85"/>
      <stop offset="1" stop-color="#ffcea0"/>
    </linearGradient>
    <linearGradient id="Gradient_25" data-name="Gradient 25" x1="32.34" y1="32.41" x2="73.65" y2="32.41" gradientUnits="userSpaceOnUse">
      <stop offset="0" stop-color="#ffac82"/>
      <stop offset="1" stop-color="#ffcea0"/>
    </linearGradient>
    <linearGradient id="Gradient_24" data-name="Gradient 24" x1="7.68" y1="20.92" x2="98.65" y2="20.92" gradientUnits="userSpaceOnUse">
      <stop offset="0" stop-color="#fc9c6b"/>
      <stop offset=".16" stop-color="#fca273"/>
      <stop offset=".43" stop-color="#fcb48c"/>
      <stop offset=".77" stop-color="#fed0b3"/>
      <stop offset="1" stop-color="#ffe8d3"/>
    </linearGradient>
    <linearGradient id="Gradient_24-2" data-name="Gradient 24" x1="13.04" y1="22.58" x2="93.29" y2="22.58" xlink:href="#Gradient_24"/>
    <linearGradient id="Gradient_24-3" data-name="Gradient 24" x1="16.68" y1="24.69" x2="89.65" y2="24.69" xlink:href="#Gradient_24"/>
    <linearGradient id="Gradient_24-4" data-name="Gradient 24" x1="21.49" y1="26.47" x2="84.83" y2="26.47" xlink:href="#Gradient_24"/>
    <linearGradient id="Gradient_24-5" data-name="Gradient 24" x1="26.56" y1="28.41" x2="81.16" y2="28.41" xlink:href="#Gradient_24"/>
    <linearGradient id="Gradient_24-6" data-name="Gradient 24" x1="31.03" y1="29.65" x2="76.69" y2="29.65" xlink:href="#Gradient_24"/>
    <linearGradient id="Gradient_22" data-name="Gradient 22" x1="64.87" y1="27.16" x2="64.87" y2="23.26" gradientUnits="userSpaceOnUse">
      <stop offset="0" stop-color="#dc5457"/>
      <stop offset="1" stop-color="#782055"/>
    </linearGradient>
    <linearGradient id="Gradient_6" data-name="Gradient 6" x1="30.91" y1="31.86" x2="30.91" y2="16.76" gradientUnits="userSpaceOnUse">
      <stop offset="0" stop-color="#f87255"/>
      <stop offset="1" stop-color="#b44c58"/>
    </linearGradient>
    <linearGradient id="Gradient_6-2" data-name="Gradient 6" x1="64.91" y1="15.7" x2="64.91" y2="8.16" xlink:href="#Gradient_6"/>
    <linearGradient id="Gradient_6-3" data-name="Gradient 6" x1="68.23" y1="16.74" x2="68.23" y2="8.16" xlink:href="#Gradient_6"/>
    <linearGradient id="Gradient_6-4" data-name="Gradient 6" x1="68.63" y1="13.05" x2="72.22" y2="13.05" xlink:href="#Gradient_6"/>
    <linearGradient id="Gradient_23-4" data-name="Gradient 23" x1="1.03" y1="36.95" x2="103.99" y2="36.95" xlink:href="#Gradient_23"/>
    <linearGradient id="Gradient_6-5" data-name="Gradient 6" x1="6.32" y1="46.79" x2="6.32" y2="38.44" xlink:href="#Gradient_6"/>
    <linearGradient id="Gradient_6-6" data-name="Gradient 6" x1="19.08" y1="55.24" x2="19.08" y2="47.64" xlink:href="#Gradient_6"/>
    <linearGradient id="Gradient_6-7" data-name="Gradient 6" x1="35.75" y1="59.33" x2="35.75" y2="52.37" xlink:href="#Gradient_6"/>
    <linearGradient id="Gradient_22-2" data-name="Gradient 22" x1="53.71" y1="60.45" x2="53.71" y2="53.23" xlink:href="#Gradient_22"/>
    <linearGradient id="Gradient_22-3" data-name="Gradient 22" x1="70.58" y1="59.33" x2="70.58" y2="52.36" xlink:href="#Gradient_22"/>
    <linearGradient id="Gradient_22-4" data-name="Gradient 22" x1="86.96" y1="54.75" x2="86.96" y2="47.13" xlink:href="#Gradient_22"/>
    <linearGradient id="Gradient_22-5" data-name="Gradient 22" x1="98.65" y1="47" x2="98.65" y2="38.62" xlink:href="#Gradient_22"/>
    <linearGradient id="Gradient_26" data-name="Gradient 26" x1="369.26" y1="410.39" x2="369.26" y2="409.43" gradientTransform="translate(336.49 -436.54) rotate(75.49) scale(1.39 1.04) skewX(-10.93)" gradientUnits="userSpaceOnUse">
      <stop offset=".02" stop-color="#ffe9b6"/>
      <stop offset=".16" stop-color="#f4aca1"/>
      <stop offset=".32" stop-color="#f7bfa7"/>
      <stop offset=".57" stop-color="#fbd6af"/>
      <stop offset=".8" stop-color="#fee4b4"/>
      <stop offset="1" stop-color="#ffe9b6"/>
    </linearGradient>
    <linearGradient id="Gradient_22-6" data-name="Gradient 22" x1="53.72" y1="47.7" x2="53.72" y2="45.07" xlink:href="#Gradient_22"/>
    <linearGradient id="Gradient_22-7" data-name="Gradient 22" x1="71.15" y1="46.33" x2="71.15" y2="43.54" xlink:href="#Gradient_22"/>
    <linearGradient id="Gradient_22-8" data-name="Gradient 22" x1="85.99" y1="42.24" x2="85.99" y2="39.93" xlink:href="#Gradient_22"/>
    <linearGradient id="Gradient_22-9" data-name="Gradient 22" x1="98.79" y1="34.89" x2="98.79" y2="32.09" xlink:href="#Gradient_22"/>
    <linearGradient id="Gradient_6-8" data-name="Gradient 6" x1="732.9" y1="46.52" x2="732.9" y2="43.72" gradientTransform="translate(768.05) rotate(-180) scale(1 -1)" xlink:href="#Gradient_6"/>
    <linearGradient id="Gradient_6-9" data-name="Gradient 6" x1="750.54" y1="41.79" x2="750.54" y2="39.48" gradientTransform="translate(768.05) rotate(-180) scale(1 -1)" xlink:href="#Gradient_6"/>
    <linearGradient id="Gradient_6-10" data-name="Gradient 6" x1="762.26" y1="34.4" x2="762.26" y2="31.6" gradientTransform="translate(768.05) rotate(-180) scale(1 -1)" xlink:href="#Gradient_6"/>
  </defs>
  <g class="cls-34">
    <g id="Warstwa_2" data-name="Warstwa 2">
      <g id="objects">
        <g>
          <ellipse class="cls-55" cx="52.52" cy="40.64" rx="52.52" ry="23.31"/>
          <ellipse class="cls-53" cx="52.52" cy="42.24" rx="52.52" ry="23.31"/>
          <ellipse class="cls-55" cx="52.52" cy="40.64" rx="52.52" ry="23.31"/>
          <path class="cls-6" d="m46.33,60.14s13.32,3.27,31.97,0c20.35-3.57,27.6-13.78,26.71-20.23s-6.35-6.11-6.35-6.11l-52.32,26.34Z"/>
          <path class="cls-51" d="m101.34,38c0,12.33-21.86,22.32-48.82,22.32S3.69,50.33,3.69,38s21.86-18.22,48.82-18.22,48.82,5.9,48.82,18.22Z"/>
          <path class="cls-52" d="m2.18,19.08c-.38,1.79,1.14,17.21,1.67,20.15.53,2.93,15.83,16.51,50.05,16.51s46-14.65,47.11-15.78c1.11-1.12,2.28-16.7,2-19.38S2.18,19.08,2.18,19.08Z"/>
          <ellipse class="cls-55" cx="52.52" cy="20.2" rx="50.4" ry="20.2"/>
          <ellipse class="cls-23" cx="52.52" cy="20.2" rx="48.03" ry="19.25"/>
          <path class="cls-19" d="m73.62,34.39c-.06.36-.45.02-.61.41-5.11,1.84-10.58,4.85-17.57,4.8-8.26-.05-16.32-.67-23.06-2.92-.08-.39,0-1.52,0-1.92.06-2.14,5.77-9.29,19.05-9.55,14.92-.28,22.8,5.25,22.19,9.17Z"/>
          <path class="cls-26" d="m53.16,2.55C28.04,2.55,7.68,10.77,7.68,20.92s20.36,18.37,45.49,18.37,45.49-8.22,45.49-18.37S78.28,2.55,53.16,2.55Zm0,36.67c-24.15,0-43.73-7.91-43.73-17.66S29.01,3.9,53.16,3.9s43.73,7.91,43.73,17.66-19.58,17.66-43.73,17.66Z"/>
          <path class="cls-17" d="m53.16,6.08c-22.16,0-40.12,7.39-40.12,16.51s17.96,16.51,40.12,16.51,40.12-7.39,40.12-16.51S75.32,6.08,53.16,6.08Zm0,32.95c-21.31,0-38.58-7.11-38.58-15.87S31.86,7.29,53.16,7.29s38.58,7.11,38.58,15.87-17.27,15.87-38.58,15.87Z"/>
          <path class="cls-56" d="m53.16,9.91c-20.15,0-36.49,6.62-36.49,14.78s16.34,14.78,36.49,14.78,36.49-6.62,36.49-14.78-16.34-14.78-36.49-14.78Zm0,29.19c-18.94,0-34.29-6.22-34.29-13.89s15.35-13.89,34.29-13.89,34.29,6.22,34.29,13.89-15.35,13.89-34.29,13.89Z"/>
          <path class="cls-27" d="m53.16,13.55c-17.49,0-31.67,5.79-31.67,12.92s14.18,12.92,31.67,12.92,31.67-5.79,31.67-12.92-14.18-12.92-31.67-12.92Zm0,25.39c-16.25,0-29.43-5.38-29.43-12.01s13.18-12.01,29.43-12.01,29.43,5.38,29.43,12.01-13.18,12.01-29.43,12.01Z"/>
          <path class="cls-38" d="m53.86,16.9c-15.08,0-27.3,5.15-27.3,11.51s12.22,11.51,27.3,11.51,27.3-5.15,27.3-11.51-12.22-11.51-27.3-11.51Zm0,22.45c-13.82,0-25.02-4.72-25.02-10.54s11.2-10.54,25.02-10.54,25.02,4.72,25.02,10.54-11.2,10.54-25.02,10.54Z"/>
          <path class="cls-46" d="m53.86,20.19c-12.61,0-22.83,4.23-22.83,9.46s10.22,9.46,22.83,9.46,22.83-4.23,22.83-9.46-10.22-9.46-22.83-9.46Zm0,18.43c-11.52,0-20.86-3.87-20.86-8.64s9.34-8.64,20.86-8.64,20.86,3.87,20.86,8.64-9.34,8.64-20.86,8.64Z"/>
          <path class="cls-28" d="m63.87,26.51v-2.4s.32-1.15,1.15-.77c.83.38.83,1.55.83,1.55v2.28l-1.98-.65Z"/>
          <polygon class="cls-37" points="63.87 26.51 65.86 25.96 65.86 27.16 63.87 26.51"/>
          <path class="cls-40" d="m37.1,29.19v-4.35l-6.63-8.08-.03.71c-1.38.88-4.75,2.37-5.71,3.31l2.57.56,6.59,5.58.08,4.93,3.13-2.67Z"/>
          <path class="cls-12" d="m30.47,16.76l.45,8.45-3.81-3.87-1.46-2.72s2.12-1.31,4.82-1.86Z"/>
          <polygon class="cls-39" points="24.73 19.17 25.64 18.62 34.79 26.47 33.89 26.92 24.73 19.17"/>
          <polygon class="cls-39" points="30.47 16.76 31.24 16.56 37.72 24.5 37.1 24.83 30.47 16.76"/>
          <polygon class="cls-49" points="63.63 15.7 65.78 8.16 66.19 14.69 63.63 15.7"/>
          <polygon class="cls-45" points="63.63 15.7 68.63 16.74 72.22 9.37 72.83 9.5 65.78 8.16 63.63 15.7"/>
          <polygon class="cls-39" points="63.63 15.7 66.17 14.3 69.57 14.63 68.78 16.74 63.63 15.7"/>
          <polygon class="cls-39" points="65.78 8.16 64.54 7.99 62.73 15.56 63.63 15.7 65.78 8.16"/>
          <polygon class="cls-39" points="71.06 9.07 72.22 9.37 68.52 16.72 67.61 16.47 71.06 9.07"/>
          <polygon class="cls-37" points="37.1 29.19 34.79 28.81 34.79 31.16 37.1 29.19"/>
          <path class="cls-3" d="m3.11,34.96s7.39,16.88,50.75,17.4c43.36.52,48.31-18.1,48.31-18.1,0,0-7.14,14.97-47.73,15.18-43.55.23-51.33-14.48-51.33-14.48Z"/>
          <polygon class="cls-9" points="66.17 14.3 65.78 8.16 71.06 9.07 68.52 14.53 66.17 14.3"/>
          <path class="cls-9" d="m72.22,38.8c-7.01.46-12.93,20.94-12.96,21.31-.03.37,19.99-2.2,31.37-8.16,11.38-5.96,12.28-27.96,12.28-27.96,0,0-7.1,13.27-30.69,14.81Z"/>
          <polygon class="cls-29" points="72.22 9.37 72.03 12.04 70.55 13.23 70.36 15.62 68.63 16.74 72.22 9.37"/>
          <polygon class="cls-30" points="24.73 19.17 24.73 20.78 27.1 21.34 27.67 25.15 30.34 25.21 31.44 27.86 33.89 28.81 33.89 26.92 24.73 19.17"/>
          <g class="cls-10">
            <rect class="cls-41" x="45.08" y="40.23" width=".23" height="19.85"/>
            <rect class="cls-41" x="27.16" y="37.69" width=".23" height="19.42"/>
            <rect class="cls-41" x="11.11" y="31.59" width=".23" height="18.56" transform="translate(-1.43 .42) rotate(-2.02)"/>
            <rect class="cls-41" x="53.99" y="49.68" width="19.9" height=".23" transform="translate(12.19 112.16) rotate(-88.22)"/>
            <polygon class="cls-41" points="78.82 56.84 78.59 56.84 78.76 37.69 79 37.69 78.82 56.84"/>
            <rect class="cls-41" x="83.92" y="41.2" width="18.33" height=".23" transform="translate(51.05 134.07) rotate(-89.56)"/>
          </g>
          <path class="cls-25" d="m103.99,28.69c0,12.03-23.05,21.79-51.48,21.79S1.03,40.72,1.03,28.69c0-1.83.15-3.42,1.15-4.96,0,0,.22,2.17.22,3.29,0,12.03,22.21,21.61,50.11,21.61s50.4-9.7,50.4-21.73c0-1.12.12-3.47.12-3.47,1,1.53.95,3.44.95,5.26Z"/>
          <path class="cls-55" d="m103.99,27.26c0,8.97-12.19,16.69-29.79,20.24-6.59,1.33-13.94,2.08-21.69,2.08C24.08,49.57,1.03,39.58,1.03,27.26c0-1.87.15-3.5,1.15-5.07,0,0,.22,2.22.22,3.37,0,12.33,22.21,22.14,50.11,22.14.59,0,1.17,0,1.75-.01,27.09-.41,48.65-10.18,48.65-22.24,0-.57.03-1.46.06-2.2.03-.75.06-1.36.06-1.36.51.8.75,1.7.86,2.64.1.9.1,1.83.1,2.74Z"/>
          <g>
            <path class="cls-31" d="m5.39,44.23c-.17-1.76-.25-2.64-.42-4.4,0,0,0-2.17.95-1.11.95,1.06,1.38,3.78,1.38,3.78.15,1.72.23,2.57.38,4.29-.92-.98-1.38-1.49-2.29-2.56Z"/>
            <path class="cls-50" d="m17.34,53.53c-.19-1.71-.29-2.56-.48-4.27,0,0,.14-2.19,1.78-1.48,1.64.71,2.25,3.28,2.25,3.28.17,1.67.25,2.51.41,4.18-1.59-.63-2.39-.98-3.97-1.71Z"/>
            <path class="cls-43" d="m33.47,58.48c-.12-1.68-.19-2.52-.31-4.19,0,0,.33-2.23,2.35-1.88s2.59,2.81,2.59,2.81c.09,1.65.14,2.47.23,4.11-1.95-.29-2.92-.46-4.86-.85Z"/>
            <path class="cls-54" d="m50.72,60.41c-.02-1.85-.03-2.77-.05-4.62,0,0,.6-2.56,3.07-2.56,2.47,0,2.99,2.63,2.99,2.63-.02,1.82-.03,2.73-.05,4.55-2.39.05-3.58.05-5.97,0Z"/>
            <path class="cls-20" d="m67.99,59.33c.09-1.67.14-2.51.23-4.18,0,0,.65-2.4,2.66-2.76,2.01-.35,2.27,1.96,2.27,1.96-.12,1.65-.18,2.48-.31,4.13-1.94.39-2.91.56-4.86.85Z"/>
            <path class="cls-36" d="m85.02,54.75c.15-1.7.22-2.55.37-4.25,0,0,.58-2.53,2.01-3.24,1.44-.71,1.5,1.57,1.5,1.57-.17,1.68-.25,2.52-.42,4.2-1.38.73-2.07,1.07-3.47,1.71Z"/>
            <path class="cls-14" d="m97.31,47c.15-1.74.23-2.61.38-4.36,0,0,.46-2.68,1.39-3.74.94-1.06.9,1.21.9,1.21-.16,1.73-.25,2.6-.41,4.33-.9,1.07-1.35,1.59-2.26,2.56Z"/>
          </g>
          <path class="cls-42" d="m5.39,44.23h2.06l.23,2.56s-1.38-1.5-2.29-2.56Z"/>
          <path class="cls-42" d="m17.34,53.53l3.73-.64.23,2.35s-2.52-.94-3.97-1.71Z"/>
          <path class="cls-42" d="m33.47,58.48l3.32-1.28,1.43.17.11,1.97s-3.19-.59-4.86-.85Z"/>
          <path class="cls-13" d="m50.71,60.41l.91-1.49h4.02l1.05,1.48s-4.42.15-5.98,0Z"/>
          <path class="cls-13" d="m67.99,59.25l.12-2.14h1.46l3.28,1.28s-3.76.85-4.86.85Z"/>
          <polygon class="cls-13" points="85.02 54.75 85.21 52.6 88.49 53.04 85.02 54.75"/>
          <polygon class="cls-13" points="97.31 47 97.52 44.6 99.58 44.44 97.31 47"/>
          <path class="cls-6" d="m103.99,27.26c0,8.97-12.19,16.69-29.79,20.24-9.42.68-17.75.3-19.94.18,27.09-.41,48.65-10.18,48.65-22.24,0-.57.03-1.46.06-2.2.15.18.52.67.92,1.28.1.9.1,1.83.1,2.74Z"/>
          <path class="cls-2" d="m21.84,17.11s2.85-6.19,16.51-8.61c13.66-2.42,22.73,1.76,22.73,1.76,0,0-24.18-2.14-39.24,6.85Z"/>
          <path class="cls-2" d="m33,16.51s4.94-3.97,14.6-4.66c9.66-.69,12.76,2,12.76,2,0,0-9.76-2.27-27.36,2.67Z"/>
          <path class="cls-2" d="m34.21,17.74s4.66-.43,13.96-.58c9.3-.15,16.08-1.36,16.08-1.36,0,0-14.22-3.32-30.04,1.94Z"/>
          <path class="cls-2" d="m37.72,28.41s-.18-3.51,3.21-4.98c3.39-1.47,11.56-2.56,15.75-1.87,0,0-2.76,2.53-4.94,3.14-2.19.61-7.95.29-14.02,3.71Z"/>
          <path class="cls-8" d="m26.06,4.13c22.03-2.06,32.75,20.94,33.21,21.63.46.69-13.91,7.65-2.07,12.68,0,0-7.16,2.72-24.2-.8C15.97,34.11,1.17,26.47,5.62,16.64c3.7-8.16,20.44-12.51,20.44-12.51Z"/>
          <g>
            <path class="cls-11" d="m27.71,60.84c.18-.37-1.78-1.42-2.38-.48-.6.94,1.98,1.29,2.38.48Z"/>
            <path class="cls-7" d="m26.62,60.05c-1.1-.21-.78.95.14,1.16s.94-.56.84-.65-.68-.46-.98-.51Z"/>
            <path class="cls-16" d="m25.27,60.49c.36-.4.93.7,1.14.8.21.1-1.45-.21-1.14-.8Z"/>
          </g>
          <path class="cls-21" d="m60.13,63.7s2.38-1.15,4.12-1.21,5.03.24,5.03.24c0,0-4.38,2.12-9.15.97Z"/>
          <path class="cls-44" d="m69.6,24.31s4.06.75,5.47,1.84c1.41,1.09,1.03,3,.89,4.54-.14,1.54-2.61,2.37-2.61,2.37,0,0,2.06-3.15.42-5.65-1.64-2.5-4.17-3.1-4.17-3.1Z"/>
          <path class="cls-44" d="m74.72,22.98s4.23.12,5.52,2.45c1.29,2.32-1.45,5.04-1.45,5.04,0,0,1.58-4.62-4.07-7.48Z"/>
          <path class="cls-44" d="m81.33,23.43s1.8,1,2.4,2.13c.6,1.12-1.5,3.25-1.5,3.25,0,0,1.39-2.72-.91-5.38Z"/>
          <path class="cls-55" d="m84.43,19.5s2.29,1.46,2.53,3.49c0,0-1.06-2.84-2.53-3.49Z"/>
          <path class="cls-2" d="m82.58,34.26s10.32-3.3,12.26-7.34c1.94-4.04,2.03-4.74,2.03-4.74,0,0-5.94,8.98-14.28,12.08Z"/>
          <path class="cls-24" d="m103.38,22.51s2.55,4.53-.34,10.37c0,0,1.73-5.17.34-10.37Z"/>
          <path class="cls-24" d="m103.42,34.89s4.95,5.94,0,13.09c0,0,2.99-6.31,0-13.09Z"/>
          <path class="cls-22" d="m20.8,43.09s3.5-.02,3.7-.17c.2-.15.13-.4.1-1.59-.04-1.19,3.11,2.04,3.44,1.83.34-.21.45-.35.72-.39s2.2-.88,2.35-1.73c.15-.85.85-2.19.85-2.19l.25-1.16s-.39-.14-.44.09c-.05.23-.1.21-.15,1.04-.05.84-1.24,2.82-1.38,3.07-.14.24-2.04.65-2.29.78-.25.13-3.07-1.78-3.22-1.78-.15,0-.28.9-.33,1.2-.05.3-.35.44-.58.59-.2.13-1.94.31-3.02-.08-.22-.08-.68-.07-.68-.07,0,0,.18,1.14.17,1.41-.01.27.5-.85.5-.85Z"/>
          <path class="cls-11" d="m32.22,37.69s-.47,1.59-.56,1.81c-.09.21-.51.75-.51.75,0,0,.27-.63.26-1.23,0-.6-.07-1.44.22-1.4.28.04.59.08.59.08Z"/>
          <path class="cls-11" d="m24.42,42.08s.15-1.29.24-1.24c.09.04.49.26.49.26,0,0-.42,0-.5.18-.07.18-.23.8-.23.8Z"/>
          <path class="cls-11" d="m26.8,42.11s.81.88,1.17.96c.36.08,1.28-.78,1.28-.78,0,0-1.04.08-1.31.22-.26.13-1.14-.4-1.14-.4Z"/>
          <path class="cls-4" d="m49.9,40.64s.12,5.97,0,6.5c-.12.53,8.4.41,8.4.41l.28-5.48s.34,2.97.4,3.45c.06.48,5.09,0,5.09,0l-.45-5.29-13.73.41Z"/>
          <path class="cls-4" d="m74.22,40.87c-.07.28.37,3.38.5,3.76.13.38,2.08-1.61,2.54-2.57.46-.96.39-2.96.39-2.96,0,0-3.15.68-3.44,1.77Z"/>
          <path class="cls-4" d="m5.93,33.8c-.42-.48.25-4.83.39-4.82.14.02,3.33,1.93,3.55,2.61.22.68.61,6.09.61,6.09,0,0-4.28-3.59-4.54-3.89Z"/>
          <path class="cls-4" d="m12.11,32.71s.43,4.78.52,5.3c.09.52,1.96,1.42,1.96,1.42,0,0-.49-4.45-.75-5.18-.26-.73-1.72-1.55-1.72-1.55Z"/>
          <path class="cls-4" d="m13.35,51.33s-.59-3.53-.31-5.38c.29-1.85,3.04,1.72,3.34,3.06.3,1.34.47,4.24.47,4.24,0,0-3.23-1.74-3.51-1.92Z"/>
          <path class="cls-4" d="m39.36,59.33s.14-6.17.42-6.98c.28-.8,4.77.19,4.94.53.17.34,0,7.09,0,7.09,0,0-4.32-.25-5.36-.65Z"/>
          <path class="cls-4" d="m29.31,57.64s-.18-5.67,0-6.54c.18-.86,3.21.27,3.69.33.49.06.16,6.83.16,6.83,0,0-3.11-.43-3.86-.62Z"/>
          <path class="cls-5" d="m21.31,55.24s5.23,2.56,12.17,3.24c0,0-7.9-1.62-12.17-3.24Z"/>
          <path class="cls-5" d="m7.68,46.79s4.13,4.49,9.66,6.74c0,0-8.42-5.3-9.66-6.74Z"/>
          <path class="cls-5" d="m56.69,60.41s7.9-.67,11.3-1.16c0,0-5.61,1.35-11.3,1.16Z"/>
          <path class="cls-5" d="m72.85,58.39s9.1-2.13,12.17-3.64c0,0-6.05,3.33-12.17,3.64Z"/>
          <path class="cls-5" d="m88.49,53.04s6.02-3.92,8.82-6.04c0,0-4.58,5.08-8.82,6.04Z"/>
          <path class="cls-9" d="m27.73,62.8s2.42-.58,5.27-.31c2.86.27,12.93,1.97,25.29,1.56,12.36-.41,15.36-.46,15.36-.46,0,0-7.89,1.8-21.86,1.64-13.97-.15-24.07-2.43-24.07-2.43Z"/>
          <path class="cls-6" d="m81.78,61.6s2.48-2.16,4.75-3.21c2.27-1.04,8.72-3.72,12.11-6.61s5.45-5.17,5.87-7.89c.42-2.73.23-4.04.23-4.04,0,0,1.09,3.36-.32,6.43-1.42,3.07-4.16,6.29-9.37,9.63-5.21,3.33-13.28,5.69-13.28,5.69Z"/>
          <path class="cls-1" d="m1.03,45.51s2.38,6.01,7.1,9.01c4.72,3,9.99,5.63,17.78,7.82,0,0-4.17-2.3-7.2-3.87-3.03-1.57-14.52-5.68-17.69-12.97Z"/>
          <path class="cls-18" d="m52.21,47.7s.18-2.35,1.49-2.61c1.31-.26,1.53,2.55,1.53,2.55,0,0-1.85.08-3.02.06Z"/>
          <path class="cls-32" d="m69.94,46.33s.55-2.37,1.42-2.76c.86-.39,1.01,2.33,1.01,2.33,0,0-2.13.38-2.42.42Z"/>
          <path class="cls-35" d="m85.02,42.24s.71-1.58,1.22-2.19.72,1.39.72,1.39c0,0-1.25.72-1.94.8Z"/>
          <path class="cls-47" d="m98.18,34.89s.62-2.36.93-2.74c.32-.39.29,1.37.29,1.37,0,0-.91,1.09-1.22,1.37Z"/>
          <path class="cls-33" d="m36.37,46.52s-.55-2.37-1.42-2.76c-.86-.39-1.01,2.33-1.01,2.33,0,0,2.13.38,2.42.42Z"/>
          <path class="cls-48" d="m18.48,41.79s-.71-1.58-1.22-2.19c-.51-.61-.72,1.39-.72,1.39,0,0,1.25.72,1.94.8Z"/>
          <path class="cls-15" d="m6.41,34.4s-.62-2.36-.93-2.74c-.32-.39-.29,1.37-.29,1.37,0,0,.91,1.09,1.22,1.37Z"/>
          <path class="cls-21" d="m71.69,39.03s3.48-1.47,4.57-1.75c1.09-.28,5.28-.56,5.28-.56,0,0-1.69,1.08-3.41,1.65-1.72.58-6.44.66-6.44.66Z"/>
          <path class="cls-21" d="m95.6,30.69s.95-1.99,1.71-2.23c.76-.24,2.09-.77,2.09-.77,0,0-2.48,3.11-3.8,3Z"/>
          <path class="cls-2" d="m60.36,1.21s6.96,1.96,11.86,3.03,14.12,4.12,14.12,4.12c0,0-2.64-3.61-10.64-5.01s-15.34-2.13-15.34-2.13Z"/>
          <path class="cls-2" d="m44.45,4.25s4.58,1.55,10.31,1.83c5.73.27,15.56.94,21.36,2.97,0,0-.2-2.98-9.02-4.23-8.81-1.25-22.66-.57-22.66-.57Z"/>
          <path class="cls-2" d="m78.15,15.7s.95,3.36,1.14,3.47c.18.11,3.58,2.28,4.66,4.26,1.08,1.98,1.94-1.85,1.75-2.44-.19-.6-3.95-4.36-7.54-5.29Z"/>
          <path class="cls-2" d="m78.39,14.01v-2.67s3.45.98,4.04,1.47.69,3.43.69,3.43c0,0-3.45-1.76-4.73-2.24Z"/>
          <path class="cls-21" d="m40.49,39.85s2.06-.04,3.18,0c1.12.04,2.46.39,2.46.39,0,0-1.88.36-2.82.29-.94-.07-2.82-.68-2.82-.68Z"/>
          <path class="cls-21" d="m47.52,49.47s.97-.35,2.08-.44c1.11-.09,3.39.55,3.39.55,0,0-1.95.84-3.68.57-1.73-.27-1.79-.68-1.79-.68Z"/>
          <path class="cls-11" d="m29.07,61.5s-.31.43.17.57c.48.15,1.3-.29,1.3-.29,0,0-1.02-.18-1.48-.29Z"/>
        </g>
      </g>
    </g>
  </g>
</svg>