<?xml version="1.0" encoding="UTF-8"?>
<svg xmlns="http://www.w3.org/2000/svg" xmlns:xlink="http://www.w3.org/1999/xlink" viewBox="0 0 68.88 62.94">
  <defs>
    <style>
      .cls-1 {
        fill: #e26f3f;
      }

      .cls-2 {
        fill: url(#Gradient_30-3);
      }

      .cls-3 {
        fill: #de6d74;
      }

      .cls-4, .cls-5, .cls-6, .cls-7, .cls-8, .cls-9, .cls-10, .cls-11, .cls-12, .cls-13 {
        mix-blend-mode: multiply;
      }

      .cls-4, .cls-5, .cls-9 {
        fill: #bc577b;
      }

      .cls-4, .cls-8 {
        opacity: .6;
      }

      .cls-14 {
        fill: #ffb292;
      }

      .cls-15 {
        fill: #bc4b3d;
      }

      .cls-16 {
        fill: url(#Gradient_6-10);
      }

      .cls-17 {
        fill: #f6b190;
      }

      .cls-18 {
        fill: #9a2c1e;
      }

      .cls-19 {
        fill: #ba4b31;
      }

      .cls-20 {
        fill: url(#Gradient_6-14);
      }

      .cls-21 {
        fill: #ffa088;
      }

      .cls-5, .cls-22, .cls-10 {
        opacity: .5;
      }

      .cls-6 {
        fill: #f4cec9;
      }

      .cls-6, .cls-7, .cls-23, .cls-11 {
        opacity: .3;
      }

      .cls-24 {
        fill: #c7583b;
      }

      .cls-25 {
        fill: url(#Gradient_6-11);
      }

      .cls-26 {
        fill: #a25158;
      }

      .cls-27 {
        fill: #e97f65;
      }

      .cls-7 {
        fill: #ffc1bd;
      }

      .cls-28 {
        fill: url(#Gradient_2-2);
      }

      .cls-29 {
        fill: #ffb7a1;
      }

      .cls-30 {
        fill: url(#Gradient_6-4);
      }

      .cls-8 {
        fill: #dc587c;
      }

      .cls-31 {
        fill: url(#Gradient_6-13);
      }

      .cls-32 {
        fill: url(#Gradient_6-5);
      }

      .cls-33 {
        fill: #d56333;
      }

      .cls-23, .cls-22 {
        fill: #ffe39c;
        mix-blend-mode: soft-light;
      }

      .cls-34 {
        fill: url(#Gradient_33);
      }

      .cls-35 {
        fill: #ffa094;
      }

      .cls-36 {
        fill: #b94556;
      }

      .cls-37 {
        fill: url(#Gradient_2);
      }

      .cls-38 {
        fill: #8d2316;
      }

      .cls-39 {
        fill: #ffe7e6;
      }

      .cls-40 {
        fill: url(#Gradient_6-8);
      }

      .cls-41 {
        fill: none;
        isolation: isolate;
      }

      .cls-9 {
        opacity: .8;
      }

      .cls-10 {
        fill: #b8a69b;
      }

      .cls-42 {
        fill: url(#Gradient_6-18);
      }

      .cls-43 {
        fill: url(#Gradient_6-17);
      }

      .cls-44 {
        fill: url(#Gradient_6);
      }

      .cls-45 {
        fill: url(#Gradient_6-7);
      }

      .cls-46 {
        fill: url(#Gradient_6-12);
      }

      .cls-47 {
        fill: #f99167;
      }

      .cls-11 {
        fill: #de8797;
      }

      .cls-48 {
        fill: url(#Gradient_19);
      }

      .cls-49 {
        fill: url(#Gradient_6-3);
      }

      .cls-50 {
        fill: url(#Gradient_6-9);
      }

      .cls-51 {
        fill: url(#Gradient_33-2);
      }

      .cls-52 {
        fill: url(#Gradient_6-2);
      }

      .cls-53 {
        fill: url(#Gradient_6-6);
      }

      .cls-12 {
        opacity: .2;
      }

      .cls-12, .cls-13 {
        fill: #bf6a8a;
      }

      .cls-54 {
        fill: url(#Gradient_6-15);
      }

      .cls-55 {
        fill: url(#Gradient_30-2);
      }

      .cls-56 {
        fill: url(#Gradient_6-19);
      }

      .cls-57 {
        fill: url(#Gradient_30);
      }

      .cls-58 {
        fill: #ffa182;
      }

      .cls-59 {
        fill: url(#Gradient_5);
      }

      .cls-60 {
        fill: #fbb092;
      }

      .cls-61 {
        fill: url(#Gradient_6-16);
      }

      .cls-62 {
        fill: #fffefe;
      }

      .cls-13 {
        opacity: .4;
      }

      .cls-63 {
        fill: #ffaf99;
      }
    </style>
    <linearGradient id="Gradient_2" data-name="Gradient 2" x1=".25" y1="55.85" x2="40.59" y2="55.85" gradientTransform="translate(1.71 -3.42) rotate(2.34)" gradientUnits="userSpaceOnUse">
      <stop offset="0" stop-color="#ffe9b6"/>
      <stop offset="1" stop-color="#ffc497"/>
    </linearGradient>
    <linearGradient id="Gradient_19" data-name="Gradient 19" x1="22.42" y1="60.27" x2="22.42" y2="19.52" gradientTransform="translate(1.71 -3.42) rotate(2.34)" gradientUnits="userSpaceOnUse">
      <stop offset="0" stop-color="#ffeac3"/>
      <stop offset="1" stop-color="#ffc497"/>
    </linearGradient>
    <linearGradient id="Gradient_5" data-name="Gradient 5" x1="40.53" y1="40.59" x2="65.93" y2="40.59" gradientTransform="translate(1.71 -3.42) rotate(2.34)" gradientUnits="userSpaceOnUse">
      <stop offset="0" stop-color="#cf5d5a"/>
      <stop offset="1" stop-color="#ff9577"/>
    </linearGradient>
    <linearGradient id="Gradient_30" data-name="Gradient 30" x1="2.26" y1="21.59" x2="41.27" y2="21.59" gradientTransform="translate(1.71 -3.42) rotate(2.34)" gradientUnits="userSpaceOnUse">
      <stop offset="0" stop-color="#fd9077"/>
      <stop offset="1" stop-color="#f37449"/>
    </linearGradient>
    <linearGradient id="Gradient_33" data-name="Gradient 33" x1="40.25" y1="22.32" x2="67.2" y2="22.32" gradientTransform="translate(1.71 -3.42) rotate(2.34)" gradientUnits="userSpaceOnUse">
      <stop offset="0" stop-color="#b44c78"/>
      <stop offset="1" stop-color="#f37449"/>
    </linearGradient>
    <linearGradient id="Gradient_33-2" data-name="Gradient 33" x1="11.19" y1="10.8" x2="60.43" y2="10.8" xlink:href="#Gradient_33"/>
    <linearGradient id="Gradient_30-2" data-name="Gradient 30" x1="26.91" y1="9.85" x2="60.43" y2="9.85" xlink:href="#Gradient_30"/>
    <linearGradient id="Gradient_6" data-name="Gradient 6" x1="7.4" y1="47.4" x2="7.4" y2="39.46" gradientTransform="translate(1.71 -3.42) rotate(2.34)" gradientUnits="userSpaceOnUse">
      <stop offset="0" stop-color="#f87255"/>
      <stop offset="1" stop-color="#b44c58"/>
    </linearGradient>
    <linearGradient id="Gradient_6-2" data-name="Gradient 6" x1="12.54" y1="49.35" x2="12.54" y2="44.98" xlink:href="#Gradient_6"/>
    <linearGradient id="Gradient_6-3" data-name="Gradient 6" x1="16.13" y1="50.67" x2="16.13" y2="46.29" xlink:href="#Gradient_6"/>
    <linearGradient id="Gradient_6-4" data-name="Gradient 6" x1="21.67" y1="53.23" x2="21.67" y2="45.22" xlink:href="#Gradient_6"/>
    <linearGradient id="Gradient_6-5" data-name="Gradient 6" x1="28.89" y1="56.19" x2="28.89" y2="48.14" xlink:href="#Gradient_6"/>
    <linearGradient id="Gradient_6-6" data-name="Gradient 6" x1="36.17" y1="59.17" x2="36.17" y2="51.08" xlink:href="#Gradient_6"/>
    <linearGradient id="Gradient_6-7" data-name="Gradient 6" x1="-278.14" y1="65.57" x2="-278.14" y2="57.28" gradientTransform="translate(-143.99 -6.41) rotate(176.67) scale(.75 -1) skewX(7.49)" xlink:href="#Gradient_6"/>
    <linearGradient id="Gradient_6-8" data-name="Gradient 6" x1="-270.05" y1="68.61" x2="-270.05" y2="60.36" gradientTransform="translate(-143.99 -6.41) rotate(176.67) scale(.75 -1) skewX(7.49)" xlink:href="#Gradient_6"/>
    <linearGradient id="Gradient_6-9" data-name="Gradient 6" x1="-261.75" y1="71.68" x2="-261.75" y2="63.48" gradientTransform="translate(-143.99 -6.41) rotate(176.67) scale(.75 -1) skewX(7.49)" xlink:href="#Gradient_6"/>
    <linearGradient id="Gradient_6-10" data-name="Gradient 6" x1="-253.51" y1="74.72" x2="-253.51" y2="66.56" gradientTransform="translate(-143.99 -6.41) rotate(176.67) scale(.75 -1) skewX(7.49)" xlink:href="#Gradient_6"/>
    <linearGradient id="Gradient_6-11" data-name="Gradient 6" x1="8.09" y1="31.16" x2="8.09" y2="25.75" xlink:href="#Gradient_6"/>
    <linearGradient id="Gradient_6-12" data-name="Gradient 6" x1="-152.1" y1="48.36" x2="-152.1" y2="42.74" gradientTransform="translate(-84.68 -7.5) rotate(178.71) scale(.89 -1) skewX(5.54)" xlink:href="#Gradient_6"/>
    <linearGradient id="Gradient_6-13" data-name="Gradient 6" x1="-156.67" y1="46.76" x2="-156.67" y2="41.12" gradientTransform="translate(-84.68 -7.5) rotate(178.71) scale(.89 -1) skewX(5.54)" xlink:href="#Gradient_6"/>
    <linearGradient id="Gradient_6-14" data-name="Gradient 6" x1="-161.26" y1="45.15" x2="-161.26" y2="39.49" gradientTransform="translate(-84.68 -7.5) rotate(178.71) scale(.89 -1) skewX(5.54)" xlink:href="#Gradient_6"/>
    <linearGradient id="Gradient_6-15" data-name="Gradient 6" x1="-165.88" y1="43.53" x2="-165.88" y2="37.85" gradientTransform="translate(-84.68 -7.5) rotate(178.71) scale(.89 -1) skewX(5.54)" xlink:href="#Gradient_6"/>
    <linearGradient id="Gradient_6-16" data-name="Gradient 6" x1="14.81" y1="33.63" x2="14.81" y2="28.2" xlink:href="#Gradient_6"/>
    <linearGradient id="Gradient_6-17" data-name="Gradient 6" x1="21.59" y1="36.12" x2="21.59" y2="30.67" xlink:href="#Gradient_6"/>
    <linearGradient id="Gradient_6-18" data-name="Gradient 6" x1="28.43" y1="38.64" x2="28.43" y2="33.16" xlink:href="#Gradient_6"/>
    <linearGradient id="Gradient_6-19" data-name="Gradient 6" x1="35.32" y1="41.18" x2="35.32" y2="35.67" xlink:href="#Gradient_6"/>
    <linearGradient id="Gradient_2-2" data-name="Gradient 2" x1="43.61" y1="28.95" x2="43.61" y2="28.26" gradientTransform="translate(3.43 -27.91) rotate(27.82) scale(1.12 1.51) skewX(26.96)" xlink:href="#Gradient_2"/>
    <linearGradient id="Gradient_30-3" data-name="Gradient 30" x1="3.44" y1="37.38" x2="40.75" y2="37.38" xlink:href="#Gradient_30"/>
  </defs>
  <g class="cls-41">
    <g id="Warstwa_2" data-name="Warstwa 2">
      <g id="objects">
        <g>
          <polygon class="cls-62" points=".05 43.51 23.55 28.43 68.88 45.36 39.68 61.52 .05 43.51"/>
          <polygon class="cls-37" points=".05 43.51 0 44.61 39.61 62.94 39.68 61.52 .05 43.51"/>
          <polygon class="cls-26" points="68.88 45.36 68.83 46.49 39.61 62.94 39.68 61.52 68.88 45.36"/>
          <polygon class="cls-48" points="3.8 42.5 4.85 16.24 41.26 30.8 39.75 58.46 3.8 42.5"/>
          <polygon class="cls-59" points="41.26 30.8 66.74 20.18 65.09 44.98 39.75 58.46 41.26 30.8"/>
          <polygon class="cls-57" points="3.15 16.68 12.49 6.9 41.15 17.51 41.59 31.56 3.15 16.68"/>
          <polygon class="cls-34" points="41.15 17.51 61.63 10.37 68.02 19.74 41.59 31.56 41.15 17.51"/>
          <polygon class="cls-51" points="12.49 6.9 28.5 0 61.63 10.37 41.15 17.51 12.49 6.9"/>
          <polygon class="cls-55" points="28.5 0 29.11 10.39 46.07 15.79 61.63 10.37 28.5 0"/>
          <polygon class="cls-26" points="25.95 11.81 29.11 10.39 46.34 15.7 41.15 17.51 25.95 11.81"/>
          <polygon class="cls-44" points="5.52 42.83 5.79 36.25 9.15 37.79 8.88 44.32 5.52 42.83"/>
          <polygon class="cls-39" points="5.52 42.83 9.05 40.25 8.88 44.32 5.52 42.83"/>
          <polygon class="cls-4" points="5.79 36.25 7.95 40.72 9 41.33 9.15 37.79 5.79 36.25"/>
          <g>
            <polygon class="cls-27" points="5.19 33.59 5.09 35.97 9.45 37.94 9.55 35.5 5.19 33.59"/>
            <polygon class="cls-15" points="9.55 35.5 9.98 35.26 9.87 37.72 9.45 37.94 9.55 35.5"/>
            <polygon class="cls-47" points="5.19 33.59 5.57 33.44 9.98 35.26 9.55 35.5 5.19 33.59"/>
          </g>
          <path class="cls-15" d="m4.62,32.05s1.47-2.24,3.93-1.3c2.28.87,3.33,5.64,3.33,5.64l.09-2.23s-1.21-4.1-3.54-4.58c-2.33-.48-3.78,1.82-3.78,1.82l-.04.65Z"/>
          <g>
            <path class="cls-27" d="m4.19,32.37s1.49-2.56,3.95-1.62c2.28.87,3.32,5.9,3.32,5.9l.1-2.48s-1.21-4.1-3.54-4.58c-2.33-.48-3.77,1.82-3.77,1.82l-.06.97Z"/>
            <path class="cls-15" d="m4.19,32.37l.43-.13s.92-1.61,2.45-1.7c0,0-1.44-.31-2.88,1.83Z"/>
            <polygon class="cls-15" points="11.46 36.64 11.89 36.4 11.98 34.17 11.56 34.16 11.46 36.64"/>
            <path class="cls-47" d="m6.77,29.57s1.19-.37,2.31.24c2.02,1.1,2.91,4.35,2.91,4.35l-.42.06s-.95-2.97-2.55-4.21c-.9-.7-2.24-.45-2.24-.45Z"/>
          </g>
          <g>
            <polygon class="cls-52" points="11.31 45.63 11.46 42 13.32 42.85 13.16 46.45 11.31 45.63"/>
            <polygon class="cls-39" points="11.31 45.63 13.26 44.21 13.16 46.45 11.31 45.63"/>
            <polygon class="cls-4" points="11.46 42 12.65 44.47 13.23 44.8 13.32 42.85 11.46 42"/>
            <g>
              <polygon class="cls-27" points="11.13 40.53 11.07 41.85 13.48 42.94 13.54 41.6 11.13 40.53"/>
              <polygon class="cls-15" points="13.54 41.6 13.77 41.46 13.71 42.82 13.48 42.94 13.54 41.6"/>
              <polygon class="cls-47" points="11.13 40.53 11.34 40.45 13.77 41.46 13.54 41.6 11.13 40.53"/>
            </g>
          </g>
          <g>
            <polygon class="cls-49" points="14.84 47.09 14.99 43.46 16.85 44.31 16.7 47.91 14.84 47.09"/>
            <polygon class="cls-39" points="14.84 47.09 16.8 45.67 16.7 47.91 14.84 47.09"/>
            <polygon class="cls-4" points="14.99 43.46 16.19 45.93 16.77 46.27 16.85 44.31 14.99 43.46"/>
            <g>
              <polygon class="cls-27" points="14.66 41.98 14.6 43.3 17.02 44.4 17.08 43.05 14.66 41.98"/>
              <polygon class="cls-15" points="17.08 43.05 17.31 42.92 17.25 44.28 17.02 44.4 17.08 43.05"/>
              <polygon class="cls-47" points="14.66 41.98 14.87 41.91 17.31 42.92 17.08 43.05 14.66 41.98"/>
            </g>
          </g>
          <g>
            <path class="cls-15" d="m11.46,36.64l.43-.24s.61-2.63,2.16-2.72c0,0-2.04-.05-2.59,2.97Z"/>
            <path class="cls-27" d="m11.44,36.56s1.21-3.62,3.69-2.68c2.3.88,3.35,5.93,3.35,5.93l.11-2.49s-1.22-4.12-3.57-4.61c-2.35-.49-3.81,1.82-3.81,1.82l.24,2.03Z"/>
            <polygon class="cls-15" points="18.47 39.81 18.91 39.57 19 37.33 18.58 37.32 18.47 39.81"/>
            <path class="cls-47" d="m13.74,32.7s1.2-.37,2.33.25c2.04,1.11,2.93,4.38,2.93,4.38l-.43.06s-.96-2.98-2.57-4.23c-.91-.71-2.26-.46-2.26-.46Z"/>
          </g>
          <g>
            <polygon class="cls-30" points="19.49 49.22 19.78 42.59 23.2 44.15 22.91 50.73 19.49 49.22"/>
            <polygon class="cls-39" points="19.49 49.22 23.09 46.63 22.91 50.73 19.49 49.22"/>
            <polygon class="cls-4" points="19.78 42.59 21.98 47.11 23.04 47.72 23.2 44.15 19.78 42.59"/>
            <g>
              <polygon class="cls-27" points="19.17 39.9 19.07 42.3 23.5 44.31 23.61 41.85 19.17 39.9"/>
              <polygon class="cls-15" points="23.61 41.85 24.04 41.6 23.93 44.09 23.5 44.31 23.61 41.85"/>
              <polygon class="cls-47" points="19.17 39.9 19.56 39.76 24.04 41.6 23.61 41.85 19.17 39.9"/>
            </g>
          </g>
          <g>
            <path class="cls-15" d="m18.47,39.81l.44-.24s.62-2.64,2.18-2.73c0,0-1.79-.04-2.62,2.97Z"/>
            <path class="cls-27" d="m18.47,39.81s1.2-3.72,3.7-2.76c2.32.89,3.37,5.96,3.37,5.96l.11-2.5s-1.23-4.14-3.6-4.63c-2.37-.49-3.84,1.82-3.84,1.82l.26,2.12Z"/>
            <polygon class="cls-15" points="25.55 43.01 25.99 42.76 26.08 40.51 25.66 40.5 25.55 43.01"/>
            <path class="cls-47" d="m20.78,35.86s1.21-.37,2.35.25c2.05,1.12,2.95,4.4,2.95,4.4l-.43.06s-.96-2.99-2.59-4.25c-.92-.71-2.28-.46-2.28-.46Z"/>
          </g>
          <polygon class="cls-32" points="26.57 52.46 26.87 45.8 30.31 47.38 30.02 53.98 26.57 52.46"/>
          <polygon class="cls-39" points="26.57 52.46 30.2 49.87 30.02 53.98 26.57 52.46"/>
          <polygon class="cls-4" points="26.87 45.8 29.08 50.34 30.15 50.96 30.31 47.38 26.87 45.8"/>
          <g>
            <polygon class="cls-27" points="26.25 43.1 26.14 45.51 30.62 47.53 30.73 45.07 26.25 43.1"/>
            <polygon class="cls-15" points="30.73 45.07 31.17 44.82 31.05 47.31 30.62 47.53 30.73 45.07"/>
            <polygon class="cls-47" points="26.25 43.1 26.64 42.96 31.17 44.82 30.73 45.07 26.25 43.1"/>
          </g>
          <g>
            <path class="cls-15" d="m25.55,42.92l.44-.16s.63-2.65,2.2-2.74c0,0-2.35.19-2.64,2.9Z"/>
            <path class="cls-27" d="m25.55,42.92s1.21-3.65,3.73-2.68c2.34.9,3.4,5.99,3.4,5.99l.11-2.51s-1.23-4.16-3.63-4.66c-2.39-.5-3.88,1.82-3.88,1.82l.26,2.05Z"/>
            <polygon class="cls-15" points="32.68 46.23 33.13 45.99 33.23 43.73 32.8 43.72 32.68 46.23"/>
            <path class="cls-47" d="m27.88,39.05s1.22-.37,2.37.26c2.07,1.13,2.98,4.43,2.98,4.43l-.44.06s-.97-3.01-2.61-4.27c-.93-.72-2.3-.47-2.3-.47Z"/>
          </g>
          <polygon class="cls-53" points="33.71 55.72 34.01 49.03 37.49 50.63 37.19 57.26 33.71 55.72"/>
          <polygon class="cls-39" points="33.71 55.72 37.38 53.13 37.19 57.26 33.71 55.72"/>
          <polygon class="cls-4" points="34.01 49.03 36.24 53.6 37.33 54.22 37.49 50.63 34.01 49.03"/>
          <g>
            <polygon class="cls-27" points="33.39 46.33 33.29 48.75 37.8 50.78 37.91 48.31 33.39 46.33"/>
            <polygon class="cls-15" points="37.91 48.31 38.35 48.06 38.24 50.57 37.8 50.78 37.91 48.31"/>
            <polygon class="cls-47" points="33.39 46.33 33.79 46.18 38.35 48.06 37.91 48.31 33.39 46.33"/>
          </g>
          <g>
            <path class="cls-15" d="m32.68,46.23l.44-.24s.63-2.66,2.22-2.74c0,0-1.82-.05-2.67,2.99Z"/>
            <path class="cls-27" d="m32.7,45.98s1.22-3.49,3.76-2.51c2.36.91,3.43,6.02,3.43,6.02l.12-2.52s-1.24-4.18-3.66-4.69c-2.41-.51-3.92,1.82-3.92,1.82l.27,1.89Z"/>
            <polygon class="cls-15" points="39.88 49.48 40.33 49.24 40.43 46.97 40 46.96 39.88 49.48"/>
            <path class="cls-47" d="m35.04,42.26s1.23-.36,2.39.26c2.09,1.14,3,4.45,3,4.45l-.44.06s-.98-3.02-2.63-4.3c-.93-.72-2.32-.48-2.32-.48Z"/>
          </g>
          <polygon class="cls-45" points="63.74 45.41 64.08 38.58 60.96 40.29 60.63 47.04 63.74 45.41"/>
          <polygon class="cls-35" points="63.74 45.41 60.74 44.82 60.63 47.04 63.74 45.41"/>
          <polygon class="cls-4" points="64.08 38.58 61.76 43.29 60.78 43.95 60.96 40.29 64.08 38.58"/>
          <g>
            <polygon class="cls-24" points="64.85 35.78 64.73 38.26 60.68 40.46 60.8 37.94 64.85 35.78"/>
            <polygon class="cls-18" points="60.8 37.94 60.45 37.7 60.32 40.25 60.68 40.46 60.8 37.94"/>
            <polygon class="cls-1" points="64.85 35.78 64.52 35.65 60.45 37.7 60.8 37.94 64.85 35.78"/>
          </g>
          <g>
            <path class="cls-18" d="m65.68,35.94l-.36-.22s-.32-2.45-1.69-2.49c0,0,1.81-.12,2.05,2.7Z"/>
            <path class="cls-24" d="m65.7,35.86s-.77-3.37-3.04-2.39c-2.09.9-3.42,5.65-3.42,5.65l.11-2.32s1.4-3.89,3.51-4.43c2.11-.54,3.22,1.57,3.22,1.57l-.38,1.92Z"/>
            <polygon class="cls-18" points="59.24 39.12 58.88 38.9 58.98 36.82 59.36 36.8 59.24 39.12"/>
            <path class="cls-1" d="m63.98,32.31s-1.03-.3-2.07.32c-1.88,1.11-2.93,4.19-2.93,4.19l.37.04s1.08-2.81,2.6-4.04c.86-.69,2.03-.51,2.03-.51Z"/>
          </g>
          <g>
            <polygon class="cls-40" points="57.54 48.82 57.86 42.01 54.77 43.71 54.45 50.43 57.54 48.82"/>
            <polygon class="cls-35" points="57.54 48.82 54.57 47.91 54.45 50.43 57.54 48.82"/>
            <polygon class="cls-4" points="57.86 42.01 55.57 46.7 54.6 47.36 54.77 43.71 57.86 42.01"/>
            <g>
              <polygon class="cls-24" points="58.63 39.24 58.51 41.7 54.5 43.88 54.62 41.37 58.63 39.24"/>
              <polygon class="cls-18" points="54.62 41.37 54.26 41.14 54.14 43.67 54.5 43.88 54.62 41.37"/>
              <polygon class="cls-1" points="58.63 39.24 58.3 39.1 54.26 41.14 54.62 41.37 58.63 39.24"/>
            </g>
          </g>
          <g>
            <path class="cls-18" d="m59.24,39.12l-.36-.24s-.31-2.69-1.66-2.73c0,0,1.56-.11,2.02,2.96Z"/>
            <path class="cls-24" d="m59.24,39.12s-.73-3.78-2.98-2.7c-2.08.99-3.42,6.2-3.42,6.2l.12-2.55s1.41-4.27,3.5-4.86c2.1-.6,3.18,1.72,3.18,1.72l-.41,2.19Z"/>
            <polygon class="cls-18" points="52.85 42.61 52.49 42.38 52.6 40.09 52.97 40.06 52.85 42.61"/>
            <path class="cls-1" d="m57.57,35.15s-1.02-.33-2.05.35c-1.87,1.22-2.92,4.6-2.92,4.6l.36.05s1.08-3.09,2.59-4.43c.86-.76,2.02-.56,2.02-.56Z"/>
          </g>
          <polygon class="cls-50" points="51.16 52.26 51.48 45.49 48.42 47.18 48.1 53.86 51.16 52.26"/>
          <polygon class="cls-35" points="51.16 52.26 48.2 51.78 48.1 53.86 51.16 52.26"/>
          <polygon class="cls-4" points="51.48 45.49 49.21 50.15 48.25 50.8 48.42 47.18 51.48 45.49"/>
          <g>
            <polygon class="cls-24" points="52.24 42.73 52.12 45.18 48.14 47.34 48.26 44.85 52.24 42.73"/>
            <polygon class="cls-18" points="48.26 44.85 47.91 44.61 47.79 47.13 48.14 47.34 48.26 44.85"/>
            <polygon class="cls-1" points="52.24 42.73 51.91 42.59 47.91 44.61 48.26 44.85 52.24 42.73"/>
          </g>
          <g>
            <polygon class="cls-24" points="45.9 46.26 45.79 48.7 41.84 50.85 41.96 48.36 45.9 46.26"/>
            <polygon class="cls-18" points="41.96 48.36 41.61 48.13 41.49 50.64 41.84 50.85 41.96 48.36"/>
            <polygon class="cls-1" points="45.9 46.26 45.58 46.13 41.61 48.13 41.96 48.36 45.9 46.26"/>
          </g>
          <g>
            <path class="cls-18" d="m52.85,42.53l-.36-.15s-.31-2.68-1.65-2.72c0,0,1.99.12,2.01,2.87Z"/>
            <path class="cls-24" d="m52.85,42.53s-.73-3.68-2.96-2.61c-2.06.98-3.39,6.16-3.39,6.16l.12-2.54s1.39-4.24,3.47-4.83c2.08-.59,3.16,1.72,3.16,1.72l-.4,2.1Z"/>
            <polygon class="cls-18" points="46.51 46.08 46.16 45.84 46.26 43.56 46.63 43.54 46.51 46.08"/>
            <path class="cls-1" d="m51.19,38.66s-1.01-.33-2.04.34c-1.85,1.21-2.89,4.57-2.89,4.57l.36.05s1.07-3.07,2.57-4.4c.85-.76,2-.55,2-.55Z"/>
          </g>
          <polygon class="cls-16" points="44.84 55.67 45.15 48.94 42.12 50.61 41.81 57.26 44.84 55.67"/>
          <polygon class="cls-35" points="44.33 55.94 41.7 54.97 41.59 57.38 44.33 55.94"/>
          <polygon class="cls-4" points="45.15 48.94 42.91 53.57 41.95 54.22 42.12 50.61 45.15 48.94"/>
          <g>
            <path class="cls-18" d="m46.51,46.08l-.35-.24s-.31-2.67-1.64-2.71c0,0,1.53-.1,1.99,2.94Z"/>
            <path class="cls-24" d="m46.52,45.82s-.73-3.49-2.94-2.43c-2.04.97-3.35,6.12-3.35,6.12l.12-2.52s1.38-4.22,3.44-4.8c2.06-.58,3.13,1.72,3.13,1.72l-.39,1.91Z"/>
            <polygon class="cls-18" points="40.23 49.51 39.88 49.27 39.98 47.01 40.34 46.98 40.23 49.51"/>
            <path class="cls-1" d="m44.86,42.13s-1-.33-2.02.33c-1.83,1.2-2.87,4.54-2.87,4.54l.36.05s1.06-3.05,2.54-4.38c.84-.75,1.98-.55,1.98-.55Z"/>
          </g>
          <g>
            <polygon class="cls-25" points="7.39 27.1 7.58 22.6 9.87 23.63 9.68 28.09 7.39 27.1"/>
            <polygon class="cls-39" points="7.39 27.1 7.76 26.83 9.7 27.62 9.68 28.09 7.39 27.1"/>
            <polygon class="cls-4" points="7.76 26.83 7.93 22.75 9.87 23.63 9.7 27.62 7.76 26.83"/>
          </g>
          <g>
            <path class="cls-27" d="m6.75,22.58l-.3-.97s.64-1.62,2.3-1.31c1.66.31,2.62,2.91,2.62,2.91l-.59.82s-.85-2.21-2.14-2.56c-1.29-.35-1.88,1.12-1.88,1.12Z"/>
            <path class="cls-15" d="m6.75,22.58l.5-.23s.27-.79,1.1-.93c0,0-.97-.26-1.59,1.17Z"/>
            <polygon class="cls-15" points="10.77 24.03 11.14 23.97 11.78 23.21 11.36 23.21 10.77 24.03"/>
            <path class="cls-47" d="m8.59,20.28c1.75.16,2.72,1.73,3.19,2.94h-.42s-.92-2.52-2.77-2.94Z"/>
          </g>
          <g>
            <g>
              <polygon class="cls-46" points="48.21 36.78 48.53 32.1 46.89 33.18 46.58 37.74 48.21 36.78"/>
              <polygon class="cls-14" points="48.21 36.78 47.99 36.51 46.61 37.25 46.58 37.74 48.21 36.78"/>
              <polygon class="cls-4" points="47.99 36.51 48.28 32.26 46.89 33.18 46.61 37.25 47.99 36.51"/>
            </g>
            <g>
              <path class="cls-19" d="m49.09,32.07l.3-1s-.27-1.65-1.41-1.31c-1.14.34-2.03,3.01-2.03,3.01l.31.83s.78-2.26,1.68-2.65c.9-.38,1.15,1.12,1.15,1.12Z"/>
              <path class="cls-38" d="m49.09,32.07l-.31-.23s-.1-.81-.64-.94c0,0,.67-.28.95,1.17Z"/>
              <polygon class="cls-38" points="46.26 33.6 46.01 33.55 45.67 32.78 45.94 32.77 46.26 33.6"/>
              <path class="cls-33" d="m48.08,29.73c-1.18.19-1.98,1.81-2.41,3.04h.28s.86-2.59,2.14-3.04Z"/>
            </g>
            <g>
              <polygon class="cls-31" points="52.37 35.1 52.7 30.39 51.05 31.48 50.74 36.05 52.37 35.1"/>
              <polygon class="cls-14" points="52.37 35.1 52.15 34.82 50.77 35.56 50.74 36.05 52.37 35.1"/>
              <polygon class="cls-4" points="52.15 34.82 52.45 30.55 51.05 31.48 50.77 35.56 52.15 34.82"/>
            </g>
            <g>
              <path class="cls-19" d="m53.26,30.36l.3-1s-.27-1.66-1.42-1.31c-1.14.35-2.04,3.02-2.04,3.02l.31.84s.79-2.27,1.69-2.65c.91-.38,1.16,1.12,1.16,1.12Z"/>
              <path class="cls-38" d="m53.26,30.36l-.31-.23s-.1-.81-.65-.94c0,0,.68-.28.96,1.18Z"/>
              <polygon class="cls-38" points="50.41 31.9 50.17 31.84 49.82 31.08 50.1 31.06 50.41 31.9"/>
              <path class="cls-33" d="m52.25,28.02c-1.19.2-1.99,1.81-2.43,3.06h.28s.86-2.6,2.15-3.06Z"/>
            </g>
            <g>
              <polygon class="cls-20" points="56.56 33.39 56.89 28.67 55.24 29.76 54.92 34.35 56.56 33.39"/>
              <polygon class="cls-14" points="56.56 33.39 56.34 33.12 54.95 33.86 54.92 34.35 56.56 33.39"/>
              <polygon class="cls-4" points="56.34 33.12 56.64 28.84 55.24 29.76 54.95 33.86 56.34 33.12"/>
            </g>
            <g>
              <path class="cls-19" d="m57.45,28.64l.3-1.01s-.27-1.66-1.42-1.31c-1.15.35-2.05,3.03-2.05,3.03l.32.84s.79-2.28,1.7-2.66c.91-.39,1.16,1.12,1.16,1.12Z"/>
              <path class="cls-38" d="m57.45,28.64l-.31-.23s-.1-.81-.65-.94c0,0,.68-.28.96,1.18Z"/>
              <polygon class="cls-38" points="54.59 30.19 54.35 30.13 54 29.36 54.28 29.35 54.59 30.19"/>
              <path class="cls-33" d="m56.44,26.29c-1.2.2-2,1.82-2.44,3.07h.28s.87-2.61,2.16-3.07Z"/>
            </g>
            <g>
              <polygon class="cls-54" points="60.78 31.65 61.11 26.94 59.44 28.04 59.12 32.64 60.78 31.65"/>
              <polygon class="cls-14" points="60.78 31.65 60.55 31.37 59.15 32.15 59.12 32.64 60.78 31.65"/>
              <polygon class="cls-4" points="60.55 31.37 60.85 27.11 59.44 28.04 59.15 32.15 60.55 31.37"/>
            </g>
            <g>
              <path class="cls-19" d="m61.67,26.92l.3-1.01s-.27-1.67-1.43-1.32c-1.16.35-2.07,3.04-2.07,3.04l.32.84s.8-2.29,1.71-2.67c.92-.39,1.17,1.12,1.17,1.12Z"/>
              <path class="cls-38" d="m61.67,26.92l-.32-.23s-.1-.81-.65-.95c0,0,.68-.29.97,1.18Z"/>
              <polygon class="cls-38" points="58.8 28.47 58.55 28.41 58.2 27.64 58.48 27.63 58.8 28.47"/>
              <path class="cls-33" d="m60.65,24.56c-1.2.2-2.02,1.83-2.46,3.08h.28s.88-2.62,2.18-3.08Z"/>
            </g>
          </g>
          <g>
            <polygon class="cls-61" points="14 29.84 14.19 25.32 16.5 26.36 16.31 30.84 14 29.84"/>
            <polygon class="cls-39" points="14 29.84 14.37 29.57 16.33 30.36 16.31 30.84 14 29.84"/>
            <polygon class="cls-4" points="14.37 29.57 14.54 25.48 16.5 26.36 16.33 30.36 14.37 29.57"/>
          </g>
          <g>
            <path class="cls-27" d="m13.35,25.3l-.3-.98s.65-1.63,2.32-1.31c1.67.32,2.64,2.92,2.64,2.92l-.6.83s-.85-2.22-2.16-2.57c-1.3-.36-1.9,1.12-1.9,1.12Z"/>
            <path class="cls-15" d="m13.35,25.3l.5-.23s.27-.79,1.11-.93c0,0-.97-.26-1.61,1.17Z"/>
            <polygon class="cls-15" points="17.41 26.76 17.78 26.71 18.43 25.94 18 25.94 17.41 26.76"/>
            <path class="cls-47" d="m15.21,22.99c1.77.17,2.74,1.74,3.21,2.95h-.42s-.93-2.53-2.79-2.95Z"/>
          </g>
          <g>
            <polygon class="cls-43" points="20.66 32.61 20.85 28.06 23.19 29.11 22.99 33.61 20.66 32.61"/>
            <polygon class="cls-39" points="20.66 32.61 21.03 32.33 23.01 33.13 22.99 33.61 20.66 32.61"/>
            <polygon class="cls-4" points="21.03 32.33 21.21 28.22 23.19 29.11 23.01 33.13 21.03 32.33"/>
          </g>
          <g>
            <path class="cls-27" d="m20.01,28.05l-.3-.98s.66-1.63,2.34-1.31c1.68.32,2.66,2.94,2.66,2.94l-.6.83s-.86-2.23-2.17-2.59c-1.31-.36-1.91,1.12-1.91,1.12Z"/>
            <path class="cls-15" d="m20.01,28.05l.51-.23s.28-.8,1.12-.94c0,0-.98-.27-1.62,1.17Z"/>
            <polygon class="cls-15" points="24.1 29.52 24.48 29.46 25.13 28.7 24.7 28.69 24.1 29.52"/>
            <path class="cls-47" d="m21.89,25.73c1.78.17,2.76,1.75,3.24,2.97h-.42s-.93-2.55-2.82-2.97Z"/>
          </g>
          <g>
            <polygon class="cls-42" points="27.37 35.39 27.57 30.83 29.92 31.89 29.72 36.4 27.37 35.39"/>
            <polygon class="cls-39" points="27.37 35.39 27.75 35.11 29.74 35.92 29.72 36.4 27.37 35.39"/>
            <polygon class="cls-4" points="27.75 35.11 27.93 30.99 29.92 31.89 29.74 35.92 27.75 35.11"/>
          </g>
          <g>
            <path class="cls-27" d="m26.72,30.81l-.3-.98s.66-1.64,2.36-1.31c1.7.32,2.68,2.95,2.68,2.95l-.61.83s-.86-2.24-2.19-2.6c-1.33-.37-1.93,1.12-1.93,1.12Z"/>
            <path class="cls-15" d="m26.72,30.81l.51-.23s.28-.8,1.13-.94c0,0-.99-.27-1.64,1.17Z"/>
            <polygon class="cls-15" points="30.84 32.3 31.23 32.24 31.88 31.48 31.45 31.47 30.84 32.3"/>
            <path class="cls-47" d="m28.62,28.49c1.8.17,2.78,1.76,3.27,2.99h-.43s-.94-2.56-2.84-2.99Z"/>
          </g>
          <g>
            <polygon class="cls-56" points="34.14 38.2 34.35 33.62 36.72 34.69 36.51 39.22 34.14 38.2"/>
            <polygon class="cls-39" points="34.14 38.2 34.52 37.92 36.54 38.74 36.51 39.22 34.14 38.2"/>
            <polygon class="cls-4" points="34.52 37.92 34.71 33.78 36.72 34.69 36.54 38.74 34.52 37.92"/>
          </g>
          <g>
            <path class="cls-27" d="m33.49,33.6l-.31-.99s.67-1.64,2.38-1.31c1.71.33,2.7,2.97,2.7,2.97l-.61.83s-.87-2.25-2.21-2.62c-1.34-.37-1.95,1.12-1.95,1.12Z"/>
            <path class="cls-15" d="m33.49,33.6l.52-.23s.28-.8,1.14-.94c0,0-1-.27-1.65,1.17Z"/>
            <polygon class="cls-15" points="37.65 35.1 38.03 35.04 38.69 34.28 38.26 34.27 37.65 35.1"/>
            <path class="cls-47" d="m35.4,31.27c1.81.18,2.81,1.77,3.29,3h-.43s-.95-2.57-2.86-3Z"/>
          </g>
          <path class="cls-4" d="m28.5,0l9.72,13.29-.16,3.06L15.68,8.29s2.59-3.81,12.82-8.29Z"/>
          <path class="cls-9" d="m39.75,58.46s10.92-3.02,11.44-3.31c.52-.29,17.7-9.79,17.7-9.79l-3.8-.38-25.34,13.49Z"/>
          <path class="cls-11" d="m39.75,58.46l1.48-27.04.36.14,23.52-10.51s1.06,15.17-.02,23.93l-25.34,13.49Z"/>
          <path class="cls-11" d="m41.59,31.56s-.29-12.85.07-13.32c.36-.48,15.09-5.46,17.18-6.54,2.09-1.08,9.19,8.05,9.19,8.05l-26.43,11.82Z"/>
          <path class="cls-4" d="m4.81,17.35l-.08,2.01s9.11,9.84,18.29,13.77c9.28,3.98,17.91,3.26,17.91,3.26l.3-4.97L4.81,17.35Z"/>
          <path class="cls-12" d="m21.97,23.79s7.38-9.59,8.07-9.91c.69-.32,10.22,3.34,10.22,3.34l-8.48,10.55-9.81-3.99Z"/>
          <path class="cls-23" d="m22.03,22.33l8.01-8.67-2.11-.95s-7.84,8.11-7.96,8.42c-.12.3,2.05,1.21,2.05,1.21Z"/>
          <path class="cls-23" d="m6.93,18.15l10.2-9.53s-2.93-1.09-3.21-1.19c-.27-.1-10.04,9.54-10.04,9.54l3.04,1.18Z"/>
          <path class="cls-12" d="m8.92,17.13s5.59-4.97,6.57-5.59c.98-.62,5.82,1.79,5.82,1.79,0,0-6.12,5.61-6.59,5.72-.46.11-5.8-1.92-5.8-1.92Z"/>
          <polygon class="cls-23" points="32.38 28.04 41.15 17.51 41.59 31.56 32.38 28.04"/>
          <polygon class="cls-23" points="49.34 6.52 42.38 14.29 46.34 15.7 54.44 8.85 49.24 14.54 51.26 13.7 56.16 8.86 49.34 6.52"/>
          <polygon class="cls-12" points="43.11 4.57 36.49 12.78 29.5 10.51 34.56 1.9 43.11 4.57"/>
          <path class="cls-12" d="m50.22,27.7s-2.55-9.94-2.57-10.18c-.02-.24,7.27-3.4,7.27-3.4l3.86,8.61-2.64-7.37,3.68,7.87-9.6,4.46Z"/>
          <path class="cls-12" d="m60.57,23.07s-1.83-4.76-1.9-4.94c-.07-.18,2.32-1.12,2.32-1.12l2.68,4.68-3.1,1.38Z"/>
          <path class="cls-63" d="m26.24,12.1l14.02,5.13s-7.95-2.24-14.02-5.13Z"/>
          <path class="cls-21" d="m42.7,16.96l18.92-6.6s-11.92,5.71-18.92,6.6Z"/>
          <path class="cls-4" d="m6.19,17.8l9.48-9.51s-5.7,6.16-9.48,9.51Z"/>
          <path class="cls-4" d="m7.55,17.32l11.06,4.23s-7.44-2.75-11.06-4.23Z"/>
          <path class="cls-4" d="m15.83,20.49l3.62-3.5s-2.04,2.57-3.62,3.5Z"/>
          <path class="cls-13" d="m23.85,54.33s3.82,2.67,4.92,3.6c1.1.93,10.85,5.02,10.85,5.02l.06-1.42-15.83-7.2Z"/>
          <path class="cls-17" d="m38.08,60.79c.16-.16,2.95.12,2.95.12,0,0-1.39,1.47-1.39,1.47s-1.56-1.58-1.56-1.58Z"/>
          <path class="cls-60" d="m1.8,42.38s2.11,2.61,2.33,2.98c.22.37.42,1.35.42,1.35,0,0,.12-1.11.05-1.14-.07-.03-1.43-1.64-1.68-1.88-.26-.25-.58-.83-.64-1.02s-.44-.31-.44-.31l-.03.02Z"/>
          <path class="cls-4" d="m3.36,44.34s1.22,1.13,1.24,1.24c.02.11,0,.92,0,.92,0,0-.2-.73-.43-1.07-.23-.34-.8-1.08-.8-1.08Z"/>
          <path class="cls-13" d="m0,44.61s.12-.9.25-.93c.13-.03,3.4,1.45,3.65,1.73.25.28.65,1.31.65,1.31l-4.55-2.1Z"/>
          <g>
            <path class="cls-3" d="m41.18,38.61c-.15-.4-.92,1.12-.56,2.27.37,1.15.89-1.4.56-2.27Z"/>
            <path class="cls-10" d="m40.65,39.34c-.25,1.05.35,1.34.58.48.23-.86-.14-1.3-.2-1.24s-.31.48-.38.76Z"/>
            <path class="cls-28" d="m40.67,41.02c-.14-.6.46-.61.54-.78.08-.17-.3,1.43-.54.78Z"/>
          </g>
          <path class="cls-21" d="m13.11,7.12l-.62-.23L28.5,0s-13.94,6.93-15.39,7.12Z"/>
          <polygon class="cls-62" points="4.44 26.48 3.92 26.86 40.64 42.13 40.61 41.63 4.44 26.48"/>
          <polygon class="cls-2" points="3.92 26.86 4.39 27.71 40.56 42.82 40.64 42.13 3.92 26.86"/>
          <polygon class="cls-29" points="40.61 41.63 66.11 29.58 66.83 29.86 40.64 42.13 40.61 41.63"/>
          <polygon class="cls-26" points="66.83 29.86 66.04 30.62 40.56 42.82 40.64 42.13 66.83 29.86"/>
          <path class="cls-7" d="m8.88,44.32s.15-5.08.36-5.5c.21-.42.8.58.8.58l-.18,4.39.36-3.43s.03,3.17-.21,4.87l-1.13-.92Z"/>
          <path class="cls-7" d="m37.91,40.5s.2-3.13.24-3.59c0-.09,2.55.6,2.55.6l-.07,4.13-2.71-1.13Z"/>
          <path class="cls-6" d="m41.94,40.92s.51-7.89.55-8.03c.04-.14,2.9-2.19,2.9-2.19l-.99,9.14-2.46,1.08Z"/>
          <path class="cls-6" d="m62.25,31.4s.32-6.83.35-7.19c.03-.35,2.17-2.45,2.17-2.45l-.71,8.79-1.81.84Z"/>
          <polygon class="cls-6" points="57.54 48.82 57.72 44.96 60.79 43.75 60.62 47.36 57.54 48.82"/>
          <path class="cls-4" d="m4.39,27.71s5.29,2.04,17.56,6.64c12.45,4.67,18.61,8.46,18.61,8.46,0,0-28.43-10.99-36.17-15.1Z"/>
          <path class="cls-4" d="m40.56,42.82s3.53-2.11,11.16-5.88c7.72-3.81,14.96-7.01,14.96-7.01l-.75.9s-14.72,7.4-25.37,11.99Z"/>
          <path class="cls-9" d="m41.59,31.56s21.18-10.86,26.43-11.82l-26.43,11.82Z"/>
          <path class="cls-4" d="m39.99,8.44l5.83,1.81s-3.78-1.35-5.83-1.81Z"/>
          <path class="cls-12" d="m54.44,8.85s-2.72,2.3-5.09,4.05c-.68.5-3.28,2.89-3.28,2.89l2.32-.81,6.05-6.14Z"/>
          <path class="cls-12" d="m50.96,14.09s4.04-4.09,4.62-4.66c.58-.57,5.75,1.08,5.75,1.08l-10.37,3.58Z"/>
          <path class="cls-23" d="m31.78,27.78l9.59,3.29s.45-10.62-.17-11.76c-.62-1.14-9.42,8.47-9.42,8.47Z"/>
          <path class="cls-12" d="m22,18.36c-.57.38,4.5-5.15,4.5-5.15,0,0-1.65,3.28-4.5,5.15Z"/>
          <path class="cls-7" d="m13.45,34.61c-.36.37-.67,5.37-.73,5.53-.06.15,2.83,1.23,2.83,1.23,0,0,.35-5.71.25-5.84s-.85-2.46-2.35-.92Z"/>
          <path class="cls-7" d="m15.97,35.59s-.27,4.48-.21,4.84c.06.36,1.23-2.09,1.19-3.08-.04-.99-.84-2.06-.98-1.76Z"/>
          <path class="cls-7" d="m23.17,50.72c-.01-.22.56-5.88.77-6.35.21-.46,2.09,1.77,2.45,2.79.36,1.02.18,5.29.18,5.29l-3.4-1.74Z"/>
          <path class="cls-8" d="m3.8,42.5s26.96,12.46,35.94,15.96L3.8,42.5Z"/>
          <path class="cls-22" d="m41.2,20.72s-.4,2.78-.41,4.66c0,1.88.79,5.95.79,5.95l-.38-10.61Z"/>
          <path class="cls-21" d="m43.6,4.73s5.11,2.03,5.48,2.08c.37.05,8.49,2.29,8.49,2.29l-13.97-4.37Z"/>
          <path class="cls-21" d="m61.63,10.37s1.51,2.63,2.74,4.48c1.23,1.85,3.66,4.89,3.66,4.89l-6.39-9.38Z"/>
          <path class="cls-5" d="m39.95,62.75s1.12-2,1.51-2.22c.39-.22,19.57-10.83,19.57-10.83,0,0-6.8,4.8-9.08,6.28-2.27,1.48-12.01,6.76-12.01,6.76Z"/>
          <path class="cls-11" d="m41.38,18.61c-.09.28-.14,7.89.07,8.52.22.63,7.75-6.8,7.17-10.52-.18-1.15-6.11.26-6.35.51-.25.25-.71.95-.89,1.49Z"/>
          <polygon class="cls-63" points="40.26 17.23 42.7 16.96 41.18 18.6 40.26 17.23"/>
          <g>
            <path class="cls-36" d="m41.38,21.75c-.19-.38-.81,1.2-.33,2.31.48,1.11.75-1.49.33-2.31Z"/>
            <path class="cls-10" d="m40.92,22.53c-.15,1.07.48,1.3.62.43.14-.88-.26-1.28-.32-1.22-.05.07-.26.51-.3.79Z"/>
            <path class="cls-58" d="m41.11,24.2c-.2-.59.4-.65.46-.83.06-.18-.16,1.45-.46.83Z"/>
          </g>
        </g>
      </g>
    </g>
  </g>
</svg>