<?xml version="1.0" encoding="UTF-8"?>
<svg xmlns="http://www.w3.org/2000/svg" xmlns:xlink="http://www.w3.org/1999/xlink" viewBox="0 0 100.93 65.53">
  <defs>
    <style>
      .cls-1 {
        fill: url(#Gradient_26-21);
      }

      .cls-2 {
        fill: url(#Gradient_30-3);
      }

      .cls-3 {
        fill: url(#Gradient_26-18);
      }

      .cls-4 {
        fill: url(#Gradient_3-2);
      }

      .cls-5 {
        fill: url(#Gradient_26-27);
      }

      .cls-6 {
        fill: url(#Gradient_30-4);
      }

      .cls-7 {
        fill: #de6d74;
      }

      .cls-8 {
        fill: url(#Gradient_7-3);
      }

      .cls-9 {
        fill: url(#Gradient_7-10);
      }

      .cls-10 {
        fill: url(#Gradient_2-3);
      }

      .cls-11, .cls-12, .cls-13, .cls-14, .cls-15, .cls-16, .cls-17, .cls-18, .cls-19, .cls-20, .cls-21, .cls-22, .cls-23, .cls-24 {
        mix-blend-mode: multiply;
      }

      .cls-11, .cls-15, .cls-19 {
        fill: #bc577b;
      }

      .cls-11, .cls-16, .cls-25 {
        opacity: .3;
      }

      .cls-26 {
        fill: url(#Gradient_26-12);
      }

      .cls-12 {
        fill: #f28080;
      }

      .cls-12, .cls-17, .cls-19 {
        opacity: .8;
      }

      .cls-27 {
        fill: url(#Gradient_26-17);
      }

      .cls-28 {
        fill: url(#Gradient_26);
      }

      .cls-29 {
        fill: #ff9380;
      }

      .cls-30 {
        fill: url(#Gradient_4);
      }

      .cls-13 {
        fill: #e1839d;
      }

      .cls-13, .cls-14, .cls-15, .cls-20, .cls-21 {
        opacity: .5;
      }

      .cls-31 {
        fill: #f6b190;
      }

      .cls-32 {
        fill: url(#Gradient_26-14);
      }

      .cls-33 {
        fill: #fff4e9;
      }

      .cls-34 {
        fill: url(#Gradient_29-2);
      }

      .cls-35 {
        fill: url(#Gradient_7-9);
      }

      .cls-14 {
        fill: #dc587c;
      }

      .cls-36 {
        fill: #a25158;
      }

      .cls-16 {
        fill: #ffc1bd;
      }

      .cls-37 {
        fill: url(#Gradient_7-2);
      }

      .cls-38 {
        fill: url(#Gradient_26-10);
      }

      .cls-39 {
        fill: url(#Gradient_26-31);
      }

      .cls-40 {
        fill: url(#Gradient_2-2);
      }

      .cls-41 {
        fill: url(#Gradient_26-22);
      }

      .cls-42 {
        fill: url(#Gradient_26-3);
      }

      .cls-43 {
        fill: #fcbb9e;
      }

      .cls-44 {
        fill: url(#Gradient_26-4);
      }

      .cls-45 {
        fill: url(#Gradient_35);
      }

      .cls-46, .cls-25 {
        fill: #ffe39c;
        mix-blend-mode: soft-light;
      }

      .cls-46, .cls-18, .cls-22 {
        opacity: .2;
      }

      .cls-47 {
        fill: url(#Gradient_26-8);
      }

      .cls-48 {
        fill: url(#Gradient_26-13);
      }

      .cls-49 {
        fill: url(#Gradient_26-28);
      }

      .cls-50 {
        fill: url(#Gradient_33);
      }

      .cls-51 {
        fill: url(#Gradient_29-3);
      }

      .cls-52 {
        fill: url(#Gradient_26-26);
      }

      .cls-53 {
        fill: url(#Gradient_2);
      }

      .cls-17 {
        fill: #f6b0b0;
      }

      .cls-54 {
        fill: url(#Gradient_29);
      }

      .cls-18 {
        fill: #d79cb1;
      }

      .cls-55 {
        fill: url(#Gradient_35-3);
      }

      .cls-56 {
        fill: url(#Gradient_26-29);
      }

      .cls-57 {
        fill: url(#Gradient_26-15);
      }

      .cls-58 {
        fill: none;
        isolation: isolate;
      }

      .cls-20 {
        fill: #b8a69b;
      }

      .cls-59 {
        fill: url(#Gradient_35-2);
      }

      .cls-60 {
        fill: url(#Gradient_26-9);
      }

      .cls-61 {
        fill: url(#Gradient_26-5);
      }

      .cls-62 {
        fill: url(#Gradient_7);
      }

      .cls-63 {
        fill: url(#Gradient_29-5);
      }

      .cls-64 {
        fill: url(#Gradient_5-2);
      }

      .cls-65 {
        fill: url(#Gradient_7-5);
      }

      .cls-66 {
        fill: url(#Gradient_8);
      }

      .cls-67 {
        fill: url(#Gradient_7-6);
      }

      .cls-68 {
        fill: url(#Gradient_26-6);
      }

      .cls-69 {
        fill: url(#Gradient_6);
      }

      .cls-70 {
        fill: url(#Gradient_26-24);
      }

      .cls-71 {
        fill: url(#Gradient_26-20);
      }

      .cls-72 {
        fill: url(#Gradient_26-23);
      }

      .cls-73 {
        fill: #f78e8d;
      }

      .cls-74 {
        fill: url(#Gradient_7-7);
      }

      .cls-75 {
        fill: url(#Gradient_29-4);
      }

      .cls-76 {
        fill: url(#Gradient_6-3);
      }

      .cls-77 {
        fill: url(#Gradient_33-4);
      }

      .cls-78 {
        fill: url(#Gradient_26-7);
      }

      .cls-79 {
        fill: url(#Gradient_33-2);
      }

      .cls-80 {
        fill: url(#Gradient_33-3);
      }

      .cls-81 {
        fill: url(#Gradient_6-2);
      }

      .cls-82 {
        fill: url(#Gradient_33-5);
      }

      .cls-83 {
        fill: url(#Gradient_26-25);
      }

      .cls-84 {
        fill: #d78280;
      }

      .cls-21 {
        fill: #e6aadb;
      }

      .cls-85 {
        fill: url(#Gradient_26-30);
      }

      .cls-22, .cls-23, .cls-24 {
        fill: #bf6a8a;
      }

      .cls-86 {
        fill: url(#Gradient_26-11);
      }

      .cls-87 {
        fill: url(#Gradient_7-8);
      }

      .cls-88 {
        fill: url(#Gradient_30-2);
      }

      .cls-89 {
        fill: url(#Gradient_26-2);
      }

      .cls-90 {
        fill: url(#Gradient_30);
      }

      .cls-91 {
        fill: url(#Gradient_5);
      }

      .cls-92 {
        fill: #fbb092;
      }

      .cls-93 {
        fill: #fffefe;
      }

      .cls-94 {
        fill: #f67f7d;
      }

      .cls-95 {
        fill: url(#Gradient_26-19);
      }

      .cls-23 {
        opacity: .28;
      }

      .cls-96 {
        fill: url(#Gradient_26-16);
      }

      .cls-97 {
        fill: url(#Gradient_7-4);
      }

      .cls-24 {
        opacity: .4;
      }

      .cls-98 {
        fill: url(#Gradient_3);
      }
    </style>
    <linearGradient id="Gradient_2" data-name="Gradient 2" x1="-2.53" y1="60.12" x2="44.05" y2="60.12" gradientTransform="translate(2.58 -7.39) rotate(10.18) scale(1.07 .92) skewX(8.87)" gradientUnits="userSpaceOnUse">
      <stop offset="0" stop-color="#ffe9b6"/>
      <stop offset="1" stop-color="#ffc497"/>
    </linearGradient>
    <linearGradient id="Gradient_8" data-name="Gradient 8" x1="40.11" y1="21.61" x2="58.48" y2="21.61" gradientTransform="translate(2.58 -7.39) rotate(10.18) scale(1.07 .92) skewX(8.87)" gradientUnits="userSpaceOnUse">
      <stop offset="0" stop-color="#fff2da"/>
      <stop offset="1" stop-color="#ffd6b7"/>
    </linearGradient>
    <linearGradient id="Gradient_5" data-name="Gradient 5" x1="58.17" y1="19.14" x2="70.96" y2="19.14" gradientTransform="translate(2.58 -7.39) rotate(10.18) scale(1.07 .92) skewX(8.87)" gradientUnits="userSpaceOnUse">
      <stop offset="0" stop-color="#cf5d5a"/>
      <stop offset="1" stop-color="#ff9577"/>
    </linearGradient>
    <linearGradient id="Gradient_30" data-name="Gradient 30" x1="38.67" y1="7.02" x2="65.49" y2="7.02" gradientTransform="translate(2.58 -7.39) rotate(10.18) scale(1.07 .92) skewX(8.87)" gradientUnits="userSpaceOnUse">
      <stop offset="0" stop-color="#fd9077"/>
      <stop offset="1" stop-color="#f37449"/>
    </linearGradient>
    <linearGradient id="Gradient_33" data-name="Gradient 33" x1="57.69" y1="9.69" x2="72.14" y2="9.69" gradientTransform="translate(2.58 -7.39) rotate(10.18) scale(1.07 .92) skewX(8.87)" gradientUnits="userSpaceOnUse">
      <stop offset="0" stop-color="#b44c78"/>
      <stop offset="1" stop-color="#f37449"/>
    </linearGradient>
    <linearGradient id="Gradient_7" data-name="Gradient 7" x1="48.87" y1="34.09" x2="48.87" y2="25.81" gradientTransform="translate(-5.14 -25.77) rotate(13.11) scale(1.11 .91) skewX(10.96)" gradientUnits="userSpaceOnUse">
      <stop offset="0" stop-color="#fe9e6f"/>
      <stop offset="1" stop-color="#d56a5c"/>
    </linearGradient>
    <linearGradient id="Gradient_7-2" data-name="Gradient 7" x1="42.69" y1="28.07" x2="42.69" y2="19.79" gradientTransform="translate(6.84 -15.09) rotate(11.68) scale(1.06 .92) skewX(10.23)" xlink:href="#Gradient_7"/>
    <linearGradient id="Gradient_7-3" data-name="Gradient 7" x1="51.5" y1="33.98" x2="51.5" y2="25.71" gradientTransform="translate(.12 -21.7) rotate(12.47) scale(1.09 .92) skewX(10.64)" xlink:href="#Gradient_7"/>
    <linearGradient id="Gradient_7-4" data-name="Gradient 7" x1="57.84" y1="28.95" x2="57.84" y2="20.68" gradientTransform="translate(-3.66 -15.35) rotate(11.28) scale(1.1 .92) skewX(9.61)" xlink:href="#Gradient_7"/>
    <linearGradient id="Gradient_7-5" data-name="Gradient 7" x1="54.06" y1="43.28" x2="54.06" y2="35.01" gradientTransform="translate(5.54 -28.01) rotate(13.4) scale(1.08 .91) skewX(11.51)" xlink:href="#Gradient_7"/>
    <linearGradient id="Gradient_7-6" data-name="Gradient 7" x1="49.05" y1="42.57" x2="49.05" y2="34.39" xlink:href="#Gradient_7"/>
    <linearGradient id="Gradient_7-7" data-name="Gradient 7" x1="42.86" y1="36.55" x2="42.86" y2="28.36" gradientTransform="translate(6.84 -15.09) rotate(11.68) scale(1.06 .92) skewX(10.23)" xlink:href="#Gradient_7"/>
    <linearGradient id="Gradient_7-8" data-name="Gradient 7" x1="51.65" y1="42.46" x2="51.65" y2="34.28" gradientTransform="translate(.12 -21.7) rotate(12.47) scale(1.09 .92) skewX(10.64)" xlink:href="#Gradient_7"/>
    <linearGradient id="Gradient_7-9" data-name="Gradient 7" x1="57.97" y1="37.43" x2="57.97" y2="29.25" gradientTransform="translate(-3.66 -15.35) rotate(11.28) scale(1.1 .92) skewX(9.61)" xlink:href="#Gradient_7"/>
    <linearGradient id="Gradient_7-10" data-name="Gradient 7" x1="54.17" y1="51.75" x2="54.17" y2="43.57" gradientTransform="translate(5.54 -28.01) rotate(13.4) scale(1.08 .91) skewX(11.51)" xlink:href="#Gradient_7"/>
    <linearGradient id="Gradient_6" data-name="Gradient 6" x1="653.74" y1="-85.17" x2="653.74" y2="-93.36" gradientTransform="translate(849.7 4.84) rotate(172.59) scale(1.21 -.93) skewX(5.63)" gradientUnits="userSpaceOnUse">
      <stop offset="0" stop-color="#f87255"/>
      <stop offset="1" stop-color="#b44c58"/>
    </linearGradient>
    <linearGradient id="Gradient_6-2" data-name="Gradient 6" x1="650.35" y1="-86.06" x2="650.35" y2="-94.28" xlink:href="#Gradient_6"/>
    <linearGradient id="Gradient_6-3" data-name="Gradient 6" x1="647.04" y1="-87.33" x2="647.04" y2="-95.31" xlink:href="#Gradient_6"/>
    <linearGradient id="Gradient_3" data-name="Gradient 3" x1="523.73" y1="-23.67" x2="533" y2="-23.67" gradientTransform="translate(660.64 10.3) rotate(174.6) scale(1.08 -.93) skewX(5.6)" gradientUnits="userSpaceOnUse">
      <stop offset="0" stop-color="#ff9577"/>
      <stop offset="1" stop-color="#cf5d5a"/>
    </linearGradient>
    <linearGradient id="Gradient_2-2" data-name="Gradient 2" x1="59.66" y1="35.76" x2="79.02" y2="35.76" xlink:href="#Gradient_2"/>
    <linearGradient id="Gradient_26" data-name="Gradient 26" x1="524.88" y1="-32.01" x2="527.08" y2="-32.01" gradientTransform="translate(660.64 10.3) rotate(174.6) scale(1.08 -.93) skewX(5.6)" gradientUnits="userSpaceOnUse">
      <stop offset=".02" stop-color="#ffe9b6"/>
      <stop offset=".16" stop-color="#f4aca1"/>
      <stop offset=".32" stop-color="#f7bfa7"/>
      <stop offset=".57" stop-color="#fbd6af"/>
      <stop offset=".8" stop-color="#fee4b4"/>
      <stop offset="1" stop-color="#ffe9b6"/>
    </linearGradient>
    <linearGradient id="Gradient_26-2" data-name="Gradient 26" x1="528.81" y1="-30.73" x2="531" y2="-30.73" xlink:href="#Gradient_26"/>
    <linearGradient id="Gradient_26-3" data-name="Gradient 26" x1="532.46" y1="-29.55" x2="534.64" y2="-29.55" xlink:href="#Gradient_26"/>
    <linearGradient id="Gradient_26-4" data-name="Gradient 26" x1="536.14" y1="-31.87" x2="538.31" y2="-31.87" xlink:href="#Gradient_26"/>
    <linearGradient id="Gradient_26-5" data-name="Gradient 26" x1="539.49" y1="-33.89" x2="541.68" y2="-33.89" xlink:href="#Gradient_26"/>
    <linearGradient id="Gradient_26-6" data-name="Gradient 26" x1="542.66" y1="-36.02" x2="544.87" y2="-36.02" xlink:href="#Gradient_26"/>
    <linearGradient id="Gradient_26-7" data-name="Gradient 26" x1="546.03" y1="-38.17" x2="548.07" y2="-38.17" xlink:href="#Gradient_26"/>
    <linearGradient id="Gradient_26-8" data-name="Gradient 26" x1="548.85" y1="-39.71" x2="550.84" y2="-39.71" xlink:href="#Gradient_26"/>
    <linearGradient id="Gradient_35" data-name="Gradient 35" x1="524.08" y1="-37.32" x2="534.99" y2="-37.32" gradientTransform="translate(660.64 10.3) rotate(174.6) scale(1.08 -.93) skewX(5.6)" gradientUnits="userSpaceOnUse">
      <stop offset="0" stop-color="#ffe9b6"/>
      <stop offset="1" stop-color="#ffe7d5"/>
    </linearGradient>
    <linearGradient id="Gradient_30-2" data-name="Gradient 30" x1="529.42" y1="-42.94" x2="551.92" y2="-42.94" gradientTransform="translate(660.64 10.3) rotate(174.6) scale(1.08 -.93) skewX(5.6)" xlink:href="#Gradient_30"/>
    <linearGradient id="Gradient_33-2" data-name="Gradient 33" x1="76.42" y1="22.37" x2="89.2" y2="22.37" xlink:href="#Gradient_33"/>
    <linearGradient id="Gradient_5-2" data-name="Gradient 5" x1="563.12" y1="-33.94" x2="576.02" y2="-33.94" gradientTransform="translate(660.64 10.3) rotate(174.6) scale(1.08 -.93) skewX(5.6)" xlink:href="#Gradient_5"/>
    <linearGradient id="Gradient_4" data-name="Gradient 4" x1="10.3" y1="38.49" x2="35.33" y2="38.49" gradientTransform="translate(2.58 -7.39) rotate(10.18) scale(1.07 .92) skewX(8.87)" gradientUnits="userSpaceOnUse">
      <stop offset="0" stop-color="#fff2da"/>
      <stop offset="1" stop-color="#ffbc9c"/>
    </linearGradient>
    <linearGradient id="Gradient_26-9" data-name="Gradient 26" x1="574.64" y1="-49.11" x2="576.89" y2="-49.11" xlink:href="#Gradient_26"/>
    <linearGradient id="Gradient_26-10" data-name="Gradient 26" x1="571.29" y1="-50.11" x2="573.53" y2="-50.11" xlink:href="#Gradient_26"/>
    <linearGradient id="Gradient_26-11" data-name="Gradient 26" x1="578.33" y1="-47.8" x2="580.6" y2="-47.8" xlink:href="#Gradient_26"/>
    <linearGradient id="Gradient_26-12" data-name="Gradient 26" x1="581.76" y1="-46.6" x2="584.06" y2="-46.6" xlink:href="#Gradient_26"/>
    <linearGradient id="Gradient_26-13" data-name="Gradient 26" x1="585.34" y1="-48.86" x2="587.65" y2="-48.86" xlink:href="#Gradient_26"/>
    <linearGradient id="Gradient_26-14" data-name="Gradient 26" x1="588.6" y1="-50.84" x2="590.94" y2="-50.84" xlink:href="#Gradient_26"/>
    <linearGradient id="Gradient_26-15" data-name="Gradient 26" x1="591.68" y1="-52.93" x2="594.05" y2="-52.93" xlink:href="#Gradient_26"/>
    <linearGradient id="Gradient_26-16" data-name="Gradient 26" x1="594.98" y1="-55.03" x2="597.18" y2="-55.03" xlink:href="#Gradient_26"/>
    <linearGradient id="Gradient_26-17" data-name="Gradient 26" x1="597.71" y1="-56.54" x2="599.87" y2="-56.54" xlink:href="#Gradient_26"/>
    <linearGradient id="Gradient_35-2" data-name="Gradient 35" x1="571.15" y1="-53.4" x2="583.8" y2="-53.4" xlink:href="#Gradient_35"/>
    <linearGradient id="Gradient_30-3" data-name="Gradient 30" x1="577.64" y1="-60.13" x2="603.94" y2="-60.13" gradientTransform="translate(660.64 10.3) rotate(174.6) scale(1.08 -.93) skewX(5.6)" xlink:href="#Gradient_30"/>
    <linearGradient id="Gradient_33-3" data-name="Gradient 33" x1="26.8" y1="21.38" x2="41.6" y2="21.38" xlink:href="#Gradient_33"/>
    <linearGradient id="Gradient_26-18" data-name="Gradient 26" x1="45.59" y1="31.99" x2="45.59" y2="31.29" gradientTransform="translate(2.58 -7.39) rotate(10.18) scale(1.07 .92) skewX(8.87)" xlink:href="#Gradient_26"/>
    <linearGradient id="Gradient_26-19" data-name="Gradient 26" x1="35.51" y1="41.13" x2="35.51" y2="40.45" gradientTransform="translate(2.58 -7.39) rotate(10.18) scale(1.07 .92) skewX(8.87)" xlink:href="#Gradient_26"/>
    <linearGradient id="Gradient_3-2" data-name="Gradient 3" x1="566.15" y1="-9.81" x2="575.01" y2="-9.81" gradientTransform="translate(658.8 15.64) rotate(175.31) scale(1.08 -.93) skewX(5.03)" xlink:href="#Gradient_3"/>
    <linearGradient id="Gradient_2-3" data-name="Gradient 2" x1="10.22" y1="57.77" x2="37.89" y2="57.77" xlink:href="#Gradient_2"/>
    <linearGradient id="Gradient_26-20" data-name="Gradient 26" x1="567.44" y1="-18.22" x2="569.75" y2="-18.22" gradientTransform="translate(658.8 15.64) rotate(175.31) scale(1.08 -.93) skewX(5.03)" xlink:href="#Gradient_26"/>
    <linearGradient id="Gradient_26-21" data-name="Gradient 26" x1="571.17" y1="-16.85" x2="573.49" y2="-16.85" gradientTransform="translate(658.8 15.64) rotate(175.31) scale(1.08 -.93) skewX(5.03)" xlink:href="#Gradient_26"/>
    <linearGradient id="Gradient_26-22" data-name="Gradient 26" x1="593.42" y1="-27.97" x2="595.56" y2="-27.97" gradientTransform="translate(658.8 15.64) rotate(175.31) scale(1.08 -.93) skewX(5.03)" xlink:href="#Gradient_26"/>
    <linearGradient id="Gradient_26-23" data-name="Gradient 26" x1="596.3" y1="-29.88" x2="598.44" y2="-29.88" gradientTransform="translate(658.8 15.64) rotate(175.31) scale(1.08 -.93) skewX(5.03)" xlink:href="#Gradient_26"/>
    <linearGradient id="Gradient_26-24" data-name="Gradient 26" x1="599.5" y1="-31.8" x2="601.64" y2="-31.8" gradientTransform="translate(658.8 15.64) rotate(175.31) scale(1.08 -.93) skewX(5.03)" xlink:href="#Gradient_26"/>
    <linearGradient id="Gradient_26-25" data-name="Gradient 26" x1="574.62" y1="-15.67" x2="576.94" y2="-15.67" gradientTransform="translate(658.8 15.64) rotate(175.31) scale(1.08 -.93) skewX(5.03)" xlink:href="#Gradient_26"/>
    <linearGradient id="Gradient_26-26" data-name="Gradient 26" x1="578.2" y1="-18.02" x2="580.54" y2="-18.02" gradientTransform="translate(658.8 15.64) rotate(175.31) scale(1.08 -.93) skewX(5.03)" xlink:href="#Gradient_26"/>
    <linearGradient id="Gradient_26-27" data-name="Gradient 26" x1="581.45" y1="-20.06" x2="583.81" y2="-20.06" gradientTransform="translate(658.8 15.64) rotate(175.31) scale(1.08 -.93) skewX(5.03)" xlink:href="#Gradient_26"/>
    <linearGradient id="Gradient_26-28" data-name="Gradient 26" x1="584.52" y1="-22.17" x2="586.89" y2="-22.17" gradientTransform="translate(658.8 15.64) rotate(175.31) scale(1.08 -.93) skewX(5.03)" xlink:href="#Gradient_26"/>
    <linearGradient id="Gradient_26-29" data-name="Gradient 26" x1="587.78" y1="-24.27" x2="589.97" y2="-24.27" gradientTransform="translate(658.8 15.64) rotate(175.31) scale(1.08 -.93) skewX(5.03)" xlink:href="#Gradient_26"/>
    <linearGradient id="Gradient_26-30" data-name="Gradient 26" x1="590.47" y1="-25.78" x2="592.62" y2="-25.78" gradientTransform="translate(658.8 15.64) rotate(175.31) scale(1.08 -.93) skewX(5.03)" xlink:href="#Gradient_26"/>
    <linearGradient id="Gradient_35-3" data-name="Gradient 35" x1="566.92" y1="-23.57" x2="577.31" y2="-23.57" gradientTransform="translate(658.8 15.64) rotate(175.31) scale(1.08 -.93) skewX(5.03)" xlink:href="#Gradient_35"/>
    <linearGradient id="Gradient_33-4" data-name="Gradient 33" x1="572.3" y1="-32.52" x2="604.25" y2="-32.52" gradientTransform="translate(658.8 15.64) rotate(175.31) scale(1.08 -.93) skewX(5.03)" xlink:href="#Gradient_33"/>
    <linearGradient id="Gradient_33-5" data-name="Gradient 33" x1="35.04" y1="46.26" x2="47.12" y2="46.26" xlink:href="#Gradient_33"/>
    <linearGradient id="Gradient_30-4" data-name="Gradient 30" x1="8.73" y1="42.3" x2="40.56" y2="42.3" xlink:href="#Gradient_30"/>
    <linearGradient id="Gradient_29" data-name="Gradient 29" x1="47.05" y1=".95" x2="65.49" y2=".95" gradientTransform="translate(2.58 -7.39) rotate(10.18) scale(1.07 .92) skewX(8.87)" gradientUnits="userSpaceOnUse">
      <stop offset="0" stop-color="#ffba76"/>
      <stop offset="1" stop-color="#ff8346"/>
    </linearGradient>
    <linearGradient id="Gradient_29-2" data-name="Gradient 29" x1="7.32" y1="15.6" x2="15" y2="15.6" xlink:href="#Gradient_29"/>
    <linearGradient id="Gradient_29-3" data-name="Gradient 29" x1="38.67" y1="3.79" x2="47.05" y2="3.79" xlink:href="#Gradient_29"/>
    <linearGradient id="Gradient_29-4" data-name="Gradient 29" x1="60.2" y1="17.65" x2="66.93" y2="17.65" xlink:href="#Gradient_29"/>
    <linearGradient id="Gradient_29-5" data-name="Gradient 29" x1="8.73" y1="37.77" x2="15.07" y2="37.77" xlink:href="#Gradient_29"/>
    <linearGradient id="Gradient_26-31" data-name="Gradient 26" x1="37.97" y1="61.95" x2="37.97" y2="61.29" gradientTransform="translate(2.58 -7.39) rotate(10.18) scale(1.07 .92) skewX(8.87)" xlink:href="#Gradient_26"/>
  </defs>
  <g class="cls-58">
    <g id="Warstwa_2" data-name="Warstwa 2">
      <g id="objects">
        <g>
          <polygon class="cls-93" points="0 40.37 49.57 17.42 100.93 41.08 49.27 64.26 0 40.37"/>
          <path class="cls-19" d="m42.97,60.32s12.98.7,14.97.04c2-.66,13.45-6.04,13.45-6.04l-16.99-8.82,16.72-6.04,14.98,6.59,5.42-.76,9.41-4.22-4.79-1.53-54.71-14.21-27.26,8.05,21.05,10.16-21.43,2.46,29.19,14.32Z"/>
          <polygon class="cls-53" points="0 40.37 .05 41.23 49.31 65.53 49.27 64.26 0 40.37"/>
          <polygon class="cls-36" points="100.93 41.08 100.92 41.93 49.31 65.53 49.27 64.26 100.93 41.08"/>
          <path class="cls-31" d="m47.85,63.57c.26-.15,3.03-.03,3.03-.03,0,0-1.35,1.19-1.65,1.14-.31-.04-1.37-1.11-1.37-1.11Z"/>
          <g>
            <polygon class="cls-66" points="45.91 26.41 45.02 8.31 64.13 17.7 64.5 36.17 45.91 26.41"/>
            <polygon class="cls-91" points="64.5 36.17 77.3 30.58 77.65 14.43 71.86 8.51 64.13 17.7 64.5 36.17"/>
            <polygon class="cls-90" points="63.63 18.29 71.86 8.51 52.34 0 43.5 8.61 63.63 18.29"/>
            <polygon class="cls-50" points="63.63 18.29 64.24 18.37 71.87 9.16 78.47 15.06 78.9 14.65 71.86 8.51 63.63 18.29"/>
            <path class="cls-24" d="m43.5,8.61s11.54,4.63,20.13,9.68l-20.13-9.68Z"/>
            <g>
              <path class="cls-62" d="m46.51,17.48l-.27-5.64s.4-1.6,1.48-1.05c1.09.55,1.28,2.24,1.28,2.24l.15,5.81-2.64-1.36Z"/>
              <path class="cls-19" d="m47.47,10.69c-.42.03-.71.44-.68,1.59.03,1.15.26,5.08.26,5.08l2.11,1.09-.14-5.42s-.37-2.13-1.54-2.34Z"/>
            </g>
            <g>
              <path class="cls-37" d="m50.22,19.45l-.25-5.63s.39-1.62,1.44-1.1c1.05.52,1.23,2.2,1.23,2.2l.14,5.81-2.55-1.28Z"/>
              <path class="cls-19" d="m51.15,12.63c-.4.04-.69.47-.66,1.61.03,1.15.24,5.07.24,5.07l2.04,1.02-.13-5.41s-.35-2.12-1.49-2.29Z"/>
            </g>
            <g>
              <path class="cls-8" d="m53.77,21.29l-.24-5.63s.4-1.61,1.47-1.07c1.07.53,1.25,2.22,1.25,2.22l.12,5.8-2.61-1.33Z"/>
              <path class="cls-19" d="m54.75,14.5c-.41.03-.71.45-.68,1.6.03,1.15.23,5.07.23,5.07l2.08,1.06-.12-5.41s-.35-2.13-1.51-2.31Z"/>
            </g>
            <g>
              <path class="cls-97" d="m57.36,23.23l-.23-5.62s.41-1.61,1.49-1.1c1.08.51,1.26,2.2,1.26,2.2l.11,5.8-2.64-1.27Z"/>
              <path class="cls-19" d="m58.36,16.43c-.42.04-.72.47-.69,1.61.02,1.14.22,5.06.22,5.06l2.1,1.01-.1-5.4s-.35-2.12-1.53-2.28Z"/>
            </g>
            <g>
              <path class="cls-65" d="m61.04,25.03l-.21-5.62s.41-1.6,1.46-1.05c1.06.55,1.23,2.24,1.23,2.24l.09,5.79-2.57-1.36Z"/>
              <path class="cls-19" d="m62.04,18.27c-.41.02-.7.44-.68,1.58.02,1.14.2,5.06.2,5.06l2.05,1.07-.09-5.38s-.34-2.13-1.49-2.33Z"/>
            </g>
            <g>
              <path class="cls-67" d="m46.74,25.49l-.27-5.58s.4-1.58,1.48-1.04c1.08.55,1.27,2.22,1.27,2.22l.15,5.75-2.63-1.36Z"/>
              <path class="cls-19" d="m47.69,18.78c-.41.02-.71.44-.68,1.57.03,1.13.25,5.02.25,5.02l2.1,1.08-.14-5.36s-.36-2.11-1.53-2.32Z"/>
            </g>
            <g>
              <path class="cls-74" d="m50.42,27.45l-.25-5.57s.39-1.6,1.43-1.08c1.04.51,1.22,2.18,1.22,2.18l.14,5.74-2.54-1.27Z"/>
              <path class="cls-19" d="m51.35,20.72c-.4.04-.69.46-.66,1.59.03,1.13.24,5.01.24,5.01l2.03,1.02-.13-5.36s-.35-2.1-1.48-2.27Z"/>
            </g>
            <g>
              <path class="cls-87" d="m53.96,29.29l-.24-5.57s.4-1.59,1.46-1.05c1.06.53,1.25,2.2,1.25,2.2l.12,5.74-2.59-1.32Z"/>
              <path class="cls-19" d="m54.93,22.58c-.41.03-.7.44-.68,1.58.03,1.13.23,5.01.23,5.01l2.07,1.05-.11-5.35s-.35-2.1-1.5-2.29Z"/>
            </g>
            <g>
              <path class="cls-35" d="m57.53,31.22l-.23-5.56s.41-1.59,1.48-1.08c1.08.51,1.26,2.18,1.26,2.18l.11,5.73-2.62-1.27Z"/>
              <path class="cls-19" d="m58.52,24.49c-.41.04-.71.46-.69,1.59.02,1.13.22,5,.22,5l2.09,1.01-.1-5.34s-.35-2.1-1.52-2.26Z"/>
            </g>
            <g>
              <path class="cls-9" d="m61.19,33.01l-.21-5.56s.4-1.58,1.45-1.03c1.05.55,1.22,2.22,1.22,2.22l.09,5.73-2.56-1.36Z"/>
              <path class="cls-19" d="m62.18,26.33c-.4.02-.7.43-.68,1.56.02,1.13.2,5,.2,5l2.04,1.07-.09-5.32s-.34-2.1-1.48-2.31Z"/>
            </g>
            <g>
              <path class="cls-69" d="m68.67,25.48l.05-5.44s-.5-1.53-1.65-.98c-1.15.55-1.29,2.19-1.29,2.19l.08,5.59,2.81-1.36Z"/>
              <path class="cls-19" d="m67.35,18.97c.45.01.79.41.81,1.52.01,1.11-.06,4.89-.06,4.89l-2.24,1.07-.08-5.19s.3-2.06,1.57-2.28Z"/>
            </g>
            <g>
              <path class="cls-81" d="m72.72,24.11l.07-5.46s-.5-1.54-1.66-.98c-1.16.56-1.3,2.2-1.3,2.2l.07,5.61,2.82-1.37Z"/>
              <path class="cls-19" d="m71.41,17.57c.45.01.79.41.81,1.52.01,1.11-.07,4.91-.07,4.91l-2.25,1.07-.06-5.21s.31-2.07,1.58-2.29Z"/>
            </g>
            <g>
              <path class="cls-76" d="m76.62,22.44l.08-5.3s-.48-1.49-1.61-.95c-1.13.54-1.27,2.13-1.27,2.13l.05,5.45,2.75-1.33Z"/>
              <path class="cls-19" d="m75.37,16.09c.44.01.77.4.78,1.48,0,1.08-.09,4.77-.09,4.77l-2.19,1.04-.05-5.06s.31-2.01,1.54-2.23Z"/>
            </g>
          </g>
          <g>
            <path class="cls-93" d="m96.25,37.94s-16.31-7.29-16.83-7.51c-.52-.21-13.63,2.15-13.63,2.15l20.44,9.54,10.02-4.19Z"/>
            <polygon class="cls-98" points="95.98 41.86 96.25 37.94 86.23 42.13 86.11 46.06 95.98 41.86"/>
            <polygon class="cls-40" points="86.23 42.13 65.79 32.59 65.75 36.18 86.11 46.06 86.23 42.13"/>
            <path class="cls-12" d="m94.16,38.14c-.98.21-5.46-.13-5.46-.13l1.87,1.26s-.73.56-1.92.64c-1.19.08-3.68-.19-3.68-.19l1.34,1.33s-.85.42-1.74.3l1.66.77h0l-20.44-9.54-1.51.66,8.44-4.61,22.24,8.78s-.22.61-.8.73Z"/>
            <g>
              <path class="cls-84" d="m92.32,36.2l.2-7.56s-1.14-.64-2.33.39l-.2,7.81s1.78.68,2.33-.63Z"/>
              <path class="cls-84" d="m88.78,34.66l.18-7.59s-1.15-.64-2.34.39l-.18,7.84s1.79.68,2.34-.63Z"/>
              <path class="cls-94" d="m85.45,33.01l.17-7.62s-1.16-.64-2.35.39l-.17,7.86s1.8.69,2.34-.63Z"/>
              <path class="cls-94" d="m81.88,31.36l.16-7.64s-1.06-.66-2.15.36l-.15,7.89s1.64.71,2.14-.61Z"/>
              <path class="cls-94" d="m78.91,30.22l.14-7.67s-1.03-.66-2.09.35l-.14,7.91s1.6.72,2.08-.6Z"/>
              <path class="cls-28" d="m94.96,37.41l.21-7.54s-1.14-.63-2.32.39l-.21,7.79s1.77.68,2.32-.63Z"/>
              <path class="cls-89" d="m90.72,39.01l.19-7.54s-1.14-.63-2.33.39l-.19,7.79s1.78.67,2.33-.63Z"/>
              <path class="cls-42" d="m86.78,40.48l.18-7.55s-1.15-.63-2.34.39l-.17,7.79s1.79.67,2.33-.63Z"/>
              <path class="cls-44" d="m82.87,38.71l.16-7.58s-1.16-.64-2.35.39l-.15,7.82s1.8.68,2.34-.63Z"/>
              <path class="cls-61" d="m79.3,37.17l.14-7.6s-1.16-.64-2.36.39l-.14,7.85s1.81.68,2.35-.64Z"/>
              <path class="cls-68" d="m75.92,35.51l.13-7.63s-1.17-.64-2.36.39l-.12,7.88s1.82.68,2.36-.64Z"/>
              <path class="cls-78" d="m72.32,33.87l.11-7.66s-1.07-.66-2.16.36l-.11,7.91s1.66.71,2.16-.61Z"/>
              <path class="cls-47" d="m69.31,32.73l.1-7.68s-1.04-.66-2.1.35l-.09,7.93s1.62.72,2.1-.6Z"/>
              <polygon class="cls-45" points="96.02 29.77 84.2 34.39 84.23 33.02 90.43 24.85 96.06 28.57 96.02 29.77"/>
              <polygon class="cls-88" points="83.46 33.32 90.39 24.09 73.4 17.09 66.16 25.19 83.46 33.32"/>
              <polygon class="cls-79" points="83.46 33.32 84.05 33.48 90.43 24.85 96.62 28.92 96.97 28.6 90.39 24.09 83.46 33.32"/>
              <polygon class="cls-36" points="96.62 28.92 96.04 29.08 96.06 28.57 96.62 28.92"/>
              <polygon class="cls-94" points="84.2 34.39 67.28 26.23 67.29 25.72 84.05 33.48 84.2 34.39"/>
            </g>
            <path class="cls-11" d="m83.46,33.45s6.55-8.6,6.46-8.76c-.09-.16-16.52-7.47-16.52-7.47l-7.24,8.1,17.31,8.13Z"/>
            <path class="cls-13" d="m95.13,31.27s-1.41-1.75-2.36,1.9l.06-2.15,2.34-.91-.03,1.17Z"/>
            <path class="cls-13" d="m90.87,32.95s-1.42-1.75-2.36,1.9l.05-2.15,2.34-.91-.03,1.17Z"/>
            <path class="cls-13" d="m86.92,34.51s-1.43-1.75-2.37,1.91l.05-2.15,2.35-.92-.03,1.17Z"/>
            <path class="cls-13" d="m82.95,34.84s-1.74-.25-2.4,3.44l.11-5.6,2.31,1.11-.02,1.05Z"/>
            <path class="cls-13" d="m79.35,34.05s-2.03-.64-2.4,3.47l.12-6.57,2.33,1.12-.04,1.98Z"/>
            <path class="cls-13" d="m75.97,32.97s-1.87-1.07-2.42,2.72l.1-6.39,2.37,1.14-.04,2.53Z"/>
            <path class="cls-13" d="m72.36,31.35s-2.21-.53-2.19,2.97l.09-6.65,2.15,1.04-.05,2.64Z"/>
            <path class="cls-13" d="m69.35,29.82s-2.07-.33-2.13,3.51l.06-7.1,2.11,1.01-.03,2.57Z"/>
            <polygon class="cls-15" points="96.06 28.57 96.03 29.45 89.9 25.57 90.43 24.85 96.06 28.57"/>
            <polygon class="cls-21" points="86.71 31.43 86.69 32.46 93.97 29.66 93.99 29.05 90.33 26.67 90.04 27.05 86.71 31.43"/>
            <polygon class="cls-33" points="86.71 31.43 86.7 32.11 93.09 29.65 93.11 29.04 90.04 27.05 86.71 31.43"/>
            <path class="cls-14" d="m93.99,29.05h-.88s-2.61-1.31-3.14-1.27c-.53.04-1.38,1.16-1.38,1.16l1.73-2.28,3.66,2.38Z"/>
            <path class="cls-22" d="m85.45,22.49s-4.71,6.66-5.14,6.59c-.43-.06-6.74-3.14-6.88-3.22-.13-.08,3.58-5.66,3.58-5.66,0,0-2.23,3.16-2.39,3.28s-1.49-.75-1.49-.75l3.29-4.3,9.04,4.05Z"/>
            <path class="cls-18" d="m71.98,18.68s2.1,1.07,2.32,1.23c.22.16-4.58,6.39-4.58,6.39l-3.42-1.05,5.68-6.58Z"/>
            <path class="cls-46" d="m80.38,31.87s4.25-5.23,4.39-5.62c.14-.39-1.34-.7-1.63-.58-.29.12-4,5.5-4,5.5l1.23.7Z"/>
            <path class="cls-29" d="m90.39,24.09s-1.03.18-1.87-.21c-.84-.39-9.91-4.64-9.91-4.64l11.78,4.84Z"/>
            <path class="cls-25" d="m89.93,24.39l-6.46,8.78s-11.86-5.22-13.27-5.96c-4.43-2.32,2.61-8.5,3-9.43l16.73,6.6Z"/>
            <polygon class="cls-12" points="96.02 29.78 84.2 34.4 84.23 33.03 90.43 24.86 96.06 28.58 96.02 29.78"/>
          </g>
          <g>
            <path class="cls-93" d="m54.02,28.9s-26.81-11.85-27.32-12.06c-.51-.21-13.17,4.98-13.17,4.98l26.49,12.66,14-5.57Z"/>
            <path class="cls-19" d="m44.29,25.98s-.31.11-1.4-.13c-.56-.12-4.87-1.82-4.87-1.82l.57-1.44,6.7,2.6s-.65.78-1.01.79Z"/>
            <polygon class="cls-64" points="53.77 38.41 54.02 28.9 40.02 34.47 39.95 44.27 53.77 38.41"/>
            <polygon class="cls-30" points="40.02 34.47 13.53 21.81 13.96 31.9 39.95 44.27 40.02 34.47"/>
            <path class="cls-19" d="m40.93,27.18c-.93.21-5.23-.1-5.23-.1l1.84,1.24s-.68.55-1.82.64c-1.14.09-3.53-.17-3.53-.17l1.33,1.31s-.8.42-1.66.3l8.16,4.07h0l-26.49-12.66h0l12.1-2.32,16.04,6.96s-.19.6-.74.73Z"/>
            <path class="cls-84" d="m39.1,25.27l-.08-7.49s-1.12-.62-2.22.39l.1,7.73s1.73.66,2.21-.64Z"/>
            <path class="cls-84" d="m35.65,23.76l-.1-7.52s-1.12-.63-2.23.39l.11,7.76s1.74.67,2.22-.64Z"/>
            <path class="cls-94" d="m32.39,22.13l-.11-7.54s-1.13-.63-2.24.39l.13,7.79s1.75.67,2.22-.64Z"/>
            <path class="cls-94" d="m28.92,20.52l-.13-7.57s-1.04-.65-2.04.37l.14,7.81s1.6.69,2.03-.61Z"/>
            <path class="cls-94" d="m26.02,19.4l-.14-7.59s-1.01-.65-1.99.36l.15,7.84s1.56.7,1.97-.6Z"/>
            <path class="cls-60" d="m41.67,26.45l-.07-7.47s-1.11-.62-2.21.39l.08,7.71s1.72.66,2.2-.64Z"/>
            <path class="cls-38" d="m45.3,25.19l-.05-7.5s-1.12-.62-2.22.4l.07,7.74s1.73.66,2.21-.64Z"/>
            <path class="cls-86" d="m37.66,28.06l-.09-7.47s-1.12-.62-2.22.4l.1,7.71s1.73.66,2.21-.64Z"/>
            <path class="cls-26" d="m33.94,29.53l-.11-7.47s-1.12-.62-2.22.4l.12,7.72s1.74.66,2.21-.64Z"/>
            <path class="cls-48" d="m30.13,27.79l-.12-7.5s-1.13-.62-2.23.4l.14,7.75s1.75.66,2.22-.64Z"/>
            <path class="cls-32" d="m26.65,26.29l-.14-7.53s-1.14-.63-2.24.4l.15,7.77s1.76.66,2.23-.64Z"/>
            <path class="cls-57" d="m23.35,24.66l-.15-7.56s-1.14-.63-2.25.4l.17,7.8s1.76.67,2.24-.64Z"/>
            <path class="cls-96" d="m19.84,23.05l-.17-7.58s-1.05-.65-2.06.37l.18,7.83s1.62.69,2.04-.62Z"/>
            <path class="cls-27" d="m16.92,21.94l-.18-7.61s-1.02-.65-2,.36l.2,7.85s1.57.7,1.99-.61Z"/>
            <polygon class="cls-36" points="42.95 18.04 42.4 18.19 42.4 17.69 42.95 18.04"/>
            <path class="cls-13" d="m41.61,20.36s-1.42-1.72-2.19,1.89l-.02-2.13,2.21-.92v1.15Z"/>
            <path class="cls-13" d="m37.59,22.05s-1.42-1.72-2.2,1.9l-.03-2.13,2.21-.92v1.15Z"/>
            <path class="cls-13" d="m33.85,23.62s-1.43-1.72-2.2,1.9l-.03-2.13,2.22-.92.02,1.15Z"/>
            <path class="cls-13" d="m30.06,23.97s-1.68-.23-2.18,3.41l-.1-5.54,2.26,1.09.02,1.04Z"/>
            <path class="cls-13" d="m26.59,23.2s-1.97-.63-2.18,3.45l-.13-6.5,2.27,1.1.04,1.96Z"/>
            <path class="cls-13" d="m23.3,22.15s-1.83-1.05-2.22,2.71l-.14-6.33,2.31,1.12.05,2.51Z"/>
            <path class="cls-13" d="m19.78,20.56s-2.14-.52-1.99,2.95l-.15-6.58,2.1,1.02.05,2.61Z"/>
            <path class="cls-13" d="m16.85,19.05s-1.99-.31-1.92,3.49l-.2-7.03,2.05.99.06,2.54Z"/>
            <path class="cls-46" d="m27.49,21.04s3.89-5.2,4.01-5.59c.12-.38-1.31-.69-1.58-.57-.27.12-3.63,5.46-3.63,5.46l1.21.69Z"/>
            <polygon class="cls-59" points="45.56 19.66 31.89 25.31 31.86 23.65 38.78 13.73 45.55 18.2 45.56 19.66"/>
            <polygon class="cls-2" points="30.98 24.03 38.7 12.81 18.46 4.44 10.37 14.29 30.98 24.03"/>
            <polygon class="cls-80" points="30.98 24.03 31.67 24.21 38.78 13.73 46.23 18.63 46.62 18.23 38.7 12.81 30.98 24.03"/>
            <polygon class="cls-94" points="31.89 25.31 11.73 15.55 11.71 14.93 31.67 24.21 31.89 25.31"/>
            <path class="cls-11" d="m30.98,24.18s7.3-10.45,7.19-10.64c-.11-.19-19.71-8.94-19.71-8.94l-7.93,9.77,20.45,9.81Z"/>
            <polygon class="cls-15" points="45.55 18.2 45.55 19.28 38.19 14.61 38.78 13.73 45.55 18.2"/>
            <polygon class="cls-21" points="34.7 21.72 34.72 22.97 43.14 19.53 43.14 18.8 38.74 15.94 38.42 16.4 34.7 21.72"/>
            <polygon class="cls-33" points="34.7 21.72 34.71 22.55 42.11 19.53 42.1 18.8 38.42 16.4 34.7 21.72"/>
            <path class="cls-14" d="m43.14,18.8h-1.03s-3.12-1.57-3.73-1.52c-.61.05-1.57,1.42-1.57,1.42l1.93-2.77,4.4,2.86Z"/>
            <path class="cls-22" d="m32.84,10.9s-5.23,8.09-5.74,8.02c-.51-.07-8.04-3.76-8.2-3.85-.16-.1,3.93-6.87,3.93-6.87,0,0-2.47,3.85-2.65,3.98-.18.14-1.78-.9-1.78-.9l3.66-5.23,10.78,4.85Z"/>
            <path class="cls-18" d="m16.87,6.37s2.51,1.28,2.77,1.47c.26.19-5.06,7.77-5.06,7.77l-4.05-1.25,6.34-8Z"/>
            <path class="cls-29" d="m38.7,12.81s-1.2.22-2.2-.24c-1-.46-11.83-5.56-11.83-5.56l14.03,5.79Z"/>
            <path class="cls-25" d="m38.17,13.18l-7.19,10.67s-14.11-6.24-15.8-7.12c-5.29-2.78,2.66-10.31,3.08-11.44l19.91,7.9Z"/>
            <polygon class="cls-73" points="44.75 27.32 50.66 30.24 50.87 38.4 42.49 41.62 42.39 33.53 35.74 30.19 44.75 27.32"/>
            <polygon class="cls-93" points="37.43 31.04 44.86 28.82 46.71 29.75 39.49 32.07 37.43 31.04"/>
            <polygon class="cls-93" points="40.9 32.78 46.74 31.13 48.43 32.1 42.41 34.09 42.39 33.53 40.9 32.78"/>
            <polygon class="cls-93" points="42.41 35.18 48.23 33.37 49.92 34.34 42.43 36.94 42.41 35.18"/>
            <polygon class="cls-93" points="42.45 38.35 49.96 35.92 51.87 36.82 42.5 40.09 42.45 38.35"/>
            <polygon class="cls-93" points="42.49 41.62 51.72 38.24 53.4 39.21 44.49 42.52 42.49 41.62"/>
            <polygon class="cls-43" points="51.87 36.82 51.72 38.24 42.49 41.62 42.5 40.09 51.87 36.82"/>
            <polygon class="cls-43" points="49.92 34.34 49.96 35.92 42.45 38.35 42.43 36.94 49.92 34.34"/>
            <polygon class="cls-43" points="48.23 33.37 48.43 32.1 42.41 34.09 42.41 35.18 48.23 33.37"/>
            <polygon class="cls-43" points="46.71 29.75 46.74 31.13 40.9 32.78 39.49 32.07 46.71 29.75"/>
            <polygon class="cls-43" points="44.86 28.82 44.75 27.32 35.74 30.19 37.43 31.04 44.86 28.82"/>
            <path class="cls-23" d="m45.82,27.84c-.59-.28.43.29,2.32,3.59,1.88,3.29,2.22,2.17,2.43.54.21-1.63-.59-1.92-.77-2.08-.18-.16-3.98-2.05-3.98-2.05Z"/>
            <path class="cls-23" d="m42.63,36.87s5.81-2.1,6.47-2.07c.67.03.31,1.19-2.17,2.04-2.47.85-4.35,1.1-4.35,1.1,0,0-.43-.77.05-1.08Z"/>
            <path class="cls-23" d="m42.5,40.09c0,.08.01,1.08.1,1.22.08.14,4.15-1.29,5.94-1.86,1.8-.57,2.73-2.33,2.73-2.33l-8.77,2.97Z"/>
            <path class="cls-23" d="m42.49,34.15l5.72-1.71s-.42.57-2.09,1.38c-1.67.81-3.48.9-3.61.9-.13,0-.02-.58-.02-.58Z"/>
            <path class="cls-23" d="m39.94,31.93s.3.71,2.18.45c1.89-.25,3.83-1.55,3.97-1.77.14-.22.32-.77.32-.77l-6.48,2.08Z"/>
            <path class="cls-23" d="m36.44,29.97c-.54.17.23.79,2.44.52,2.22-.27,5.59-1.69,5.76-1.99.17-.31-.03-.94-.03-.94l-8.17,2.41Z"/>
            <g>
              <path class="cls-7" d="m50.83,29.77c-.2-.2-.73.78-.22,1.36.51.59.66-.93.22-1.36Z"/>
              <path class="cls-20" d="m50.42,30.26c-.09.63.52.7.61.18.1-.52-.31-.71-.36-.67s-.23.32-.26.49Z"/>
              <path class="cls-3" d="m50.68,31.2c-.22-.32.36-.42.4-.52.05-.11-.09.85-.4.52Z"/>
            </g>
            <g>
              <path class="cls-7" d="m40.18,36.45c-.2-.2-.71.76-.21,1.34.5.58.64-.92.21-1.34Z"/>
              <path class="cls-20" d="m39.78,36.94c-.09.62.51.69.61.18.09-.51-.31-.7-.36-.66-.05.04-.23.31-.25.48Z"/>
              <path class="cls-95" d="m40.04,37.87c-.22-.31.35-.41.39-.52.05-.11-.08.84-.39.52Z"/>
            </g>
            <polygon class="cls-12" points="45.56 19.66 31.89 25.31 31.86 23.65 38.78 13.73 45.55 18.2 45.56 19.66"/>
            <path class="cls-17" d="m39.95,44.27l.07-9.8,2.37-.94-6.65-3.34,9.01-2.87,5.67,2.95.34,1.29s.48-1.54.68-1.62,2.58-1.03,2.58-1.03l-.25,9.51-.37.8-13.45,5.06Z"/>
          </g>
          <g>
            <path class="cls-93" d="m52.2,52.68s-30.1-13.76-30.59-13.98c-.49-.21-8.12,3.52-8.12,3.52l29.24,14.63,9.46-4.17Z"/>
            <polygon class="cls-4" points="52.24 56.07 52.2 52.68 42.73 56.86 42.77 60.57 52.24 56.07"/>
            <polygon class="cls-10" points="42.73 56.86 13.49 42.23 13.7 45.92 42.78 60.53 42.73 56.86"/>
            <path class="cls-12" d="m50.19,52.87c-.94.2-5.25-.19-5.25-.19l1.85,1.3s-.67.56-1.82.63c-1.14.07-3.52-.23-3.52-.23l1.33,1.37s-.8.42-1.65.28l1.61.81h0l-28.65-14.33-.59-.29,7.64-3.59,29.8,13.5s-.19.62-.74.74Z"/>
            <path class="cls-84" d="m48.33,50.87l-.12-7.72s-1.12-.65-2.22.39l.13,7.96s1.74.71,2.21-.63Z"/>
            <path class="cls-84" d="m44.88,49.28l-.13-7.73s-1.12-.65-2.22.39l.14,7.97s1.74.71,2.21-.63Z"/>
            <path class="cls-94" d="m41.62,47.57l-.14-7.74s-1.13-.65-2.22.39l.15,7.98s1.74.71,2.21-.63Z"/>
            <path class="cls-94" d="m38.17,45.88l-.15-7.75s-1.03-.67-2.02.36l.17,7.99s1.58.73,2.01-.6Z"/>
            <path class="cls-94" d="m35.3,44.71l-.17-7.75s-1-.67-1.96.36l.18,7.99s1.54.73,1.94-.6Z"/>
            <path class="cls-71" d="m50.93,52.13l-.11-7.71s-1.12-.65-2.22.39l.12,7.95s1.74.71,2.21-.62Z"/>
            <path class="cls-1" d="m46.91,53.73l-.12-7.7s-1.12-.65-2.22.38l.13,7.94s1.73.71,2.2-.62Z"/>
            <path class="cls-41" d="m23.26,45.39l-.21-7.72s-.99-.67-1.93.36l.2,7.33s1.56,1.35,1.95.02Z"/>
            <path class="cls-13" d="m23.18,42.47s-2.16-7.05-1.87,2.9l-.18-6.74,1.97.92.08,2.91Z"/>
            <path class="cls-72" d="m20.21,43.86l-.23-7.7s-.99-.66-1.92.36l.21,7.32s1.55,1.34,1.94.02Z"/>
            <path class="cls-13" d="m20.13,40.94s-1.97-7.27-1.85,2.9l-.2-6.49,1.97.55.09,3.04Z"/>
            <path class="cls-70" d="m16.82,42.33l-.24-7.69s-.98-.66-1.91.36l.22,7.31s1.55,1.34,1.93.02Z"/>
            <path class="cls-13" d="m16.73,39.42s-2.02-7.64-1.84,2.9l-.21-6.86,1.94.66.11,3.31Z"/>
            <path class="cls-83" d="m43.19,55.19l-.14-7.68s-1.12-.65-2.21.38l.07,7.62s1.81,1.01,2.27-.32Z"/>
            <path class="cls-52" d="m39.39,53.34l-.15-7.69s-1.12-.65-2.21.38l.16,7.33s1.73,1.3,2.2-.02Z"/>
            <path class="cls-5" d="m35.94,51.75l-.16-7.7s-1.12-.65-2.21.38l.07,7.12s1.84,1.52,2.3.19Z"/>
            <path class="cls-49" d="m32.69,50.05l-.18-7.71s-1.12-.65-2.21.39l.14,7.19s1.79,1.46,2.25.13Z"/>
            <path class="cls-56" d="m29.24,48.36l-.19-7.72s-1.03-.66-2.01.36l.17,7.34s1.61,1.34,2.03.02Z"/>
            <path class="cls-85" d="m26.38,47.19l-.2-7.73s-1-.67-1.95.35l.18,7.34s1.57,1.35,1.97.03Z"/>
            <polygon class="cls-55" points="51.64 44.32 40.49 48.97 40.46 47.57 46.06 39.29 51.62 43.09 51.64 44.32"/>
            <polygon class="cls-77" points="39.75 47.88 45.99 38.51 18.15 26.01 11.9 34.15 39.75 47.88"/>
            <polygon class="cls-82" points="39.75 47.88 40.31 48.04 46.06 39.29 52.19 43.46 52.51 43.12 45.99 38.51 39.75 47.88"/>
            <polygon class="cls-36" points="52.19 43.46 51.63 43.61 51.62 43.09 52.19 43.46"/>
            <path class="cls-6" d="m39.75,48.01s5.9-8.72,5.81-8.89c-.09-.16-27.42-13.11-27.42-13.11l-6.25,8.14,27.85,13.86Z"/>
            <path class="cls-13" d="m50.84,45.85s-1.43-1.79-2.2,1.93l-.03-2.2,2.21-.92.02,1.19Z"/>
            <path class="cls-13" d="m46.81,47.55s-1.43-1.79-2.19,1.93l-.04-2.19,2.21-.92.02,1.19Z"/>
            <path class="cls-13" d="m43.09,49.11s-1.43-1.78-2.18,1.92l-.04-2.19,2.2-.92.02,1.19Z"/>
            <path class="cls-13" d="m39.32,49.42s-2.57-4.14-2.14,3.47l-.12-5.67,2.24,1.14.02,1.06Z"/>
            <path class="cls-13" d="m35.88,48.59s-2.55-7.47-2.24,2.97l-.05-6.12,2.24,1.15.04,2Z"/>
            <path class="cls-13" d="m32.63,47.48s-1.95-6.76-2.19,2.43l-.14-6.15,2.27,1.16.06,2.56Z"/>
            <path class="cls-13" d="m29.18,45.82s-2.06-7.84-1.96,2.53l-.15-6.24,2.06,1.05.05,2.66Z"/>
            <path class="cls-13" d="m26.31,44.26s-1.89-7.45-1.89,2.9l-.18-6.51,2,1.02.07,2.58Z"/>
            <polygon class="cls-15" points="51.62 43.09 51.64 43.99 45.58 40.01 46.06 39.29 51.62 43.09"/>
            <polygon class="cls-21" points="42.77 45.97 42.78 47.02 49.66 44.2 49.65 43.58 46.03 41.14 45.77 41.52 42.77 45.97"/>
            <polygon class="cls-33" points="42.77 45.97 42.78 46.67 48.81 44.19 48.8 43.57 45.77 41.52 42.77 45.97"/>
            <path class="cls-14" d="m49.65,43.58h-.85s-2.56-1.35-3.06-1.31c-.5.04-1.27,1.18-1.27,1.18l1.56-2.31,3.62,2.44Z"/>
            <path class="cls-22" d="m41.21,36.88s-4.21,6.74-4.62,6.68c-.41-.06-6.48-3.19-6.61-3.27-.13-.08,3.15-5.71,3.15-5.71,0,0-1.98,3.19-2.12,3.31-.14.11-1.43-.75-1.43-.75l2.92-4.34,8.72,4.08Z"/>
            <path class="cls-18" d="m28.34,33.06s2.01,1.07,2.22,1.23c.21.16-4.04,6.44-4.04,6.44l-3.23-1.06,5.05-6.61Z"/>
            <path class="cls-18" d="m18.93,26.61s1.98,1.05,2.19,1.21c.21.16-3.93,6.45-3.93,6.45l-3.18-1.03,4.92-6.64Z"/>
            <path class="cls-46" d="m36.76,46.39s3.83-5.29,3.95-5.69c.12-.39-1.3-.71-1.57-.59-.27.12-3.57,5.56-3.57,5.56l1.2.72Z"/>
            <path class="cls-29" d="m45.99,38.51s-.98.18-1.8-.21c-.82-.39-26.05-12.29-26.05-12.29l27.84,12.5Z"/>
            <path class="cls-25" d="m45.56,38.82l-5.82,8.91s-19.84-9.49-21.17-10.23c-4.17-2.31-.75-10.55-.42-11.49l27.41,12.8Z"/>
            <polygon class="cls-94" points="40.49 48.97 11.92 34.56 11.9 34.15 40.31 48.04 40.49 48.97"/>
            <path class="cls-18" d="m23.29,28.32s-1.61,2.76-1.65,2.92c-.04.16,3.94,1.66,4.21,1.64.27-.01,1.8-2.3,1.8-2.3l-4.37-2.27Z"/>
            <polygon class="cls-12" points="51.64 44.32 40.49 48.97 40.46 47.57 46.06 39.29 51.62 43.09 51.64 44.32"/>
          </g>
          <path class="cls-92" d="m82.5,50.39v-.64s-10.86-4.02-13.29-3.94c-2.44.08-2.97.84-3.51.85-.54.02-.07.51,0,.65.08.14-.64.53-.88,1.02-.24.49,8.49,5.09,8.49,5.09,0,0-8.2-4.49-8.36-4.91-.16-.42.84-1.04.88-1.15s-.41-.41-.36-.54c.05-.13-.09-.07.41-.1.49-.02,1.75-.66,3.88-.75,2.11-.09,12.3,3.93,12.3,3.93l.44.47Z"/>
          <path class="cls-16" d="m68.34,46.07c3.35-.8,12.16,3.69,13.72,3.85l-13.72-3.85Z"/>
          <path class="cls-18" d="m81.49,48.6c.83-.29-9.52-6.19-10.84-6.35-1.32-.17-4.44.29-5.33.32-.89.03,1.99,1.65,4.4,1.97,2.4.32,11.77,4.07,11.77,4.07Z"/>
          <path class="cls-18" d="m70.67,44.89c.28.02-1.21-.08-2.2-.06-.98.02.25.35,1.12.37.87.02,1.08-.31,1.08-.31Z"/>
          <path class="cls-16" d="m70.24,54.66c.29-.36-9.59-3.68-11.76-3.05-2.17.63,2.64,6.7,2.64,6.7l9.12-3.65Z"/>
          <path class="cls-18" d="m70.01,45.88c-.85-.19-3.55.64-4.1.75-.55.11-.51.19-.27.6.24.41-.86.76-.77,1.23.09.47,8.45,4.98,8.45,4.98l8.74-3.71s-9-3.18-12.05-3.84Z"/>
          <path class="cls-25" d="m45.67,8.88c-.33-.78,7.33-7.79,7.33-7.79l8.08,3.28-2.51,3.4-.78-.29-2.5,2.98,2.35.88s4.23-5.49,4.55-5.48c.32,0,3.7,1.41,3.7,1.41l-7.45,7.64-12.78-6.02Z"/>
          <path class="cls-25" d="m59.6,15.47s4.95-5.81,5.43-5.91c.48-.1,4.4,1.27,4.4,1.27l-5.68,6.67-4.14-2.04Z"/>
          <path class="cls-18" d="m60.9,12.39s.92.29,1.15.14c.23-.14,4-4.29,4-4.29l-.69-.43-4.46,4.58Z"/>
          <path class="cls-54" d="m52.34,0s1.33-.02,1.51.18c.18.2,18.01,8.32,18.01,8.32L52.34,0Z"/>
          <path class="cls-34" d="m10.37,14.29s7.24-7.6,8.1-9.85l-8.1,9.85Z"/>
          <path class="cls-51" d="m43.5,8.61S50.85,2.48,52.34,0l-8.84,8.61Z"/>
          <path class="cls-75" d="m66.3,25.26l7.1-8.03s-6.23,5.44-7.1,8.03Z"/>
          <path class="cls-63" d="m11.9,34.2s5.66-5.64,6.68-7.79l-6.68,7.79Z"/>
          <g>
            <path class="cls-7" d="m42.83,56.49c-.2-.19-.7.74-.21,1.3.5.57.63-.88.21-1.3Z"/>
            <path class="cls-20" d="m42.43,56.96c-.09.6.51.68.6.18.09-.5-.31-.68-.35-.64-.05.04-.22.3-.25.46Z"/>
            <path class="cls-39" d="m42.69,57.86c-.22-.31.34-.39.39-.5.05-.1-.08.81-.39.5Z"/>
          </g>
          <path class="cls-23" d="m43.07,59.96s.28-2.53.29-2.89c.01-.35,6.45-3.09,7.14-3.27.69-.18.62,1.49-1.3,3.26-1.91,1.76-6.12,2.9-6.12,2.9Z"/>
          <path class="cls-23" d="m86.46,45.65c-.32-.6-.57-2.92.25-3.72.83-.79,8.99-3.26,8.99-3.26,0,0-1.1,3.78-3.53,4.81-2.42,1.03-5.71,2.17-5.71,2.17Z"/>
        </g>
      </g>
    </g>
  </g>
</svg>