<?xml version="1.0" encoding="UTF-8"?>
<svg xmlns="http://www.w3.org/2000/svg" xmlns:xlink="http://www.w3.org/1999/xlink" viewBox="0 0 99.27 64.59">
  <defs>
    <style>
      .cls-1 {
        fill: url(#Gradient_18-2);
      }

      .cls-2 {
        fill: url(#Gradient_13-5);
      }

      .cls-3 {
        fill: #de85a0;
      }

      .cls-3, .cls-4, .cls-5, .cls-6, .cls-7, .cls-8, .cls-9, .cls-10, .cls-11, .cls-12, .cls-13, .cls-14 {
        mix-blend-mode: multiply;
      }

      .cls-3, .cls-14 {
        opacity: .4;
      }

      .cls-15 {
        fill: url(#Gradient_2-14);
      }

      .cls-16 {
        fill: url(#Gradient_2-39);
      }

      .cls-17 {
        fill: #fda58b;
      }

      .cls-18 {
        fill: #fb8d7f;
      }

      .cls-19 {
        fill: url(#Gradient_2-21);
      }

      .cls-20 {
        fill: #de6d74;
      }

      .cls-4 {
        opacity: .6;
      }

      .cls-4, .cls-5, .cls-7, .cls-8 {
        fill: #bc577b;
      }

      .cls-21 {
        fill: url(#Gradient_13);
      }

      .cls-22 {
        fill: url(#Gradient_2-3);
      }

      .cls-5, .cls-23, .cls-11, .cls-13 {
        opacity: .3;
      }

      .cls-24 {
        fill: url(#Gradient_18-3);
      }

      .cls-25 {
        fill: url(#Gradient_2-31);
      }

      .cls-26 {
        fill: url(#Gradient_2-30);
      }

      .cls-27 {
        fill: #ff9380;
      }

      .cls-28 {
        fill: url(#Gradient_2-42);
      }

      .cls-29 {
        fill: url(#Gradient_2-11);
      }

      .cls-30 {
        fill: url(#Gradient_2-22);
      }

      .cls-6, .cls-7, .cls-31, .cls-9 {
        opacity: .5;
      }

      .cls-6, .cls-11 {
        fill: #de8797;
      }

      .cls-32 {
        fill: #fff8f6;
      }

      .cls-33 {
        fill: url(#Gradient_13-4);
      }

      .cls-34 {
        fill: url(#Gradient_2-25);
      }

      .cls-35 {
        fill: url(#Gradient_18-6);
      }

      .cls-36 {
        fill: url(#Gradient_2-9);
      }

      .cls-37 {
        fill: url(#Gradient_2-5);
      }

      .cls-38, .cls-39 {
        fill: #fff6cd;
      }

      .cls-40 {
        fill: #ffa088;
      }

      .cls-41 {
        fill: url(#Gradient_2-32);
      }

      .cls-42 {
        fill: #fca37e;
      }

      .cls-43 {
        fill: url(#Gradient_10-3);
      }

      .cls-44 {
        fill: url(#Gradient_14);
      }

      .cls-45 {
        fill: url(#Gradient_18-5);
      }

      .cls-46 {
        fill: #a25158;
      }

      .cls-47 {
        fill: url(#Gradient_2-18);
      }

      .cls-48 {
        fill: url(#Gradient_2-35);
      }

      .cls-49 {
        fill: url(#Gradient_2-33);
      }

      .cls-50 {
        fill: url(#Gradient_2-26);
      }

      .cls-51 {
        fill: url(#Gradient_2-2);
      }

      .cls-52 {
        fill: url(#Gradient_2-13);
      }

      .cls-53 {
        fill: url(#Gradient_2-15);
      }

      .cls-54 {
        fill: url(#Gradient_2-38);
      }

      .cls-55 {
        fill: url(#Gradient_10);
      }

      .cls-56 {
        fill: #ffc9ab;
      }

      .cls-57 {
        fill: #ffebdf;
      }

      .cls-58 {
        fill: #ffdab7;
      }

      .cls-23, .cls-31 {
        fill: #ffe39c;
      }

      .cls-23, .cls-31, .cls-59, .cls-39 {
        mix-blend-mode: soft-light;
      }

      .cls-60 {
        fill: url(#Gradient_33);
      }

      .cls-61 {
        fill: url(#Gradient_2-37);
      }

      .cls-62 {
        fill: url(#Gradient_2-27);
      }

      .cls-63 {
        fill: url(#Gradient_10-2);
      }

      .cls-64 {
        fill: url(#Gradient_2);
      }

      .cls-65 {
        fill: url(#Gradient_2-4);
      }

      .cls-66 {
        fill: url(#Gradient_2-41);
      }

      .cls-67 {
        fill: url(#Gradient_2-17);
      }

      .cls-68 {
        fill: url(#Gradient_14-3);
      }

      .cls-69 {
        fill: url(#Gradient_10-6);
      }

      .cls-59 {
        fill: #ffa36c;
      }

      .cls-70 {
        fill: url(#Gradient_2-12);
      }

      .cls-71 {
        fill: url(#Gradient_2-40);
      }

      .cls-72 {
        fill: url(#Gradient_13-2);
      }

      .cls-73 {
        fill: url(#Gradient_2-29);
      }

      .cls-74 {
        fill: #f5a984;
      }

      .cls-75 {
        fill: none;
        isolation: isolate;
      }

      .cls-8 {
        opacity: .8;
      }

      .cls-9 {
        fill: #b8a69b;
      }

      .cls-76 {
        fill: url(#Gradient_13-6);
      }

      .cls-10 {
        fill: #f5cdd7;
      }

      .cls-10, .cls-12 {
        opacity: .2;
      }

      .cls-77 {
        fill: url(#Gradient_2-24);
      }

      .cls-78 {
        fill: url(#Gradient_13-7);
      }

      .cls-79 {
        fill: url(#Gradient_14-2);
      }

      .cls-80 {
        fill: url(#Gradient_13-8);
      }

      .cls-81 {
        fill: #f47674;
      }

      .cls-82 {
        fill: #fcc691;
      }

      .cls-83 {
        fill: #a03958;
      }

      .cls-84 {
        fill: url(#Gradient_13-3);
      }

      .cls-85 {
        fill: url(#Gradient_6);
      }

      .cls-86 {
        fill: url(#Gradient_10-5);
      }

      .cls-87 {
        fill: #ffa27b;
      }

      .cls-88 {
        fill: url(#Gradient_2-28);
      }

      .cls-89 {
        fill: url(#Gradient_15);
      }

      .cls-90 {
        fill: url(#Gradient_2-34);
      }

      .cls-91 {
        fill: url(#Gradient_16);
      }

      .cls-92 {
        fill: url(#Gradient_18-4);
      }

      .cls-93 {
        fill: url(#Gradient_6-3);
      }

      .cls-94 {
        fill: url(#Gradient_2-7);
      }

      .cls-95 {
        fill: url(#Gradient_6-2);
      }

      .cls-96 {
        fill: url(#Gradient_2-36);
      }

      .cls-12, .cls-14 {
        fill: #bf6a8a;
      }

      .cls-97 {
        fill: url(#Gradient_2-8);
      }

      .cls-98 {
        fill: url(#Gradient_2-6);
      }

      .cls-99 {
        fill: url(#Gradient_2-16);
      }

      .cls-100 {
        fill: url(#Gradient_2-19);
      }

      .cls-101 {
        fill: url(#Gradient_2-23);
      }

      .cls-102 {
        fill: url(#Gradient_5);
      }

      .cls-13 {
        fill: #ffd9d7;
      }

      .cls-103 {
        fill: #fbb092;
      }

      .cls-104 {
        fill: #fffefe;
      }

      .cls-105 {
        fill: #f67f7d;
      }

      .cls-106 {
        fill: url(#Gradient_18);
      }

      .cls-107 {
        fill: url(#Gradient_2-10);
      }

      .cls-108 {
        fill: url(#Gradient_2-20);
      }

      .cls-109 {
        fill: url(#Gradient_10-4);
      }

      .cls-110 {
        fill: #ffaf99;
      }
    </style>
    <linearGradient id="Gradient_2" data-name="Gradient 2" x1="-.35" y1="45.06" x2="36.57" y2="45.06" gradientTransform="translate(4.54 -5.52) rotate(6.37)" gradientUnits="userSpaceOnUse">
      <stop offset="0" stop-color="#ffe9b6"/>
      <stop offset="1" stop-color="#ffc497"/>
    </linearGradient>
    <linearGradient id="Gradient_2-2" data-name="Gradient 2" x1="36.63" y1="52.22" x2="36.63" y2="51.48" xlink:href="#Gradient_2"/>
    <linearGradient id="Gradient_2-3" data-name="Gradient 2" x1="24.79" y1="41.12" x2="24.79" y2="40.72" xlink:href="#Gradient_2"/>
    <linearGradient id="Gradient_2-4" data-name="Gradient 2" x1="30.23" y1="44.06" x2="35.58" y2="44.06" xlink:href="#Gradient_2"/>
    <linearGradient id="Gradient_2-5" data-name="Gradient 2" x1="30.65" y1="40.58" x2="35.16" y2="40.58" xlink:href="#Gradient_2"/>
    <linearGradient id="Gradient_2-6" data-name="Gradient 2" x1="32.97" y1="39.29" x2="36.29" y2="39.29" xlink:href="#Gradient_2"/>
    <linearGradient id="Gradient_2-7" data-name="Gradient 2" x1="32.93" y1="38.92" x2="36.29" y2="38.92" xlink:href="#Gradient_2"/>
    <linearGradient id="Gradient_18" data-name="Gradient 18" x1="32.27" y1="30.43" x2="35.84" y2="30.43" gradientTransform="translate(4.54 -5.52) rotate(6.37)" gradientUnits="userSpaceOnUse">
      <stop offset="0" stop-color="#ffe9b6"/>
      <stop offset=".82" stop-color="#ffb88a"/>
      <stop offset="1" stop-color="#f99b85"/>
    </linearGradient>
    <linearGradient id="Gradient_2-8" data-name="Gradient 2" x1="31.37" y1="22.52" x2="35.7" y2="22.52" xlink:href="#Gradient_2"/>
    <linearGradient id="Gradient_2-9" data-name="Gradient 2" x1="31.31" y1="22.04" x2="35.71" y2="22.04" xlink:href="#Gradient_2"/>
    <linearGradient id="Gradient_10" data-name="Gradient 10" x1="33.04" y1="21.86" x2="33.04" y2="13.93" gradientTransform="translate(4.54 -5.52) rotate(6.37)" gradientUnits="userSpaceOnUse">
      <stop offset="0" stop-color="#a25158"/>
      <stop offset="1" stop-color="#f26b69"/>
    </linearGradient>
    <linearGradient id="Gradient_2-10" data-name="Gradient 2" x1="57.56" y1="28.63" x2="62.84" y2="28.63" xlink:href="#Gradient_2"/>
    <linearGradient id="Gradient_2-11" data-name="Gradient 2" x1="57.96" y1="25.23" x2="62.37" y2="25.23" xlink:href="#Gradient_2"/>
    <linearGradient id="Gradient_2-12" data-name="Gradient 2" x1="60.22" y1="23.98" x2="63.45" y2="23.98" xlink:href="#Gradient_2"/>
    <linearGradient id="Gradient_2-13" data-name="Gradient 2" x1="60.17" y1="23.61" x2="63.45" y2="23.61" xlink:href="#Gradient_2"/>
    <linearGradient id="Gradient_18-2" data-name="Gradient 18" x1="59.37" y1="15.29" x2="63.01" y2="15.29" xlink:href="#Gradient_18"/>
    <linearGradient id="Gradient_2-14" data-name="Gradient 2" x1="58.5" y1="7.55" x2="62.72" y2="7.55" xlink:href="#Gradient_2"/>
    <linearGradient id="Gradient_2-15" data-name="Gradient 2" x1="58.43" y1="7.08" x2="62.72" y2="7.08" xlink:href="#Gradient_2"/>
    <linearGradient id="Gradient_10-2" data-name="Gradient 10" x1="60.05" y1="6.91" x2="60.05" y2="-.87" xlink:href="#Gradient_10"/>
    <linearGradient id="Gradient_2-16" data-name="Gradient 2" x1="8.9" y1="37.28" x2="14.25" y2="37.28" xlink:href="#Gradient_2"/>
    <linearGradient id="Gradient_2-17" data-name="Gradient 2" x1="9.33" y1="33.79" x2="13.88" y2="33.79" xlink:href="#Gradient_2"/>
    <linearGradient id="Gradient_2-18" data-name="Gradient 2" x1="11.68" y1="32.5" x2="15.04" y2="32.5" xlink:href="#Gradient_2"/>
    <linearGradient id="Gradient_2-19" data-name="Gradient 2" x1="11.64" y1="32.13" x2="15.05" y2="32.13" xlink:href="#Gradient_2"/>
    <linearGradient id="Gradient_18-3" data-name="Gradient 18" x1="11.11" y1="23.61" x2="14.59" y2="23.61" xlink:href="#Gradient_18"/>
    <linearGradient id="Gradient_2-20" data-name="Gradient 2" x1="10.2" y1="15.68" x2="14.58" y2="15.68" xlink:href="#Gradient_2"/>
    <linearGradient id="Gradient_2-21" data-name="Gradient 2" x1="10.14" y1="15.2" x2="14.59" y2="15.2" xlink:href="#Gradient_2"/>
    <linearGradient id="Gradient_10-3" data-name="Gradient 10" x1="11.95" y1="15.02" x2="11.95" y2="7.06" xlink:href="#Gradient_10"/>
    <linearGradient id="Gradient_2-22" data-name="Gradient 2" x1="19.56" y1="40.32" x2="24.91" y2="40.32" xlink:href="#Gradient_2"/>
    <linearGradient id="Gradient_2-23" data-name="Gradient 2" x1="19.98" y1="36.84" x2="24.51" y2="36.84" xlink:href="#Gradient_2"/>
    <linearGradient id="Gradient_2-24" data-name="Gradient 2" x1="22.32" y1="35.55" x2="25.66" y2="35.55" xlink:href="#Gradient_2"/>
    <linearGradient id="Gradient_2-25" data-name="Gradient 2" x1="22.28" y1="35.18" x2="25.66" y2="35.18" xlink:href="#Gradient_2"/>
    <linearGradient id="Gradient_18-4" data-name="Gradient 18" x1="21.68" y1="26.68" x2="25.21" y2="26.68" xlink:href="#Gradient_18"/>
    <linearGradient id="Gradient_2-26" data-name="Gradient 2" x1="20.78" y1="18.76" x2="25.13" y2="18.76" xlink:href="#Gradient_2"/>
    <linearGradient id="Gradient_2-27" data-name="Gradient 2" x1="20.72" y1="18.28" x2="25.14" y2="18.28" xlink:href="#Gradient_2"/>
    <linearGradient id="Gradient_10-4" data-name="Gradient 10" x1="22.49" y1="18.1" x2="22.49" y2="10.16" xlink:href="#Gradient_10"/>
    <linearGradient id="Gradient_2-28" data-name="Gradient 2" x1="41.15" y1="39.26" x2="46.47" y2="39.26" xlink:href="#Gradient_2"/>
    <linearGradient id="Gradient_2-29" data-name="Gradient 2" x1="41.56" y1="35.81" x2="46.04" y2="35.81" xlink:href="#Gradient_2"/>
    <linearGradient id="Gradient_2-30" data-name="Gradient 2" x1="43.86" y1="34.53" x2="47.14" y2="34.53" xlink:href="#Gradient_2"/>
    <linearGradient id="Gradient_2-31" data-name="Gradient 2" x1="43.81" y1="34.16" x2="47.15" y2="34.16" xlink:href="#Gradient_2"/>
    <linearGradient id="Gradient_18-5" data-name="Gradient 18" x1="43.1" y1="25.73" x2="46.7" y2="25.73" xlink:href="#Gradient_18"/>
    <linearGradient id="Gradient_2-32" data-name="Gradient 2" x1="42.21" y1="17.89" x2="46.5" y2="17.89" xlink:href="#Gradient_2"/>
    <linearGradient id="Gradient_2-33" data-name="Gradient 2" x1="42.15" y1="17.41" x2="46.5" y2="17.41" xlink:href="#Gradient_2"/>
    <linearGradient id="Gradient_10-5" data-name="Gradient 10" x1="43.84" y1="17.23" x2="43.84" y2="9.35" xlink:href="#Gradient_10"/>
    <linearGradient id="Gradient_2-34" data-name="Gradient 2" x1="49.91" y1="34.03" x2="55.21" y2="34.03" xlink:href="#Gradient_2"/>
    <linearGradient id="Gradient_2-35" data-name="Gradient 2" x1="50.31" y1="30.61" x2="54.76" y2="30.61" xlink:href="#Gradient_2"/>
    <linearGradient id="Gradient_2-36" data-name="Gradient 2" x1="52.6" y1="29.34" x2="55.85" y2="29.34" xlink:href="#Gradient_2"/>
    <linearGradient id="Gradient_2-37" data-name="Gradient 2" x1="52.55" y1="28.97" x2="55.85" y2="28.97" xlink:href="#Gradient_2"/>
    <linearGradient id="Gradient_18-6" data-name="Gradient 18" x1="51.79" y1="20.6" x2="55.41" y2="20.6" xlink:href="#Gradient_18"/>
    <linearGradient id="Gradient_2-38" data-name="Gradient 2" x1="50.91" y1="12.81" x2="55.16" y2="12.81" xlink:href="#Gradient_2"/>
    <linearGradient id="Gradient_2-39" data-name="Gradient 2" x1="50.84" y1="12.34" x2="55.16" y2="12.34" xlink:href="#Gradient_2"/>
    <linearGradient id="Gradient_10-6" data-name="Gradient 10" x1="52.5" y1="12.16" x2="52.5" y2="4.33" xlink:href="#Gradient_10"/>
    <linearGradient id="Gradient_2-40" data-name="Gradient 2" x1="56.96" y1="59.28" x2="56.96" y2="35.57" xlink:href="#Gradient_2"/>
    <linearGradient id="Gradient_2-41" data-name="Gradient 2" x1="44.55" y1="58.03" x2="67.71" y2="58.03" xlink:href="#Gradient_2"/>
    <linearGradient id="Gradient_5" data-name="Gradient 5" x1="67.29" y1="42.1" x2="97.87" y2="42.1" gradientTransform="translate(4.54 -5.52) rotate(6.37)" gradientUnits="userSpaceOnUse">
      <stop offset="0" stop-color="#cf5d5a"/>
      <stop offset="1" stop-color="#ff9577"/>
    </linearGradient>
    <linearGradient id="Gradient_16" data-name="Gradient 16" x1="57.25" y1="40.52" x2="57.25" y2="28.83" gradientTransform="translate(4.54 -5.52) rotate(6.37)" gradientUnits="userSpaceOnUse">
      <stop offset="0" stop-color="#ffe9b6"/>
      <stop offset="1" stop-color="#ffdbbf"/>
    </linearGradient>
    <linearGradient id="Gradient_33" data-name="Gradient 33" x1="56.72" y1="26.03" x2="90.34" y2="26.03" gradientTransform="translate(4.54 -5.52) rotate(6.37)" gradientUnits="userSpaceOnUse">
      <stop offset="0" stop-color="#b44c78"/>
      <stop offset="1" stop-color="#f37449"/>
    </linearGradient>
    <linearGradient id="Gradient_15" data-name="Gradient 15" x1="47.74" y1="23.57" x2="79.6" y2="23.57" gradientTransform="translate(4.54 -5.52) rotate(6.37)" gradientUnits="userSpaceOnUse">
      <stop offset="0" stop-color="#ff9976"/>
      <stop offset="1" stop-color="#f37449"/>
    </linearGradient>
    <linearGradient id="Gradient_13" data-name="Gradient 13" x1="53.44" y1="36.12" x2="53.44" y2="33.84" gradientTransform="translate(4.13 -7.7) rotate(7.63) skewX(1.25)" gradientUnits="userSpaceOnUse">
      <stop offset="0" stop-color="#eb7337"/>
      <stop offset="1" stop-color="#a24b57"/>
    </linearGradient>
    <linearGradient id="Gradient_13-2" data-name="Gradient 13" x1="56.73" y1="36.94" x2="56.73" y2="34.67" xlink:href="#Gradient_13"/>
    <linearGradient id="Gradient_13-3" data-name="Gradient 13" x1="60.24" y1="37.93" x2="60.24" y2="35.66" xlink:href="#Gradient_13"/>
    <linearGradient id="Gradient_14" data-name="Gradient 14" x1="50.64" y1="53.31" x2="50.64" y2="38.11" gradientTransform="translate(4.54 -5.52) rotate(6.37)" gradientUnits="userSpaceOnUse">
      <stop offset="0" stop-color="#ff9e60"/>
      <stop offset="1" stop-color="#bb4c58"/>
    </linearGradient>
    <linearGradient id="Gradient_6" data-name="Gradient 6" x1="50.93" y1="52.63" x2="50.93" y2="38.11" gradientTransform="translate(4.54 -5.52) rotate(6.37)" gradientUnits="userSpaceOnUse">
      <stop offset="0" stop-color="#f87255"/>
      <stop offset="1" stop-color="#b44c58"/>
    </linearGradient>
    <linearGradient id="Gradient_14-2" data-name="Gradient 14" x1="56.61" y1="55.17" x2="56.61" y2="40.06" xlink:href="#Gradient_14"/>
    <linearGradient id="Gradient_6-2" data-name="Gradient 6" x1="56.9" y1="54.5" x2="56.9" y2="40.06" xlink:href="#Gradient_6"/>
    <linearGradient id="Gradient_14-3" data-name="Gradient 14" x1="62.39" y1="56.89" x2="62.39" y2="41.86" xlink:href="#Gradient_14"/>
    <linearGradient id="Gradient_6-3" data-name="Gradient 6" x1="62.68" y1="56.22" x2="62.68" y2="41.86" xlink:href="#Gradient_6"/>
    <linearGradient id="Gradient_13-4" data-name="Gradient 13" x1="94.75" y1="41.26" x2="94.75" y2="28.39" gradientTransform="translate(4.54 -5.52) rotate(6.37)" xlink:href="#Gradient_13"/>
    <linearGradient id="Gradient_13-5" data-name="Gradient 13" x1="89.7" y1="44.41" x2="89.7" y2="31.42" gradientTransform="translate(4.54 -5.52) rotate(6.37)" xlink:href="#Gradient_13"/>
    <linearGradient id="Gradient_13-6" data-name="Gradient 13" x1="84.54" y1="47.81" x2="84.54" y2="34.69" gradientTransform="translate(4.54 -5.52) rotate(6.37)" xlink:href="#Gradient_13"/>
    <linearGradient id="Gradient_13-7" data-name="Gradient 13" x1="79.23" y1="51.42" x2="79.23" y2="38.16" gradientTransform="translate(4.54 -5.52) rotate(6.37)" xlink:href="#Gradient_13"/>
    <linearGradient id="Gradient_13-8" data-name="Gradient 13" x1="74.07" y1="55.1" x2="74.07" y2="41.7" gradientTransform="translate(4.54 -5.52) rotate(6.37)" xlink:href="#Gradient_13"/>
    <linearGradient id="Gradient_2-42" data-name="Gradient 2" x1="67.38" y1="44.25" x2="67.38" y2="43.52" xlink:href="#Gradient_2"/>
  </defs>
  <g class="cls-75">
    <g id="Warstwa_2" data-name="Warstwa 2">
      <g id="objects">
        <g>
          <g>
            <polygon class="cls-32" points=".05 31.55 36.33 14.91 70.15 31.76 35.09 49.65 .05 31.55"/>
            <polygon class="cls-8" points="14.14 36.96 20.18 37.09 19.64 38.67 24.39 41.16 29.97 40.97 29.85 43.57 34.58 46.05 44.04 45.08 70.15 31.76 64.96 29.17 61.01 30.31 53.63 27.6 50.39 28.72 45.66 26.66 16.4 33.64 14.14 36.96"/>
            <polygon class="cls-64" points=".05 31.55 0 32.45 35.02 51.01 35.09 49.65 .05 31.55"/>
            <polygon class="cls-105" points="70.15 31.76 70.12 32.59 35.02 51.01 35.09 49.65 70.15 31.76"/>
            <g>
              <path class="cls-20" d="m35.25,48.69c-.22-.23-.91.9-.37,1.59.55.68.84-1.08.37-1.59Z"/>
              <path class="cls-9" d="m34.74,49.26c-.16.73.55.81.7.21.16-.6-.3-.82-.36-.77-.06.05-.3.37-.34.57Z"/>
              <path class="cls-51" d="m34.96,50.35c-.23-.37.45-.48.52-.61.07-.13-.18.99-.52.61Z"/>
            </g>
            <g>
              <path class="cls-20" d="m24.67,37.16c-.12-.12-.49.48-.2.84.29.37.45-.57.2-.84Z"/>
              <path class="cls-9" d="m24.39,37.47c-.09.39.29.43.38.11.08-.32-.16-.44-.19-.41-.03.03-.16.2-.18.3Z"/>
              <path class="cls-22" d="m24.51,38.05c-.12-.2.24-.26.28-.32.04-.07-.1.53-.28.32Z"/>
            </g>
            <path class="cls-103" d="m20.29,43.2l.11-1.14s5.52,2.45,7.47,2.99c1.95.54,1.49.29,2.2.29.71,0,7.76,1.62,8.73,1.77.96.15,1.99-.25,1.99-.25l-.05,1.15-.6.31s.39-.86.43-1.06c.04-.2-1.21.06-1.21.06,0,0-2.53-.46-5.3-1.07-2.77-.62-4.83-.66-5.18-.76-.35-.09-7.54-2.88-7.79-2.95-.25-.08-.8.65-.8.65Z"/>
            <path class="cls-8" d="m38.02,47.08s1.16.2,1.33.25c.17.05.79-.18,1.03-.14s-.03.61-.03.61c0,0,.39-.27.4-.48s.02-.46.02-.46c0,0-1.09.34-1.46.28-.38-.06-2.72-.48-2.72-.48,0,0,1.25.39,1.42.42Z"/>
            <path class="cls-8" d="m20.3,43.11s.59-.64.79-.56c.2.07,1.97.74,1.97.74,0,0-1.87-.88-2.3-1.08-.43-.2-.45.28-.49.43-.03.15.03.46.03.46Z"/>
            <path class="cls-13" d="m6.7,28.5s9.93,4.44,10.28,4.68c.35.24,13.08-6.36,13.08-6.36l-9.57-4.54-13.79,6.21Z"/>
            <path class="cls-13" d="m27.49,29.03s9.79,4.4,10.14,4.64c.35.24,12.82-6.31,12.82-6.31l-9.44-4.5-13.52,6.17Z"/>
            <path class="cls-13" d="m3.06,33.1s2.45-1.19,2.69-1.12c.24.07,4.92,2.57,4.92,2.57l-2.46,1.06-5.15-2.51Z"/>
            <g>
              <polygon class="cls-65" points="29.85 43.57 30.13 37.79 34.86 40.07 34.58 46.05 29.85 43.57"/>
              <polygon class="cls-105" points="34.86 40.07 38.57 38.3 38.31 44.03 34.58 46.05 34.86 40.07"/>
              <polygon class="cls-104" points="30.13 37.79 34.02 36.22 38.57 38.3 34.86 40.07 30.13 37.79"/>
              <polygon class="cls-37" points="30.58 37.85 30.62 37.11 34.89 39.06 34.86 39.82 30.58 37.85"/>
              <polygon class="cls-105" points="34.89 39.06 38.32 37.45 38.29 38.17 34.86 39.82 34.89 39.06"/>
              <polygon class="cls-104" points="30.62 37.11 34.28 35.62 38.32 37.45 34.89 39.06 30.62 37.11"/>
              <path class="cls-98" d="m32.96,37.12c-.04.79,3.24,1.22,3.27.53.04-.93-3.24-1.15-3.27-.53Z"/>
              <path class="cls-94" d="m32.96,37.15s0-.52.03-.73c.04-.2,3.3.47,3.3.47,0,0,.03.14-.06.75l-3.27-.5Z"/>
              <path class="cls-104" d="m32.99,36.42c-.04.79,3.24,1.22,3.27.53.04-.93-3.24-1.16-3.27-.53Z"/>
              <path class="cls-106" d="m33.39,36.55l.77-16.5s1.27-.61,2.46.45l-.76,16.47s-1.35.51-2.47-.42Z"/>
              <path class="cls-104" d="m34.18,19.49c-.04.85,2.43.98,2.45.47.04-.95-2.42-1.1-2.45-.47Z"/>
              <path class="cls-97" d="m33.23,20.24c-.05,1.02,4.23,1.62,4.27.72.05-1.2-4.23-1.53-4.27-.72Z"/>
              <path class="cls-36" d="m33.24,20.28s0-.68.04-.94c.05-.26,4.31.64,4.31.64,0,0,.04.18-.08.98l-4.27-.68Z"/>
              <path class="cls-104" d="m33.28,19.34c-.05,1.02,4.23,1.62,4.27.72.05-1.2-4.23-1.53-4.27-.72Z"/>
              <path class="cls-4" d="m34.09,21.49c.23,1.47,2.34,3.02,2.34,3.02l.14-3.11s-1.49.09-2.46-.38l-.02.47Z"/>
              <path class="cls-55" d="m38.24,12.43c0-.2-1.76,2-1.99,2.25-.23.25,0-.48-.55-.76-.57.12-.41.91-.61.6-.2-.31-1.75-2.99-1.76-2.79,0,.2-.17,3.18.13,3.67.3.49,1.36.67,1.36.67,0,0-2.24,1.71-1.03,3.24.41.51,1.64.6,1.64.6,0,0,1.22.25,1.67-.14,1.34-1.17-.71-3.49-.71-3.49,0,0,1.06.12,1.4-.28.34-.39.45-3.38.46-3.58Z"/>
              <path class="cls-14" d="m33.48,18.74c.7-1.74,3.32.84,3.45,1,.12.16-.89.42-2.2.06-1.31-.37-1.25-1.05-1.25-1.05Z"/>
              <path class="cls-14" d="m36.37,16.28s1.36-1.28,1.52-1.51c.16-.23.14.72-.04,1.09-.18.37-.73.41-1.48.42Z"/>
              <path class="cls-14" d="m34.81,16.06s-1.27-1.66-1.41-1.87c-.13-.21-.15.98.15,1.33.3.35,1.26.54,1.26.54Z"/>
              <path class="cls-14" d="m35.2,14.68c-.07.34.3.64.41.73.11.1-.3-.24-.26-1,0-.15-.07-.17-.15.27Z"/>
              <path class="cls-59" d="m35.7,13.92c-.17.06-.57.33-.27,1.11.3.78.68-.37.62-.71-.06-.34-.29-.43-.35-.41Z"/>
              <path class="cls-59" d="m36.25,14.68c-.19.46-.4,1.44-.42,1.53-.02.09,1.75-.78,2.06-1.43.31-.65.21-2.1.22-2.19,0-.09-1.86,2.09-1.86,2.09Z"/>
              <path class="cls-59" d="m35.24,16.12c-.15,0-1.46-1.3-1.72-2.06-.26-.76-.17-1.93-.1-2.04.07-.11,1.77,2.48,1.78,2.66s.04,1.44.04,1.44Z"/>
              <path class="cls-59" d="m35.59,16.3c-.67-.21-.84,1.22-.11,2,.73.78,1.52.86,1.63.88.11.02.15-2.34-1.52-2.88Z"/>
              <path class="cls-10" d="m35.2,37.07c-.92.16-1.21-13.27.22-15,.99-1.19,1.13.07.97,3.54-.16,3.48-.52,11.36-.52,11.36,0,0-.41.05-.66.09Z"/>
              <path class="cls-3" d="m34.45,37.92c-.51-.11,1.3-.61,1.6-.73.3-.13.16.4-.03.7-.19.29-1.57.04-1.57.04Z"/>
              <path class="cls-7" d="m30.59,43.23c0-.12.1-4.27.1-4.27,0,0,3.36,1.47,3.47,1.63.1.15-.2,4.45-.2,4.45,0,0-3.36-1.65-3.37-1.81Z"/>
              <path class="cls-82" d="m31.03,43.07c-.01-.11-.04-3.97-.04-3.97,0,0,3.08,1.4,3.17,1.54.09.15-.17,4.03-.17,4.03,0,0-2.94-1.4-2.96-1.61Z"/>
              <path class="cls-104" d="m30.59,43.23s.36-.17.43-.16c.07,0,2.97,1.5,2.97,1.5l-.03.47s-3.11-1.53-3.37-1.81Z"/>
              <path class="cls-7" d="m37.97,43.35c.02-.12.28-4.25.28-4.25,0,0-2.84,1.26-2.94,1.41-.1.15-.21,4.45-.21,4.45,0,0,2.85-1.45,2.88-1.61Z"/>
              <path class="cls-81" d="m37.63,43.17c.02-.11.36-3.94.36-3.94,0,0-2.6,1.21-2.69,1.35-.09.14-.2,4.03-.2,4.03,0,0,2.49-1.22,2.53-1.43Z"/>
              <path class="cls-58" d="m37.97,43.35s-.28-.19-.34-.18c-.06,0-2.53,1.32-2.53,1.32v.47s2.63-1.35,2.86-1.61Z"/>
            </g>
            <g>
              <polygon class="cls-107" points="58.77 31.22 58.99 25.55 63.61 27.82 63.4 33.68 58.77 31.22"/>
              <polygon class="cls-105" points="63.61 27.82 67.21 26.1 67.01 31.72 63.4 33.68 63.61 27.82"/>
              <polygon class="cls-104" points="58.99 25.55 62.76 24.03 67.21 26.1 63.61 27.82 58.99 25.55"/>
              <polygon class="cls-29" points="59.43 25.62 59.46 24.89 63.63 26.83 63.61 27.57 59.43 25.62"/>
              <polygon class="cls-105" points="63.63 26.83 66.96 25.26 66.93 25.97 63.61 27.57 63.63 26.83"/>
              <polygon class="cls-104" points="59.46 24.89 63.01 23.45 66.96 25.26 63.63 26.83 59.46 24.89"/>
              <path class="cls-70" d="m61.74,24.91c-.03.77,3.17,1.22,3.19.54.03-.91-3.17-1.15-3.19-.54Z"/>
              <path class="cls-52" d="m61.74,24.94s-.01-.51.02-.71c.03-.2,3.22.48,3.22.48,0,0,.03.13-.05.74l-3.19-.5Z"/>
              <path class="cls-104" d="m61.76,24.23c-.03.77,3.16,1.22,3.19.54.03-.91-3.17-1.15-3.19-.54Z"/>
              <path class="cls-1" d="m62.15,24.36l.6-16.17s1.23-.6,2.39.46l-.59,16.14s-1.31.49-2.41-.43Z"/>
              <path class="cls-104" d="m62.77,7.63c-.03.83,2.37.98,2.39.47.03-.93-2.37-1.09-2.39-.47Z"/>
              <path class="cls-15" d="m61.85,8.36c-.04,1,4.13,1.61,4.16.72.04-1.18-4.13-1.52-4.16-.72Z"/>
              <path class="cls-53" d="m61.85,8.4s-.01-.67.03-.93c.05-.26,4.2.65,4.2.65,0,0,.04.17-.07.96l-4.16-.68Z"/>
              <path class="cls-104" d="m61.88,7.48c-.04,1,4.13,1.61,4.16.72.04-1.18-4.13-1.52-4.16-.72Z"/>
              <path class="cls-4" d="m62.69,9.59c.24,1.44,2.3,2.97,2.3,2.97l.11-3.05s-1.45.08-2.4-.39l-.02.46Z"/>
              <path class="cls-63" d="m66.65.73c0-.2-1.7,1.95-1.92,2.2-.22.24,0-.47-.54-.75-.56.11-.39.89-.59.58-.2-.31-1.73-2.94-1.74-2.74,0,.2-.14,3.12.16,3.6.3.48,1.33.67,1.33.67,0,0-2.17,1.66-.97,3.18.4.5,1.6.6,1.6.6,0,0,1.19.25,1.62-.13,1.29-1.15-.73-3.42-.73-3.42,0,0,1.04.12,1.36-.27.33-.39.41-3.31.42-3.5Z"/>
              <path class="cls-14" d="m62.08,6.9c.66-1.7,3.24.84,3.36.99.12.16-.86.41-2.14.04-1.28-.37-1.23-1.04-1.23-1.04Z"/>
              <path class="cls-14" d="m64.87,4.5s1.31-1.25,1.46-1.47c.15-.22.14.7-.03,1.07-.17.37-.71.4-1.44.4Z"/>
              <path class="cls-14" d="m63.35,4.27s-1.25-1.63-1.39-1.84c-.13-.21-.14.96.15,1.3.29.34,1.23.54,1.23.54Z"/>
              <path class="cls-14" d="m63.72,2.92c-.06.34.3.63.4.72s-.3-.24-.26-.98c0-.15-.07-.16-.14.26Z"/>
              <path class="cls-59" d="m64.19,2.17c-.16.05-.55.32-.26,1.09.3.77.66-.36.6-.69s-.29-.42-.34-.4Z"/>
              <path class="cls-59" d="m64.73,2.92c-.18.45-.38,1.41-.4,1.5-.02.09,1.7-.76,2-1.39.3-.64.19-2.06.19-2.14,0-.08-1.79,2.04-1.79,2.04Z"/>
              <path class="cls-59" d="m63.77,4.33c-.14,0-1.43-1.28-1.69-2.03-.26-.75-.18-1.89-.12-2,.07-.1,1.75,2.44,1.75,2.61,0,.17.05,1.41.05,1.41Z"/>
              <path class="cls-59" d="m64.1,4.51c-.66-.21-.8,1.19-.09,1.96.72.77,1.49.85,1.6.87.11.02.13-2.3-1.51-2.83Z"/>
              <path class="cls-10" d="m63.91,24.88c-.9.15-1.3-13.02.07-14.7.95-1.17,1.1.07.97,3.48-.12,3.41-.4,11.14-.4,11.14,0,0-.4.05-.64.09Z"/>
              <path class="cls-3" d="m63.2,25.71c-.49-.11,1.26-.59,1.55-.71.29-.12.15.4-.02.68-.18.29-1.53.03-1.53.03Z"/>
              <path class="cls-7" d="m59.49,30.89c-.01-.11.06-4.18.06-4.18,0,0,3.28,1.46,3.39,1.61s-.15,4.36-.15,4.36c0,0-3.28-1.64-3.3-1.79Z"/>
              <path class="cls-82" d="m59.91,30.74c-.01-.11-.07-3.89-.07-3.89,0,0,3,1.38,3.1,1.53.09.14-.13,3.95-.13,3.95,0,0-2.87-1.38-2.9-1.59Z"/>
              <path class="cls-104" d="m59.49,30.89s.35-.16.42-.15c.07,0,2.9,1.48,2.9,1.48l-.03.46s-3.04-1.52-3.3-1.79Z"/>
              <path class="cls-7" d="m66.67,31.05c.02-.11.23-4.17.23-4.17,0,0-2.75,1.23-2.85,1.37-.09.14-.17,4.36-.17,4.36,0,0,2.76-1.41,2.78-1.57Z"/>
              <path class="cls-81" d="m66.34,30.87c.02-.11.31-3.86.31-3.86,0,0-2.52,1.17-2.61,1.31-.09.14-.16,3.95-.16,3.95,0,0,2.42-1.19,2.45-1.39Z"/>
              <path class="cls-58" d="m66.67,31.05s-.27-.18-.33-.18c-.05,0-2.45,1.28-2.45,1.28v.46s2.55-1.31,2.78-1.57Z"/>
            </g>
            <g>
              <polygon class="cls-99" points="9.36 34.46 9.68 28.66 14.46 30.97 14.14 36.96 9.36 34.46"/>
              <polygon class="cls-105" points="14.46 30.97 18.24 29.21 17.94 34.95 14.14 36.96 14.46 30.97"/>
              <polygon class="cls-104" points="9.68 28.66 13.64 27.1 18.24 29.21 14.46 30.97 9.68 28.66"/>
              <polygon class="cls-67" points="10.14 28.73 10.18 27.98 14.5 29.96 14.46 30.71 10.14 28.73"/>
              <polygon class="cls-105" points="14.5 29.96 17.99 28.35 17.95 29.08 14.46 30.71 14.5 29.96"/>
              <polygon class="cls-104" points="10.18 27.98 13.91 26.5 17.99 28.35 14.5 29.96 10.18 27.98"/>
              <path class="cls-47" d="m12.56,28c-.04.79,3.28,1.24,3.32.54.05-.93-3.28-1.17-3.32-.54Z"/>
              <path class="cls-100" d="m12.56,28.03s0-.53.04-.73c.04-.2,3.34.49,3.34.49,0,0,.03.14-.07.76l-3.31-.51Z"/>
              <path class="cls-104" d="m12.59,27.3c-.04.79,3.28,1.24,3.31.54.05-.93-3.28-1.17-3.31-.54Z"/>
              <path class="cls-24" d="m12.99,27.44l.89-16.53s1.29-.61,2.49.46l-.88,16.5s-1.37.51-2.5-.43Z"/>
              <path class="cls-104" d="m13.91,10.34c-.05.85,2.46.99,2.49.48.05-.95-2.45-1.11-2.49-.48Z"/>
              <path class="cls-108" d="m12.95,11.09c-.06,1.03,4.28,1.64,4.33.74.06-1.21-4.28-1.55-4.33-.74Z"/>
              <path class="cls-19" d="m12.95,11.13s0-.68.05-.95c.05-.26,4.36.66,4.36.66,0,0,.04.18-.08.98l-4.33-.69Z"/>
              <path class="cls-104" d="m13,10.18c-.06,1.03,4.28,1.64,4.32.74.06-1.2-4.28-1.55-4.32-.74Z"/>
              <path class="cls-4" d="m13.81,12.34c.22,1.47,2.35,3.04,2.35,3.04l.17-3.12s-1.51.08-2.49-.39l-.03.47Z"/>
              <path class="cls-43" d="m18.07,3.28c.01-.2-1.8,2-2.04,2.25-.23.25,0-.48-.55-.77-.58.12-.42.91-.63.6s-1.76-3-1.77-2.8c-.01.2-.2,3.19.11,3.68.3.49,1.38.68,1.38.68,0,0-2.28,1.7-1.06,3.25.41.52,1.65.61,1.65.61,0,0,1.24.26,1.69-.13,1.36-1.17-.7-3.5-.7-3.5,0,0,1.08.12,1.43-.27.35-.39.48-3.38.49-3.58Z"/>
              <path class="cls-14" d="m13.21,9.59c.72-1.74,3.36.85,3.49,1.01.12.16-.9.42-2.23.05-1.33-.37-1.26-1.06-1.26-1.06Z"/>
              <path class="cls-14" d="m16.15,7.13s1.39-1.28,1.55-1.5c.16-.23.13.72-.05,1.09-.18.37-.75.41-1.5.41Z"/>
              <path class="cls-14" d="m14.57,6.9s-1.28-1.67-1.41-1.88-.16.98.14,1.33c.3.35,1.27.55,1.27.55Z"/>
              <path class="cls-14" d="m14.98,5.52c-.07.34.3.64.41.74.11.1-.31-.24-.25-1,.01-.15-.07-.17-.15.27Z"/>
              <path class="cls-59" d="m15.48,4.76c-.17.06-.58.33-.28,1.11.3.79.69-.36.64-.7-.06-.34-.29-.43-.35-.41Z"/>
              <path class="cls-59" d="m16.04,5.52c-.2.46-.41,1.44-.44,1.53-.02.09,1.78-.77,2.1-1.42.32-.65.23-2.1.24-2.19,0-.09-1.9,2.09-1.9,2.09Z"/>
              <path class="cls-59" d="m15.01,6.97c-.15,0-1.47-1.31-1.73-2.07-.26-.76-.16-1.93-.09-2.04.07-.11,1.78,2.5,1.78,2.67s.03,1.44.03,1.44Z"/>
              <path class="cls-59" d="m15.36,7.15c-.68-.22-.86,1.22-.12,2,.73.79,1.54.86,1.65.88.11.02.17-2.35-1.53-2.89Z"/>
              <path class="cls-10" d="m14.82,27.96c-.94.16-1.14-13.31.32-15.03,1.01-1.19,1.14.07.96,3.55-.19,3.49-.6,11.39-.6,11.39,0,0-.41.05-.67.09Z"/>
              <path class="cls-3" d="m14.07,28.82c-.51-.12,1.32-.6,1.63-.73.31-.12.15.4-.04.7-.19.29-1.59.03-1.59.03Z"/>
              <path class="cls-7" d="m10.12,34.12c0-.12.13-4.28.13-4.28,0,0,3.4,1.49,3.5,1.64.1.15-.23,4.46-.23,4.46,0,0-3.39-1.67-3.4-1.83Z"/>
              <path class="cls-82" d="m10.56,33.96c-.01-.11-.01-3.98-.01-3.98,0,0,3.11,1.41,3.2,1.56.1.15-.2,4.04-.2,4.04,0,0-2.97-1.41-2.99-1.62Z"/>
              <path class="cls-104" d="m10.12,34.12s.37-.16.44-.16c.07,0,3,1.51,3,1.51l-.04.47s-3.14-1.55-3.4-1.83Z"/>
              <path class="cls-7" d="m17.59,34.27c.02-.12.31-4.26.31-4.26,0,0-2.89,1.26-2.99,1.4-.1.15-.25,4.46-.25,4.46,0,0,2.9-1.45,2.93-1.6Z"/>
              <path class="cls-81" d="m17.25,34.09c.02-.11.39-3.95.39-3.95,0,0-2.65,1.2-2.74,1.34-.09.14-.23,4.03-.23,4.03,0,0,2.54-1.22,2.57-1.42Z"/>
              <path class="cls-58" d="m17.59,34.27s-.28-.19-.34-.18c-.06,0-2.57,1.32-2.57,1.32l-.02.47s2.69-1.34,2.93-1.6Z"/>
            </g>
            <g>
              <polygon class="cls-30" points="19.64 38.67 19.94 32.88 24.69 35.18 24.39 41.16 19.64 38.67"/>
              <polygon class="cls-105" points="24.69 35.18 28.44 33.41 28.16 39.15 24.39 41.16 24.69 35.18"/>
              <polygon class="cls-104" points="19.94 32.88 23.86 31.32 28.44 33.41 24.69 35.18 19.94 32.88"/>
              <polygon class="cls-101" points="20.4 32.94 20.43 32.2 24.73 34.16 24.69 34.92 20.4 32.94"/>
              <polygon class="cls-105" points="24.73 34.16 28.19 32.55 28.15 33.28 24.69 34.92 24.73 34.16"/>
              <polygon class="cls-104" points="20.43 32.2 24.13 30.72 28.19 32.55 24.73 34.16 20.43 32.2"/>
              <path class="cls-77" d="m22.79,32.22c-.04.79,3.26,1.23,3.29.54.05-.93-3.26-1.16-3.29-.54Z"/>
              <path class="cls-34" d="m22.79,32.25s0-.52.03-.73,3.32.48,3.32.48c0,0,.03.14-.06.76l-3.29-.51Z"/>
              <path class="cls-104" d="m22.82,31.52c-.04.79,3.26,1.23,3.29.54.05-.93-3.26-1.16-3.29-.54Z"/>
              <path class="cls-92" d="m23.22,31.65l.83-16.51s1.28-.61,2.47.46l-.82,16.48s-1.36.51-2.49-.43Z"/>
              <path class="cls-104" d="m24.08,14.57c-.04.85,2.44.99,2.47.47.05-.95-2.44-1.11-2.47-.47Z"/>
              <path class="cls-50" d="m23.12,15.32c-.05,1.02,4.25,1.63,4.3.73.06-1.2-4.26-1.54-4.3-.73Z"/>
              <path class="cls-62" d="m23.12,15.37s0-.68.04-.95c.05-.26,4.33.65,4.33.65,0,0,.04.18-.08.98l-4.3-.69Z"/>
              <path class="cls-104" d="m23.17,14.42c-.05,1.02,4.25,1.63,4.3.73.06-1.2-4.25-1.54-4.3-.73Z"/>
              <path class="cls-4" d="m23.98,16.57c.22,1.47,2.34,3.03,2.34,3.03l.15-3.12s-1.5.09-2.48-.39l-.02.47Z"/>
              <path class="cls-109" d="m28.19,7.52c0-.2-1.78,2-2.01,2.25-.23.25,0-.48-.55-.77-.58.12-.42.91-.62.6s-1.76-3-1.77-2.8c-.01.2-.18,3.18.12,3.67.3.49,1.37.68,1.37.68,0,0-2.26,1.7-1.04,3.25.41.51,1.64.61,1.64.61,0,0,1.23.26,1.68-.14,1.35-1.17-.71-3.49-.71-3.49,0,0,1.07.12,1.41-.28.34-.39.47-3.38.48-3.58Z"/>
              <path class="cls-14" d="m23.38,13.83c.71-1.74,3.34.85,3.47,1,.12.16-.89.42-2.21.05-1.32-.37-1.26-1.06-1.26-1.06Z"/>
              <path class="cls-14" d="m26.29,11.37s1.37-1.28,1.53-1.5c.16-.23.14.72-.04,1.09-.18.37-.74.41-1.49.41Z"/>
              <path class="cls-14" d="m24.72,11.14s-1.28-1.66-1.41-1.88-.16.98.14,1.33c.3.35,1.27.55,1.27.55Z"/>
              <path class="cls-14" d="m25.12,9.76c-.07.34.3.64.41.73.11.1-.3-.24-.26-1,0-.15-.07-.17-.15.27Z"/>
              <path class="cls-59" d="m25.62,9c-.17.06-.58.33-.28,1.11.3.79.69-.37.63-.7-.06-.34-.29-.43-.35-.41Z"/>
              <path class="cls-59" d="m26.17,9.76c-.19.46-.41,1.44-.43,1.53-.02.09,1.76-.78,2.08-1.43.32-.65.22-2.1.23-2.19s-1.88,2.09-1.88,2.09Z"/>
              <path class="cls-59" d="m25.16,11.21c-.15,0-1.46-1.31-1.72-2.07-.26-.76-.16-1.93-.09-2.04.07-.11,1.78,2.49,1.78,2.66,0,.17.03,1.44.03,1.44Z"/>
              <path class="cls-59" d="m25.5,11.38c-.68-.22-.85,1.22-.12,2,.73.78,1.53.86,1.64.88.11.02.16-2.35-1.53-2.88Z"/>
              <path class="cls-10" d="m25.04,32.17c-.93.16-1.18-13.28.27-15.01,1-1.19,1.13.07.96,3.54-.17,3.48-.56,11.37-.56,11.37,0,0-.41.05-.67.09Z"/>
              <path class="cls-3" d="m24.29,33.03c-.51-.12,1.31-.61,1.61-.73.31-.13.16.4-.03.7-.19.29-1.58.03-1.58.03Z"/>
              <path class="cls-7" d="m20.39,38.32c0-.12.11-4.27.11-4.27,0,0,3.38,1.48,3.48,1.64s-.21,4.46-.21,4.46c0,0-3.37-1.66-3.39-1.82Z"/>
              <path class="cls-82" d="m20.82,38.17c-.01-.11-.02-3.97-.02-3.97,0,0,3.09,1.4,3.19,1.55.09.15-.19,4.03-.19,4.03,0,0-2.95-1.4-2.98-1.61Z"/>
              <path class="cls-104" d="m20.39,38.32s.36-.17.44-.16c.07,0,2.98,1.51,2.98,1.51l-.03.47s-3.13-1.54-3.39-1.82Z"/>
              <path class="cls-7" d="m27.81,38.47c.02-.12.29-4.25.29-4.25,0,0-2.86,1.26-2.96,1.41-.1.15-.23,4.45-.23,4.45,0,0,2.88-1.45,2.9-1.61Z"/>
              <path class="cls-81" d="m27.47,38.29c.02-.11.38-3.95.38-3.95,0,0-2.62,1.2-2.72,1.34s-.21,4.03-.21,4.03c0,0,2.52-1.22,2.55-1.43Z"/>
              <path class="cls-58" d="m27.81,38.47s-.28-.19-.34-.18c-.06,0-2.55,1.32-2.55,1.32v.47s2.65-1.34,2.89-1.61Z"/>
              <path class="cls-105" d="m23.42,27.67s.92-1.29,1.57-1.8c.65-.51,1.01.14,1.01.14l.02-.35s-.58-.3-1.16.17c-.58.47-.92,1.09-1.18,1.29-.25.2-.24-.03-.24-.03l-.03.59Z"/>
              <path class="cls-38" d="m24.02,26.89s.37-.15.59-.41c.22-.26.38-.6.38-.6,0,0-.68.44-.97,1.01Z"/>
              <path class="cls-38" d="m25.13,25.78s.09-.1.29-.13c.21-.03.28.07.28.07,0,0-.26-.11-.58.05Z"/>
            </g>
            <g>
              <polygon class="cls-88" points="41.25 39.99 41.51 34.25 46.2 36.53 45.94 42.47 41.25 39.99"/>
              <polygon class="cls-105" points="46.2 36.53 49.87 34.77 49.63 40.46 45.94 42.47 46.2 36.53"/>
              <polygon class="cls-104" points="41.51 34.25 45.36 32.7 49.87 34.77 46.2 36.53 41.51 34.25"/>
              <polygon class="cls-73" points="41.96 34.31 41.99 33.58 46.23 35.52 46.2 36.27 41.96 34.31"/>
              <polygon class="cls-105" points="46.23 35.52 49.62 33.92 49.59 34.64 46.2 36.27 46.23 35.52"/>
              <polygon class="cls-104" points="41.99 33.58 45.61 32.1 49.62 33.92 46.23 35.52 41.99 33.58"/>
              <path class="cls-26" d="m44.31,33.59c-.04.78,3.21,1.22,3.24.53.04-.92-3.21-1.15-3.24-.53Z"/>
              <path class="cls-25" d="m44.31,33.62s0-.52.03-.72c.04-.2,3.27.47,3.27.47,0,0,.03.13-.06.75l-3.24-.5Z"/>
              <path class="cls-104" d="m44.34,32.9c-.04.78,3.21,1.22,3.24.53.04-.92-3.21-1.15-3.24-.53Z"/>
              <path class="cls-45" d="m44.73,33.03l.7-16.38s1.25-.61,2.43.45l-.69,16.35s-1.33.51-2.45-.43Z"/>
              <path class="cls-104" d="m45.46,16.08c-.04.84,2.41.98,2.43.47.04-.94-2.4-1.1-2.43-.47Z"/>
              <path class="cls-41" d="m44.52,16.83c-.05,1.02,4.19,1.61,4.23.72.05-1.19-4.19-1.52-4.23-.72Z"/>
              <path class="cls-49" d="m44.52,16.87s-.01-.68.04-.94c.05-.26,4.27.64,4.27.64,0,0,.04.17-.07.97l-4.23-.68Z"/>
              <path class="cls-104" d="m44.56,15.93c-.05,1.02,4.19,1.61,4.23.72.05-1.19-4.19-1.52-4.23-.72Z"/>
              <path class="cls-4" d="m45.37,18.07c.23,1.46,2.33,3,2.33,3l.13-3.09s-1.47.09-2.44-.38l-.02.47Z"/>
              <path class="cls-86" d="m49.45,9.08c0-.2-1.74,1.98-1.97,2.23-.23.25,0-.48-.55-.76-.57.12-.4.9-.61.59-.2-.31-1.75-2.97-1.76-2.77,0,.2-.16,3.16.14,3.64.3.48,1.35.67,1.35.67,0,0-2.21,1.69-1,3.22.4.51,1.62.6,1.62.6,0,0,1.21.25,1.65-.14,1.32-1.16-.72-3.47-.72-3.47,0,0,1.05.12,1.39-.27.33-.39.44-3.35.45-3.55Z"/>
              <path class="cls-14" d="m44.76,15.34c.68-1.72,3.29.84,3.42.99.12.16-.88.42-2.17.05-1.3-.37-1.24-1.05-1.24-1.05Z"/>
              <path class="cls-14" d="m47.61,12.91s1.34-1.27,1.5-1.49c.15-.22.14.71-.03,1.08-.17.37-.72.4-1.46.41Z"/>
              <path class="cls-14" d="m46.06,12.68s-1.27-1.65-1.4-1.86-.15.97.15,1.32c.3.34,1.25.54,1.25.54Z"/>
              <path class="cls-14" d="m46.45,11.31c-.07.34.3.63.41.73s-.3-.24-.26-.99c0-.15-.07-.17-.15.26Z"/>
              <path class="cls-59" d="m46.93,10.55c-.17.06-.56.33-.27,1.11.3.78.67-.36.61-.7-.06-.34-.29-.42-.35-.41Z"/>
              <path class="cls-59" d="m47.48,11.31c-.19.45-.39,1.43-.41,1.52s1.73-.77,2.04-1.42c.31-.64.2-2.09.21-2.17,0-.09-1.84,2.07-1.84,2.07Z"/>
              <path class="cls-59" d="m46.49,12.74c-.14,0-1.45-1.29-1.71-2.05-.26-.75-.17-1.92-.11-2.02s1.77,2.47,1.77,2.64.04,1.43.04,1.43Z"/>
              <path class="cls-59" d="m46.83,12.92c-.67-.21-.82,1.21-.1,1.99.72.78,1.51.85,1.62.87.11.02.14-2.33-1.52-2.86Z"/>
              <path class="cls-10" d="m46.52,33.55c-.91.16-1.25-13.18.16-14.89.98-1.18,1.11.07.97,3.52-.15,3.46-.48,11.28-.48,11.28,0,0-.4.05-.65.09Z"/>
              <path class="cls-3" d="m45.79,34.39c-.5-.11,1.28-.6,1.58-.73.3-.12.16.4-.03.69-.18.29-1.55.03-1.55.03Z"/>
              <path class="cls-7" d="m41.99,39.65c-.01-.12.08-4.24.08-4.24,0,0,3.33,1.47,3.44,1.62.1.15-.18,4.42-.18,4.42,0,0-3.33-1.65-3.34-1.8Z"/>
              <path class="cls-82" d="m42.42,39.5c-.01-.11-.05-3.94-.05-3.94,0,0,3.05,1.39,3.14,1.54s-.15,4-.15,4c0,0-2.91-1.39-2.94-1.6Z"/>
              <path class="cls-104" d="m41.99,39.65s.36-.16.43-.16c.07,0,2.94,1.49,2.94,1.49l-.03.47s-3.09-1.53-3.34-1.8Z"/>
              <path class="cls-7" d="m49.29,39.79c.02-.12.26-4.22.26-4.22,0,0-2.81,1.25-2.9,1.4s-.2,4.42-.2,4.42c0,0,2.82-1.44,2.84-1.6Z"/>
              <path class="cls-81" d="m48.96,39.61c.02-.11.34-3.92.34-3.92,0,0-2.57,1.19-2.66,1.33-.09.14-.18,4-.18,4,0,0,2.46-1.21,2.5-1.42Z"/>
              <path class="cls-58" d="m49.29,39.79s-.27-.18-.33-.18c-.06,0-2.5,1.31-2.5,1.31v.47s2.6-1.33,2.83-1.6Z"/>
            </g>
            <g>
              <polygon class="cls-90" points="50.56 35.75 50.79 30.05 55.45 32.32 55.21 38.22 50.56 35.75"/>
              <polygon class="cls-105" points="55.45 32.32 59.08 30.58 58.86 36.24 55.21 38.22 55.45 32.32"/>
              <polygon class="cls-104" points="50.79 30.05 54.6 28.51 59.08 30.58 55.45 32.32 50.79 30.05"/>
              <polygon class="cls-48" points="51.24 30.11 51.27 29.38 55.47 31.32 55.44 32.07 51.24 30.11"/>
              <polygon class="cls-105" points="55.47 31.32 58.83 29.74 58.8 30.45 55.44 32.07 55.47 31.32"/>
              <polygon class="cls-104" points="51.27 29.38 54.85 27.92 58.83 29.74 55.47 31.32 51.27 29.38"/>
              <path class="cls-96" d="m53.56,29.4c-.03.78,3.19,1.22,3.21.53.04-.91-3.19-1.15-3.21-.53Z"/>
              <path class="cls-61" d="m53.57,29.43s0-.52.03-.72c.04-.2,3.24.48,3.24.48,0,0,.03.13-.05.74l-3.21-.5Z"/>
              <path class="cls-104" d="m53.59,28.71c-.03.78,3.19,1.22,3.21.53.04-.91-3.19-1.15-3.21-.53Z"/>
              <path class="cls-35" d="m53.98,28.84l.65-16.27s1.24-.6,2.41.45l-.63,16.25s-1.32.5-2.43-.43Z"/>
              <path class="cls-104" d="m54.65,12.01c-.03.83,2.39.98,2.41.47.04-.93-2.39-1.09-2.41-.47Z"/>
              <path class="cls-54" d="m53.72,12.75c-.04,1.01,4.16,1.61,4.2.72.05-1.19-4.16-1.52-4.2-.72Z"/>
              <path class="cls-16" d="m53.73,12.79s-.01-.67.03-.93c.05-.26,4.23.65,4.23.65,0,0,.04.17-.07.97l-4.19-.68Z"/>
              <path class="cls-104" d="m53.76,11.86c-.04,1.01,4.16,1.61,4.19.72.05-1.19-4.16-1.52-4.19-.72Z"/>
              <path class="cls-4" d="m54.57,13.98c.23,1.45,2.31,2.99,2.31,2.99l.12-3.07s-1.46.08-2.42-.38l-.02.47Z"/>
              <path class="cls-69" d="m58.58,5.06c0-.2-1.72,1.97-1.94,2.21-.22.25,0-.48-.54-.75-.56.12-.4.9-.6.59-.2-.31-1.74-2.96-1.75-2.76,0,.2-.15,3.14.15,3.62.3.48,1.34.67,1.34.67,0,0-2.19,1.68-.99,3.2.4.51,1.61.6,1.61.6,0,0,1.2.25,1.64-.13,1.3-1.15-.72-3.44-.72-3.44,0,0,1.04.12,1.38-.27.33-.39.42-3.33.43-3.53Z"/>
              <path class="cls-14" d="m53.96,11.27c.67-1.71,3.27.84,3.39.99.12.16-.87.42-2.15.05-1.29-.37-1.23-1.04-1.23-1.04Z"/>
              <path class="cls-14" d="m56.78,8.85s1.33-1.26,1.48-1.48c.15-.22.14.71-.03,1.08-.17.37-.72.4-1.45.41Z"/>
              <path class="cls-14" d="m55.24,8.63s-1.26-1.64-1.39-1.85c-.13-.21-.14.97.15,1.31s1.24.54,1.24.54Z"/>
              <path class="cls-14" d="m55.62,7.27c-.06.34.3.63.41.73.11.1-.3-.24-.26-.99,0-.15-.07-.16-.15.26Z"/>
              <path class="cls-59" d="m56.1,6.51c-.17.05-.56.32-.26,1.1.3.78.67-.36.61-.69-.06-.33-.29-.42-.35-.4Z"/>
              <path class="cls-59" d="m56.64,7.27c-.18.45-.38,1.42-.4,1.51s1.71-.76,2.02-1.4c.3-.64.2-2.07.2-2.16,0-.09-1.82,2.05-1.82,2.05Z"/>
              <path class="cls-59" d="m55.67,8.69c-.14,0-1.44-1.29-1.7-2.04-.26-.75-.18-1.9-.11-2.01s1.76,2.46,1.76,2.63.05,1.42.05,1.42Z"/>
              <path class="cls-59" d="m56.01,8.87c-.66-.21-.81,1.2-.09,1.97.72.77,1.5.85,1.61.87s.13-2.31-1.51-2.84Z"/>
              <path class="cls-10" d="m55.76,29.36c-.9.15-1.28-13.1.11-14.8.96-1.18,1.1.07.97,3.5-.13,3.43-.44,11.21-.44,11.21,0,0-.4.05-.65.09Z"/>
              <path class="cls-3" d="m55.04,30.2c-.5-.11,1.27-.6,1.56-.72.3-.12.16.4-.03.69s-1.54.03-1.54.03Z"/>
              <path class="cls-7" d="m51.29,35.42c-.01-.12.07-4.21.07-4.21,0,0,3.31,1.46,3.41,1.62.1.15-.16,4.39-.16,4.39,0,0-3.3-1.64-3.32-1.8Z"/>
              <path class="cls-82" d="m51.71,35.27c-.01-.11-.06-3.91-.06-3.91,0,0,3.03,1.39,3.12,1.53.09.15-.14,3.97-.14,3.97,0,0-2.89-1.39-2.92-1.59Z"/>
              <path class="cls-104" d="m51.29,35.42s.35-.16.42-.15c.07,0,2.92,1.49,2.92,1.49l-.03.46s-3.06-1.52-3.32-1.8Z"/>
              <path class="cls-7" d="m58.52,35.57c.02-.11.24-4.19.24-4.19,0,0-2.78,1.24-2.87,1.38s-.18,4.39-.18,4.39c0,0,2.79-1.43,2.81-1.58Z"/>
              <path class="cls-81" d="m58.19,35.39c.02-.11.33-3.89.33-3.89,0,0-2.55,1.18-2.63,1.32-.09.14-.17,3.97-.17,3.97,0,0,2.44-1.2,2.47-1.4Z"/>
              <path class="cls-58" d="m58.52,35.57s-.27-.18-.33-.18c-.05,0-2.47,1.3-2.47,1.3v.46s2.58-1.32,2.8-1.58Z"/>
            </g>
            <path class="cls-3" d="m.35,32.64s6.93,3.1,10.8,4.87c3.86,1.77,9.13,5.69,9.13,5.69L.35,32.64Z"/>
          </g>
          <g>
            <polygon class="cls-104" points="42.93 52.18 70.49 40 99.27 44.87 64.91 62.77 42.93 52.18"/>
            <polygon class="cls-71" points="45.41 51.75 46.19 34.92 66.67 44.44 65.59 60.94 45.41 51.75"/>
            <polygon class="cls-104" points="46.19 34.92 80 20.39 98.01 29.99 66.67 44.44 46.19 34.92"/>
            <path class="cls-66" d="m64.91,62.77l-.07,1.82-11.2-5.57s-.06-.47-.71-.75c-.61-.25-2.59-.93-2.84-1.02h0s-.02-.01-.02-.01l-7.21-3.58.07-1.48,8.3,4,3.14,1.51,10.55,5.08Z"/>
            <path class="cls-8" d="m65.7,42.08s9.99-2.52,12.67-3.03c2.68-.51,19.64-9.05,19.64-9.05l-10.01-5.36-22.3,17.44Z"/>
            <polygon class="cls-46" points="99.27 44.87 99.24 46.2 64.84 64.59 64.91 62.77 99.27 44.87"/>
            <polygon class="cls-102" points="66.67 44.44 98.01 29.99 97.38 44.98 65.59 60.94 66.67 44.44"/>
            <polygon class="cls-91" points="65.7 42.08 65.82 38.73 57.77 29.43 49.06 32.21 48.95 34.65 65.7 42.08"/>
            <polygon class="cls-60" points="57.81 28.61 82 18.1 91.76 27.46 65.82 38.73 57.81 28.61"/>
            <polygon class="cls-105" points="65.82 38.73 65.7 42.08 90.88 30.44 91.33 27.65 65.82 38.73"/>
            <path class="cls-11" d="m74.88,40.91c-1.8.98,4.59,3,11.3,1.26,6.67-1.73,10.56-10.93,10.79-11.52.23-.58-22.08,10.26-22.08,10.26Z"/>
            <polygon class="cls-18" points="48.58 32.52 48.4 31.84 57.81 28.61 66.49 38.84 65.81 39.06 57.77 29.43 48.58 32.52"/>
            <polygon class="cls-89" points="48.4 31.84 74.22 20.88 82 18.1 57.81 28.61 48.4 31.84"/>
            <path class="cls-7" d="m49.06,32.36l-.04.95s7.8-2.74,8.52-2.65c.72.08,1.68.5,1.68.5l-1.44-1.73-8.71,2.93Z"/>
            <g>
              <path class="cls-105" d="m54.14,35.84l-1.5-.68s-.01-2.38.78-2.15c.02,0,.03.01.05.02.5.22.63,1.67.67,2.39.01.25.01.41.01.41Z"/>
              <path class="cls-21" d="m54.12,35.43l-1.08-.45s-.03-1.81.41-1.95c.5.22.63,1.67.67,2.39Z"/>
              <polygon class="cls-87" points="53.05 34.98 52.63 35.16 54.14 35.84 54.12 35.43 53.05 34.98"/>
            </g>
            <g>
              <path class="cls-105" d="m57.33,37.09l-1.49-.68s-.01-2.37.77-2.14c.02,0,.03.01.05.02.49.22.63,1.66.67,2.39.01.25.01.41.01.41Z"/>
              <path class="cls-72" d="m57.32,36.68l-1.07-.45s-.03-1.81.4-1.94c.49.22.63,1.66.67,2.39Z"/>
              <polygon class="cls-87" points="56.25 36.24 55.84 36.42 57.33 37.09 57.32 36.68 56.25 36.24"/>
            </g>
            <g>
              <path class="cls-105" d="m60.73,38.54l-1.48-.67s-.02-2.36.76-2.14c.02,0,.03.01.05.02.49.22.63,1.66.66,2.38.01.25.01.41.01.41Z"/>
              <path class="cls-84" d="m60.71,38.13l-1.06-.44s-.04-1.8.4-1.93c.49.22.63,1.66.66,2.38Z"/>
              <polygon class="cls-87" points="59.65 37.69 59.24 37.87 60.73 38.54 60.71 38.13 59.65 37.69"/>
            </g>
            <g>
              <path class="cls-44" d="m51.59,53.37l-4.44-1.92.46-10.18s.51-3.33,1.82-3.42c.15-.01.3.02.47.1,1.72.82,1.98,4.64,1.98,4.64l-.28,10.1-.02.68Z"/>
              <path class="cls-85" d="m51.61,52.69l-3.77-1.64.46-10.17s.33-2.14,1.14-3.03c.15-.01.3.02.47.1,1.72.82,1.98,4.64,1.98,4.64l-.28,10.1Z"/>
              <path class="cls-4" d="m48.12,44.9c1.23-2.98,3.59,4.07,3.59,4.07l.16-6.51s-.29-3.62-1.97-4.51c-1.68-.9-2.28,3.16-2.31,3.7-.02.54.52,3.25.52,3.25Z"/>
            </g>
            <g>
              <path class="cls-79" d="m57.29,55.88l-4.38-1.9.44-10.13s.5-3.31,1.79-3.4c.14-.01.3.02.46.09,1.7.81,1.96,4.61,1.96,4.61l-.25,10.05-.02.68Z"/>
              <path class="cls-95" d="m57.31,55.21l-3.72-1.62.43-10.12s.32-2.13,1.12-3.02c.14-.01.3.02.46.09,1.7.81,1.96,4.61,1.96,4.61l-.25,10.05Z"/>
              <path class="cls-4" d="m53.85,47.47c1.21-2.97,3.55,4.03,3.55,4.03l.15-6.47s-.3-3.6-1.95-4.48c-1.66-.89-2.25,3.15-2.27,3.69-.02.53.52,3.23.52,3.23Z"/>
            </g>
            <g>
              <path class="cls-68" d="m62.83,58.23l-4.33-1.88.41-10.08s.49-3.3,1.76-3.39c.14-.01.29.01.45.09,1.68.8,1.95,4.58,1.95,4.58l-.23,10-.02.67Z"/>
              <path class="cls-93" d="m62.85,57.55l-3.68-1.6.41-10.07s.31-2.12,1.1-3.01c.14-.01.29.01.45.09,1.68.8,1.95,4.58,1.95,4.58l-.23,10Z"/>
              <path class="cls-4" d="m59.42,49.86c1.19-2.96,3.52,4,3.52,4l.13-6.44s-.3-3.58-1.94-4.45c-1.64-.88-2.21,3.14-2.23,3.68-.02.53.52,3.22.52,3.22Z"/>
            </g>
            <g>
              <path class="cls-33" d="m92.72,45.84l3.66-1.88.21-8.12s-.22-2.64-1.26-2.65c-.12,0-.24.03-.38.1-1.43.74-1.85,3.85-1.85,3.85l-.35,8.15-.02.55Z"/>
              <path class="cls-4" d="m92.74,45.29l3.11-1.6.21-8.13s-.14-1.7-.73-2.38c-.12,0-.24.03-.38.1-1.43.74-1.85,3.85-1.85,3.85l-.35,8.15Z"/>
              <path class="cls-4" d="m95.98,38.77c-.81-2.32-3.11,3.51-3.11,3.51l.24-5.25s.44-2.94,1.84-3.75c1.39-.8,1.64,2.42,1.63,2.85-.01.43-.6,2.64-.6,2.64Z"/>
            </g>
            <g>
              <path class="cls-2" d="m87.31,48.4l3.71-1.91.23-8.19s-.22-2.66-1.27-2.67c-.12,0-.24.03-.38.1-1.45.76-1.89,3.89-1.89,3.89l-.37,8.22-.02.55Z"/>
              <path class="cls-4" d="m87.34,47.85l3.16-1.62.23-8.2s-.14-1.72-.74-2.4c-.12,0-.24.03-.38.1-1.45.76-1.89,3.89-1.89,3.89l-.37,8.22Z"/>
              <path class="cls-4" d="m90.63,41.27c-.82-2.34-3.16,3.55-3.16,3.55l.25-5.3s.45-2.97,1.87-3.78c1.41-.81,1.66,2.44,1.64,2.87-.01.43-.61,2.66-.61,2.66Z"/>
            </g>
            <g>
              <path class="cls-76" d="m81.77,51.21l3.77-1.94.25-8.27s-.21-2.69-1.28-2.69c-.12,0-.25.03-.39.1-1.47.77-1.92,3.93-1.92,3.93l-.4,8.3-.03.56Z"/>
              <path class="cls-4" d="m81.8,50.65l3.21-1.65.25-8.27s-.14-1.73-.75-2.42c-.12,0-.25.03-.39.1-1.47.77-1.92,3.93-1.92,3.93l-.4,8.3Z"/>
              <path class="cls-4" d="m85.16,44c-.83-2.36-3.21,3.6-3.21,3.6l.27-5.35s.47-3,1.91-3.83c1.43-.83,1.68,2.45,1.66,2.89-.01.44-.62,2.69-.62,2.69Z"/>
            </g>
            <g>
              <path class="cls-78" d="m76.07,54.21l3.83-1.97.27-8.35s-.21-2.71-1.3-2.71c-.12,0-.25.03-.4.11-1.5.78-1.96,3.98-1.96,3.98l-.42,8.38-.03.56Z"/>
              <path class="cls-4" d="m76.09,53.64l3.26-1.68.27-8.35s-.14-1.75-.75-2.44c-.12,0-.25.03-.4.11-1.5.78-1.96,3.98-1.96,3.98l-.42,8.38Z"/>
              <path class="cls-4" d="m79.52,46.91c-.83-2.38-3.27,3.64-3.27,3.64l.28-5.4s.48-3.03,1.95-3.87c1.46-.84,1.7,2.47,1.68,2.91-.01.44-.64,2.72-.64,2.72Z"/>
            </g>
            <g>
              <path class="cls-80" d="m70.49,57.28l3.9-2.01.29-8.42s-.21-2.73-1.31-2.73c-.12,0-.26.03-.4.11-1.52.79-2,4.02-2,4.02l-.44,8.46-.03.57Z"/>
              <path class="cls-4" d="m70.52,56.71l3.31-1.7.29-8.43s-.13-1.76-.76-2.46c-.12,0-.26.03-.4.11-1.52.79-2,4.02-2,4.02l-.44,8.46Z"/>
              <path class="cls-4" d="m74.01,49.91c-.84-2.4-3.33,3.69-3.33,3.69l.3-5.45s.49-3.06,1.98-3.91c1.48-.85,1.72,2.49,1.7,2.93-.02.44-.65,2.74-.65,2.74Z"/>
            </g>
            <polygon class="cls-17" points="95.88 43.65 96.38 43.96 92.72 45.84 92.75 45.23 95.88 43.65"/>
            <polygon class="cls-17" points="85.06 48.95 85.57 49.26 81.8 51.2 81.83 50.58 85.06 48.95"/>
            <polygon class="cls-17" points="79.38 51.93 79.9 52.23 76.07 54.21 76.1 53.58 79.38 51.93"/>
            <polygon class="cls-17" points="73.89 54.97 74.41 55.27 70.52 57.28 70.55 56.65 73.89 54.97"/>
            <polygon class="cls-17" points="90.52 46.18 91.03 46.48 87.31 48.39 87.34 47.74 90.52 46.18"/>
            <path class="cls-12" d="m57.81,28.61l9.28-4.04s6.01,7.36,6.21,7.31c.21-.05-4.26-5.7-4.26-5.7l6.92,7.81-9.52,4.47-8.63-9.86Z"/>
            <path class="cls-12" d="m69.71,23.42s3.43,3.6,3.64,3.68c.2.08,4.14-1.64,4.46-1.82.32-.17-3.22-3.98-3.22-3.98l-4.88,2.12Z"/>
            <path class="cls-12" d="m78.49,25.29c.04-.09,1.64-.53,1.64-.53l5.56,5.34-1.82.79-5.39-5.59Z"/>
            <polygon class="cls-104" points="47.15 51.45 47.84 51.06 51.61 52.69 51.59 53.37 47.15 51.45"/>
            <polygon class="cls-104" points="52.91 53.98 53.59 53.59 57.31 55.21 57.29 55.88 52.91 53.98"/>
            <polygon class="cls-104" points="59.17 55.96 58.5 56.35 62.83 58.23 62.85 57.55 59.17 55.96"/>
            <path class="cls-12" d="m65.61,60.63s1.16-15,1.53-15.65c.37-.64,25.32-12.28,25.32-12.28,0,0,.08,12.76-1.23,14.65-1.32,1.9-25.61,13.29-25.61,13.29Z"/>
            <polygon class="cls-8" points="65.59 60.94 73.84 58.12 99.27 44.87 97.4 44.36 97.12 44.73 65.59 60.94"/>
            <path class="cls-4" d="m65.81,39.06l25.47-11.11-.16.99s-6.06,2.97-12.49,5.33c-6.48,2.37-12.82,4.79-12.82,4.79h0Z"/>
            <path class="cls-83" d="m66.43,38.47l-.39.49s19.85-7.55,25.72-11.5l-25.33,11.01Z"/>
            <polygon class="cls-8" points="65.7 42.08 66.04 38.96 66.43 38.47 91.76 27.46 91.28 27.95 90.88 30.44 65.7 42.08"/>
            <path class="cls-14" d="m66.43,38.47s-8.08-9.23-7.82-9.52c.26-.28,20.17-10.11,22.3-9.56,2.12.55,10.41,8.25,10.41,8.25l-24.89,10.82Z"/>
            <path class="cls-103" d="m54.45,57.55s-.05.07-.09.13c-.22.37-.73,1.33-.73,1.33,0,0-.06-.47-.71-.75-.61-.25-2.59-.93-2.84-1.02h0s-.02-.01-.02-.01h0c.06-.07,1.02-1.13,1.16-1.06.14.07,3.09.43,3.27.42.18-.02.07.84-.04.96Z"/>
            <path class="cls-6" d="m51.24,56.26c-.18.04-1.24.96-1.15.99s3,.96,3.32.94c.32-.02,1.03-1.3,1.06-1.45.03-.14-2.95-.53-3.22-.48Z"/>
            <path class="cls-74" d="m63.69,62.17c.11-.13,1.85.27,1.85.27,0,0-.46.89-.65.92s-1.2-1.2-1.2-1.2Z"/>
            <path class="cls-11" d="m66.11,60.39c-.5.24.4-13.78,1.22-14.9.81-1.12,5.11-2.95,5.3-3.04.2-.1-1.14,2.36-2.32,7.55-1.18,5.21-3.98,10.3-4.2,10.4Z"/>
            <path class="cls-27" d="m76.86,39.74s4.08-2.36,4.94-2.52c.86-.16,10.26-4.49,10.26-4.49l-15.2,7.01Z"/>
            <path class="cls-23" d="m81.46,26.04c-.14-.47,6.07-2.46,6.07-2.46l4.23,3.87-6.08,2.64-4.22-4.05Z"/>
            <path class="cls-31" d="m78.09,27.68s-.31.18-.32.29c-.01.11,1.62,1.25,1.69,1.36.08.11-1.07-1.35-1.37-1.65Z"/>
            <path class="cls-23" d="m77.61,26.21c-.16-.04,2.89,2.82,3.25,3.1s1.47.39,1.59.34c.12-.05-3.7-3.84-3.87-3.94-.17-.1-.98.5-.98.5Z"/>
            <path class="cls-42" d="m64.94,59.79l-1.33-.65v-.06s.68-11.46.68-11.46l-.35-.11v-.06s-.17-2.42-1.37-3.77l-.02-.03.02-.53,3.38,1.64v.06s-1,14.98-1,14.98Zm-1.15-.74l.99.48.98-14.68-3.03-1.47v.22c1.11,1.3,1.34,3.39,1.37,3.79l.37.12v.07s-.68,11.47-.68,11.47Z"/>
            <g>
              <path class="cls-20" d="m66.69,44.21c-.21-.23-.88.89-.34,1.56s.81-1.06.34-1.56Z"/>
              <path class="cls-9" d="m66.19,44.77c-.15.72.54.8.69.21.15-.59-.3-.81-.36-.76-.06.05-.29.36-.33.56Z"/>
              <path class="cls-28" d="m66.42,45.85c-.23-.36.43-.48.5-.6.06-.12-.16.97-.5.6Z"/>
            </g>
            <path class="cls-42" d="m46.67,51.69l-.87-.46.67-15.81,3.09,1.38-.04.61h-.09s0-.01,0-.01c-.02,0-1.42-.17-2.05,2.49l-.02.1-.24-.12-.45,11.81Zm-.69-.55l.52.27.45-11.81.28.14c.6-2.36,1.79-2.52,2.13-2.52l.02-.33-2.74-1.22-.65,15.46Z"/>
            <path class="cls-46" d="m57.18,42.96s1.21,1.5,1.36,1.77c.16.27.48,1,.48,1l-.1.67s-.07-1.08-.48-1.67c-.41-.58-.38-.58-.61-.69-.23-.11-.65-1.09-.65-1.09Z"/>
            <path class="cls-11" d="m57.17,59.04c-.57-.28.06,1.76.06,1.76l6.66,3.31s-.87-1.94-1.19-2.27c-.31-.33-5.53-2.81-5.53-2.81Z"/>
            <path class="cls-5" d="m64.84,64.59s.86-1.72,1.45-2.29c.59-.56,30.76-16.28,30.76-16.28,0,0-6.12,4.2-12.06,7.79-5.98,3.62-20.16,10.77-20.16,10.77Z"/>
            <path class="cls-11" d="m66.51,49.97c-.3,3.68,3.16-4.81,3.2-5.62.05-.82-2.62.51-2.73,1.35-.11.84-.47,4.27-.47,4.27Z"/>
            <path class="cls-110" d="m48.4,31.84l9.4-3.23,12.86-5.59s-7.27,2.58-11.46,4.23c-4.21,1.66-10.8,4.59-10.8,4.59Z"/>
            <path class="cls-23" d="m62.25,33.26c.26-.51,3.18-1.61,3.62-1.7.44-.09,4.56,4.9,4.52,5.05-.04.16-3.59,1.48-3.75,1.55-.16.07-4.39-4.91-4.39-4.91Z"/>
            <path class="cls-104" d="m63.58,59.21l1.34.6s-.34.2-1.34-.6Z"/>
            <path class="cls-104" d="m45.8,51.24l.87.51s-.67-.2-.87-.51Z"/>
            <path class="cls-104" d="m62.73,43.44l2.98,1.37s-1.84-.4-2.98-1.37Z"/>
            <path class="cls-104" d="m46.75,35.8l2.61,1.13s-1.96-.58-2.61-1.13Z"/>
            <path class="cls-57" d="m57.83,44.05s.34.29.51.54c.16.25.29.51.29.51,0,0-.12-.32-.25-.5-.12-.18-.32-.47-.37-.49-.05-.02-.19-.05-.19-.05Z"/>
            <path class="cls-56" d="m50.6,55.87c.14-.03,1.13.39,1.13.39,0,0-.81.21-.85.24-.04.03-.28-.63-.28-.63Z"/>
            <path class="cls-39" d="m89.88,25.74l1.88,1.72-.49.5-.4,2.49s3.7.07,4.78,0c.55-.03,2.35-.46,2.35-.46l-8.12-4.25Z"/>
          </g>
          <path class="cls-40" d="m82,18.1s4.16,4.56,4.94,5.49c.78.93,4.83,3.87,4.83,3.87l-9.77-9.36Z"/>
        </g>
      </g>
    </g>
  </g>
</svg>